<svg id="Layer_1" data-name="Layer 1" xmlns="http://www.w3.org/2000/svg" viewBox="0 0 437.23 413.02"><defs><style>.cls-1{fill:#75ad5e;}</style></defs><title>hotel-icon</title><path class="cls-1" d="M458,444V138.14L158.84,81.59,62.54,125V337.44a44.51,44.51,0,0,1,12.57-1.8h58.56V342H75.11a38.26,38.26,0,0,0-38.26,38.26H62.54V444h-16v18.53H474.07V444H458Zm-333.15-117-28.42-4.2V274l28.42,0.31v52.65Zm0-80.53-28.42,1.75V199.41l28.42-5.64v52.65Zm0-80.52-28.42,7.7V124.83l28.42-11.59v52.65ZM137.18,444h-53V380.29l53-5.86V444Zm45.94-333.9,13.34,2.36v19.7l16.06,2.68V115.28l13.41,2.37v53.27l-13.41-2V147l-16.06-2.58v22.07l-13.34-2V110.08Zm38.32,325.08-33.84-.41V380.42l13.34,0.53v41.88l20.5,0.38v12Zm0.14-65.84-34.12-1.58V313.41l33.06,2.44v12l-19.72-1.33v7.85l18.65,1.19v11.9l-18.65-1.07v9.94l20.79,1.09v12Zm4.27-106.77L211.19,261v41.59l-13.41-1.08V259.68l-14.59-1.48V245.94l42.66,4.61v12Zm-21.69-26.9C189.36,233.94,179,221.4,179,205.13c0-16.77,10.63-27,25.85-24.79C219.68,182.45,230,195,230,210.78,230,230,217,237.11,204.16,235.64ZM304.35,411.81l-39.63-1v-52.2l39.63,2.1v51.1Zm0-76.4-39.63-2.64v-52.2l39.63,3.74v51.1Zm0-76.4-39.63-4.28v-52.2l39.63,5.37V259Zm0-76.4-39.63-5.91V124.51l39.63,7v51.1Zm66,230.86-39.63-1V362.11l39.63,2.1v49.28Zm0-73.67-39.63-2.64V286.8l39.63,3.73v49.28Zm0-73.67-39.63-4.28V211.5l39.63,5.37v49.28Zm0-73.67-39.63-5.91V136.19l39.63,7v49.27Zm66,222.67-39.63-1V365.6l39.63,2.1v47.45Zm0-70.94-39.63-2.64V293l39.63,3.73v47.45Zm0-70.94L396.81,269V220.45l39.63,5.37v47.45Zm0-70.94-39.63-5.91V147.87l39.63,7v47.45Z" transform="translate(-36.85 -49.49)"/><path class="cls-1" d="M204.59,192.22c-8.71-1.19-11.8,7.09-11.8,14.54s3.67,16,11.73,17,11.8-6.56,11.8-14.47C216.32,201.84,212.65,193.32,204.59,192.22Z" transform="translate(-36.85 -49.49)"/><path class="cls-1" d="M436.74,122.61V101.52l-275.27-52-77.63,35v19.4l75-33.78Z" transform="translate(-36.85 -49.49)"/></svg>