<svg id="Layer_1" data-name="Layer 1" xmlns="http://www.w3.org/2000/svg" viewBox="0 0 47.56 67.36"><defs><style>.cls-1,.cls-2{fill:#76ae5f;}.cls-1,.cls-3,.cls-4{fill-rule:evenodd;}.cls-3{fill:#91c67b;}.cls-4{fill:#ffd574;}.cls-5{fill:#fff;}.cls-6{fill:none;stroke:#ffd574;stroke-linecap:round;stroke-linejoin:round;stroke-width:0.43px;}</style></defs><title>nidacash-bag</title><path class="cls-1" d="M183.79,479.66c-0.12-1.27-1.22-5-4.16-10.24s-0.61-8.51,3.85-8.34,3.86-3.48,7.49-3.5,3.06,3.64,7.52,3.43,6.81,3,3.92,8.31-4,9-4.08,10.28C197.31,490.85,184.9,490.9,183.79,479.66Z" transform="translate(-167.26 -457.59)"/><ellipse class="cls-2" cx="191.03" cy="501.36" rx="23.77" ry="23.59" transform="translate(-169.3 -456.8) rotate(-0.23)"/><path class="cls-3" d="M190.93,477.76a23.78,23.78,0,0,1,16.87,6.87,23.35,23.35,0,0,1,2.34,10.13c0.05,13,1.17,23.59-23.67,23.69-9.06,0-14.68-1.35-18.17-3.75-1.16-3.77-1-8.34-1-13.25A23.68,23.68,0,0,1,190.93,477.76Z" transform="translate(-167.26 -457.59)"/><path class="cls-4" d="M181.21,474l19.42-.08a1.35,1.35,0,0,1,1.36,1.34h0a1.35,1.35,0,0,1-1.34,1.36l-19.42.08a1.35,1.35,0,0,1-1.36-1.34h0A1.35,1.35,0,0,1,181.21,474Z" transform="translate(-167.26 -457.59)"/><path class="cls-4" d="M181.22,476.71l19.42-.08A1.35,1.35,0,0,1,202,478h0a1.35,1.35,0,0,1-1.34,1.36l-19.42.08a1.35,1.35,0,0,1-1.36-1.34h0A1.35,1.35,0,0,1,181.22,476.71Z" transform="translate(-167.26 -457.59)"/><path class="cls-5" d="M193.54,488.83a6.27,6.27,0,0,1,2.71,1.47,6.75,6.75,0,0,1,1.94,3.84l-4.06.55a4,4,0,0,0-.58-1.45l0-4.4h0Zm0,10a8.66,8.66,0,0,1,3.9,2.28,6.39,6.39,0,0,1,1.41,4.26,7,7,0,0,1-5.26,7.08l0-3.82a3.3,3.3,0,0,0,.6-0.56,3.15,3.15,0,0,0,.75-2.1,2.79,2.79,0,0,0-1.37-2.47Zm-3.64,10.14,0-6.73q-0.54-.15-1-0.33l0-4.86a4.25,4.25,0,0,0,1,.62l0-5.56a3.1,3.1,0,0,0-1,.58l0-3.92a8.85,8.85,0,0,1,1-.17V487h2.32v1.59a9.38,9.38,0,0,1,1.36.26l0,4.4a3,3,0,0,0-1.36-1.11l0,6.28q0.72,0.19,1.36.41l0,4.66a5.34,5.34,0,0,0-1.36-.57l0,6.26a3.37,3.37,0,0,0,1.36-.56l0,3.82a10.34,10.34,0,0,1-1.36.29v3H190V512.8a9.56,9.56,0,0,1-1-.18l0-4.41A4,4,0,0,0,189.94,508.95Zm-1.06-7.06a8.08,8.08,0,0,1-3.6-2.37,6.86,6.86,0,0,1-1.49-4.42,6.26,6.26,0,0,1,1.64-4.43,6.44,6.44,0,0,1,3.39-1.91l0,3.92a3.1,3.1,0,0,0-.47.51,2.85,2.85,0,0,0-.55,1.71,2.7,2.7,0,0,0,.52,1.58,3,3,0,0,0,.53.56l0,4.86h0Zm0,10.74a7.12,7.12,0,0,1-3.49-1.87,8.51,8.51,0,0,1-2.23-4.89l4.19-.47a5.27,5.27,0,0,0,1.51,2.82Z" transform="translate(-167.26 -457.59)"/><path class="cls-6" d="M198.42,478.28c3.63,4.26,5.43,9.47,3.92,17.67" transform="translate(-167.26 -457.59)"/><path class="cls-6" d="M198.42,478.28c5,2.51,8.7,6.61,10.5,14.74" transform="translate(-167.26 -457.59)"/><path class="cls-3" d="M180.59,471.21q-0.44-.86-1-1.8c-2.94-5.28-.61-8.51,3.85-8.34s3.86-3.48,7.49-3.5,3.06,3.64,7.52,3.43a6.92,6.92,0,0,1,2.33.26c-0.56,1.66-.85,2.87-1.15,3.64C197,471.74,187.46,473.62,180.59,471.21Z" transform="translate(-167.26 -457.59)"/></svg>