<svg id="Layer_1" data-name="Layer 1" xmlns="http://www.w3.org/2000/svg" viewBox="0 0 150.52 40.15"><defs><style>.cls-1{fill:#e6e7e8;}.cls-2{fill:#231f20;}.cls-3,.cls-4{fill:#76ae5f;}.cls-3,.cls-5,.cls-6{fill-rule:evenodd;}.cls-5{fill:#91c67b;}.cls-6{fill:#ffd574;}.cls-7{fill:#fff;}.cls-8{fill:none;stroke:#ffd574;stroke-linecap:round;stroke-linejoin:round;stroke-width:0.23px;}</style></defs><title>nidacash</title><ellipse class="cls-1" cx="135.45" cy="36.19" rx="13.32" ry="3.96"/><path class="cls-2" d="M749.61,1203.57a1.28,1.28,0,0,0,.25.78,2.91,2.91,0,0,0,.67.63,7.29,7.29,0,0,0,.95.55l1.08,0.54q0.55,0.28,1.08.6a5.33,5.33,0,0,1,.95.72,3.28,3.28,0,0,1,.67.91,2.53,2.53,0,0,1,.25,1.15,3,3,0,0,1-.19,1.09,3.1,3.1,0,0,1-.52.89,3.71,3.71,0,0,1-.78.7,4.78,4.78,0,0,1-1,.5,6,6,0,0,1-1.1.3,6.63,6.63,0,0,1-1.16.1,6.38,6.38,0,0,1-1.59-.2,4.45,4.45,0,0,1-1.38-.6,3.18,3.18,0,0,1-1-1,2.7,2.7,0,0,1-.36-1.42,1.87,1.87,0,0,1,.13-0.74,1.78,1.78,0,0,1,.33-0.53,1.41,1.41,0,0,1,.44-0.32,1.06,1.06,0,0,1,.44-0.11,0.54,0.54,0,0,1,.35.12,0.43,0.43,0,0,1,.14.36,1.14,1.14,0,0,1,0,.24l-0.06.27c0,0.1,0,.21-0.06.32a2.64,2.64,0,0,0,0,.39,1.47,1.47,0,0,0,.21.79,1.73,1.73,0,0,0,.56.55,2.64,2.64,0,0,0,.8.32,4.14,4.14,0,0,0,.94.11,4.86,4.86,0,0,0,1.14-.14,3.68,3.68,0,0,0,1-.41,2.42,2.42,0,0,0,.73-0.66,1.49,1.49,0,0,0,.28-0.9,1.44,1.44,0,0,0-.25-0.83,2.93,2.93,0,0,0-.67-0.68,6.73,6.73,0,0,0-.95-0.59l-1.08-.56c-0.37-.19-0.73-0.39-1.08-0.59a5.83,5.83,0,0,1-.95-0.69,3.15,3.15,0,0,1-.67-0.84,2.15,2.15,0,0,1-.25-1.05,2.42,2.42,0,0,1,.27-1.09,2.85,2.85,0,0,1,.8-1,4.24,4.24,0,0,1,1.34-.69,6,6,0,0,1,1.88-.26,4.43,4.43,0,0,1,1.33.21,4,4,0,0,1,1.17.58,3,3,0,0,1,.82.89,2.18,2.18,0,0,1,.31,1.15,2.47,2.47,0,0,1-.13.77,3.42,3.42,0,0,1-.41.82,2,2,0,0,1-.6.61,1.16,1.16,0,0,1-.59.2,0.46,0.46,0,0,1-.32-0.12,0.45,0.45,0,0,1-.12-0.35,1.28,1.28,0,0,1,.08-0.4,2.58,2.58,0,0,1,.27-0.54,2.74,2.74,0,0,0,.26-0.54,1.47,1.47,0,0,0,.08-0.47,1,1,0,0,0-.18-0.59,1.42,1.42,0,0,0-.5-0.42,2.62,2.62,0,0,0-.76-0.26,5.07,5.07,0,0,0-1-.09,3.49,3.49,0,0,0-1,.13,2.44,2.44,0,0,0-.73.35,1.45,1.45,0,0,0-.43.47A1.1,1.1,0,0,0,749.61,1203.57Z" transform="translate(-704.55 -1174.93)"/><path class="cls-2" d="M759,1208.1l0.6-.76a9.28,9.28,0,0,1,.7-0.76A4.7,4.7,0,0,1,761,1206a1.24,1.24,0,0,1,.67-0.23l0.18,0a0.5,0.5,0,0,1,.19.11,0.59,0.59,0,0,1,.15.22,1,1,0,0,1,.06.36,3.05,3.05,0,0,1-.12.87c-0.08.28-.17,0.56-0.27,0.85s-0.19.57-.27,0.86a3.43,3.43,0,0,0-.12.92,0.94,0.94,0,0,0,.08.42,0.23,0.23,0,0,0,.2.16,1,1,0,0,0,.33-0.06,2.27,2.27,0,0,0,.35-0.17,3.26,3.26,0,0,0,.35-0.24l0.32-.28a7.67,7.67,0,0,0,.71-0.76l0.11,1.75-0.3.23-0.4.29-0.48.31a5.18,5.18,0,0,1-.51.28,3.78,3.78,0,0,1-.52.2,1.7,1.7,0,0,1-.5.08,1,1,0,0,1-.63-0.19,1.56,1.56,0,0,1-.44-0.49,2.48,2.48,0,0,1-.26-0.65,2.89,2.89,0,0,1-.08-0.67,2.24,2.24,0,0,1,.06-0.47c0-.17.08-0.35,0.14-0.52s0.12-.35.18-0.51l0.19-.45,0.15-.32,0.09-.14-0.14,0a2.49,2.49,0,0,0-.38.37q-0.27.3-.6,0.75c-0.22.3-.45,0.64-0.69,1a11.61,11.61,0,0,0-.65,1.16c-0.1.2-.17,0.37-0.24,0.52a2.58,2.58,0,0,1-.18.36,0.7,0.7,0,0,1-.19.21,0.46,0.46,0,0,1-.27.07,0.46,0.46,0,0,1-.34-0.12,0.78,0.78,0,0,1-.19-0.33,2.1,2.1,0,0,1-.09-0.47c0-.17,0-0.35,0-0.54s0-.68,0-1.15,0-1,.06-1.58,0.08-1.19.15-1.83,0.16-1.27.28-1.89a15.58,15.58,0,0,1,.45-1.79,7,7,0,0,1,.66-1.5,3.44,3.44,0,0,1,.92-1,2,2,0,0,1,1.21-.38,1.41,1.41,0,0,1,.58.1,0.9,0.9,0,0,1,.36.3,1.15,1.15,0,0,1,.19.46,3.07,3.07,0,0,1,.05.59,4.79,4.79,0,0,1-.14,1.08,11.32,11.32,0,0,1-.36,1.23q-0.23.64-.52,1.29c-0.19.44-.39,0.86-0.59,1.27s-0.4.79-.59,1.16l-0.51,1Zm0.58-4.06a15.24,15.24,0,0,0,.56-1.69,4.64,4.64,0,0,0,.17-1q0-.5-0.13-0.5a1,1,0,0,0-.51.56,14,14,0,0,0-.79,1.62c-0.07.24-.14,0.49-0.21,0.75s-0.12.52-.17,0.77-0.1.51-.14,0.76-0.08.48-.11,0.71q-0.11.78-.17,1.53l0.39-.9,0.41-1,0.38-.9Z" transform="translate(-704.55 -1174.93)"/><path class="cls-2" d="M770.35,1210.57a6,6,0,0,1-.4.49,5.09,5.09,0,0,1-.57.54,3.51,3.51,0,0,1-.68.43,1.61,1.61,0,0,1-.72.18,1,1,0,0,1-.72-0.28,2.26,2.26,0,0,1-.5-0.81,3.18,3.18,0,0,1-.39.38,3.35,3.35,0,0,1-.5.34,3.22,3.22,0,0,1-.57.25,1.89,1.89,0,0,1-.59.1,1.53,1.53,0,0,1-.61-0.13,1.57,1.57,0,0,1-.53-0.37,1.79,1.79,0,0,1-.37-0.58,2.05,2.05,0,0,1-.14-0.78,3.9,3.9,0,0,1,.14-1,5.56,5.56,0,0,1,.38-1,5.74,5.74,0,0,1,.58-0.94,4.57,4.57,0,0,1,.72-0.77,3.52,3.52,0,0,1,.83-0.52,2.17,2.17,0,0,1,.89-0.19,0.41,0.41,0,0,1,.24.06,0.58,0.58,0,0,1,.14.13l0.11,0.15a0.29,0.29,0,0,0,.13.11l0.16,0h0.46l0.18,0a0.3,0.3,0,0,1,.15.09,0.42,0.42,0,0,1,.1.18,1.16,1.16,0,0,1,0,.32,4.16,4.16,0,0,1-.07.7c0,0.26-.09.52-0.14,0.79s-0.1.54-.14,0.81a4.75,4.75,0,0,0-.07.76,1.6,1.6,0,0,0,.06.48,0.23,0.23,0,0,0,.24.17,0.68,0.68,0,0,0,.29-0.07,1.72,1.72,0,0,0,.3-0.18,3.21,3.21,0,0,0,.31-0.25l0.29-.29a10.31,10.31,0,0,0,.65-0.8Zm-5.61-.52a2.1,2.1,0,0,0,0,.32,0.92,0.92,0,0,0,.08.28,0.53,0.53,0,0,0,.16.2,0.39,0.39,0,0,0,.25.08,0.59,0.59,0,0,0,.44-0.21,2,2,0,0,0,.34-0.5,4,4,0,0,0,.35-1.14l0.4-1.93a1.11,1.11,0,0,0-.52.13,1.92,1.92,0,0,0-.48.37,3.26,3.26,0,0,0-.42.52,4.1,4.1,0,0,0-.33.62,4,4,0,0,0-.21.65A2.81,2.81,0,0,0,764.75,1210.05Z" transform="translate(-704.55 -1174.93)"/><path class="cls-2" d="M769.58,1210.81q0-.29,0-0.67c0-.26.05-0.53,0.09-0.81s0.08-.57.13-0.87,0.1-.58.16-0.84,0.11-.51.17-0.73a4.79,4.79,0,0,1,.17-0.55,1.28,1.28,0,0,1,.11-0.23,0.45,0.45,0,0,1,.12-0.13,0.4,0.4,0,0,1,.17-0.07l0.25,0,0.27,0a0.21,0.21,0,0,1,.14.08,0.34,0.34,0,0,1,.06.18c0,0.08,0,.19,0,0.32v0.59c0,0.23,0,.46,0,0.68h0.07l0.29-.59a3.79,3.79,0,0,1,.38-0.61,2.23,2.23,0,0,1,.49-0.48,1.08,1.08,0,0,1,.64-0.19,0.69,0.69,0,0,1,.24,0,0.61,0.61,0,0,1,.21.12,0.59,0.59,0,0,1,.14.19,0.62,0.62,0,0,1,.05.26,2,2,0,0,1,0,.31l-0.07.42-0.07.43a2.31,2.31,0,0,0,0,.34,1.41,1.41,0,0,0,0,.39,0.75,0.75,0,0,0,.12.25,0.43,0.43,0,0,0,.17.13,0.5,0.5,0,0,0,.2,0,1.58,1.58,0,0,0,.61-0.13,3.86,3.86,0,0,0,.58-0.29,5.56,5.56,0,0,0,.6-0.43l-0.1,1.54-0.39.25a4.75,4.75,0,0,1-.46.26,3.33,3.33,0,0,1-.51.2,1.82,1.82,0,0,1-.54.08,1.42,1.42,0,0,1-.79-0.2,1.44,1.44,0,0,1-.48-0.53,2.65,2.65,0,0,1-.26-0.73c-0.06-.27-0.1-0.54-0.14-0.82h-0.11l-1.17,3.28a4.3,4.3,0,0,1-.17.42,1.48,1.48,0,0,1-.17.27,0.48,0.48,0,0,1-.18.15,0.53,0.53,0,0,1-.22,0,0.73,0.73,0,0,1-.43-0.12,0.74,0.74,0,0,1-.25-0.31,1.51,1.51,0,0,1-.12-0.44A4.3,4.3,0,0,1,769.58,1210.81Z" transform="translate(-704.55 -1174.93)"/><path class="cls-2" d="M777.47,1212.18a2.47,2.47,0,0,1-1.08-.22,2.23,2.23,0,0,1-.77-0.6,2.55,2.55,0,0,1-.46-0.87,3.47,3.47,0,0,1-.15-1,4.41,4.41,0,0,1,.07-0.78,4.46,4.46,0,0,1,.22-0.8,4.14,4.14,0,0,1,.37-0.75,3,3,0,0,1,.52-0.63,2.45,2.45,0,0,1,.67-0.43,2.05,2.05,0,0,1,.82-0.16,1.9,1.9,0,0,1,.68.12,1.65,1.65,0,0,1,.55.33,1.47,1.47,0,0,1,.36.51,1.68,1.68,0,0,1,.13.68,1.84,1.84,0,0,1-.2.81,3,3,0,0,1-.55.77,3.91,3.91,0,0,1-.84.64,4.57,4.57,0,0,1-1.06.44,2.09,2.09,0,0,0,.19.29,0.84,0.84,0,0,0,.19.18,0.62,0.62,0,0,0,.21.09l0.23,0a2.44,2.44,0,0,0,.83-0.16,5.39,5.39,0,0,0,.85-0.39,7.2,7.2,0,0,0,1.41-1l0.85,0.88a8.76,8.76,0,0,1-1.23,1.06q-0.28.2-.61,0.39a5.69,5.69,0,0,1-.68.34,4.73,4.73,0,0,1-.74.24A3.47,3.47,0,0,1,777.47,1212.18Zm-0.87-3.08a1.32,1.32,0,0,0,.52-0.12,2.38,2.38,0,0,0,.52-0.31,2.21,2.21,0,0,0,.4-0.41,0.73,0.73,0,0,0,.16-0.43,1,1,0,0,0-.11-0.48,0.31,0.31,0,0,0-.27-0.19,1,1,0,0,0-.48.11,1.05,1.05,0,0,0-.33.27,1.46,1.46,0,0,0-.22.38,2.6,2.6,0,0,0-.12.43,3.07,3.07,0,0,0-.06.42C776.6,1208.88,776.6,1209,776.6,1209.1Z" transform="translate(-704.55 -1174.93)"/><path class="cls-2" d="M786.25,1206.56c-0.08-.15-0.17-0.33-0.26-0.54s-0.17-.42-0.25-0.65a6.41,6.41,0,0,1-.19-0.69,3,3,0,0,1-.08-0.65,2.36,2.36,0,0,1,.23-1,2.94,2.94,0,0,1,.62-0.86,3,3,0,0,1,.9-0.59,2.68,2.68,0,0,1,1.07-.22,2.57,2.57,0,0,1,.88.15,2,2,0,0,1,.69.41,1.87,1.87,0,0,1,.45.62,1.85,1.85,0,0,1,.16.77,2.57,2.57,0,0,1-.12.77,3.11,3.11,0,0,1-.41.82,4.93,4.93,0,0,1-.73.83,6.91,6.91,0,0,1-1.08.8c0.05,0.1.14,0.26,0.27,0.46l0.42,0.67,0.49,0.77q0.25,0.4.47,0.78a1,1,0,0,0,.22-0.2,0.77,0.77,0,0,0,.12-0.21,0.84,0.84,0,0,0,0-.21c0-.07,0-0.14,0-0.22a1.35,1.35,0,0,0-.06-0.43,1.62,1.62,0,0,0-.17-0.35q-0.11-.17-0.26-0.36a5.68,5.68,0,0,1-.33-0.48l0,0,0.08-.07,0.08-.07,0.05,0a0.77,0.77,0,0,1,.28.08,2.65,2.65,0,0,1,.4.23,4.32,4.32,0,0,1,.45.36,2.8,2.8,0,0,1,.41.46,2.58,2.58,0,0,1,.3.55,1.66,1.66,0,0,1,.12.62,1.81,1.81,0,0,1-.22.83,2.79,2.79,0,0,1-.75.86l0.14,0.09,0.27,0.21,0.3,0.24,0.22,0.18a0.36,0.36,0,0,1,.1.27,0.71,0.71,0,0,1-.09.32,1.35,1.35,0,0,1-.23.32,1.43,1.43,0,0,1-.31.25,0.63,0.63,0,0,1-.33.1,0.4,0.4,0,0,1-.27-0.1l-0.25-.24-0.32-.34-0.28-.31-0.12-.14a3.65,3.65,0,0,1-.71.42,5.53,5.53,0,0,1-.83.29,4.18,4.18,0,0,1-1.1.13,5.08,5.08,0,0,1-1.41-.18,3.13,3.13,0,0,1-1-.49,2.06,2.06,0,0,1-.61-0.72,1.93,1.93,0,0,1-.21-0.88,2.4,2.4,0,0,1,.17-0.85,3.55,3.55,0,0,1,.5-0.88,5.17,5.17,0,0,1,.83-0.85A7.1,7.1,0,0,1,786.25,1206.56Zm0.62,4.3a2.45,2.45,0,0,0,.83-0.15,3.86,3.86,0,0,0,.76-0.38c-0.19-.22-0.35-0.43-0.5-0.62s-0.29-.38-0.42-0.58-0.28-.43-0.43-0.68-0.32-.54-0.51-0.9a4.51,4.51,0,0,0-.57.5,3.53,3.53,0,0,0-.42.54,2.52,2.52,0,0,0-.26.55,1.69,1.69,0,0,0-.09.53,1.13,1.13,0,0,0,.1.46,1,1,0,0,0,.29.37,1.49,1.49,0,0,0,.5.25A2.44,2.44,0,0,0,786.87,1210.86Zm1.5-8.12a0.68,0.68,0,0,0-.31.09,1.16,1.16,0,0,0-.32.25,1.38,1.38,0,0,0-.25.37,1.08,1.08,0,0,0-.1.46,2.62,2.62,0,0,0,.06.52q0.06,0.3.14,0.58c0.05,0.19.1,0.34,0.14,0.47a0.7,0.7,0,0,0,.08.19c0.21-.2.41-0.39,0.59-0.57a4.05,4.05,0,0,0,.45-0.54,2.52,2.52,0,0,0,.29-0.54,1.64,1.64,0,0,0,.1-0.57,1,1,0,0,0,0-.29,0.54,0.54,0,0,0-.14-0.22,0.66,0.66,0,0,0-.27-0.14A1.55,1.55,0,0,0,788.37,1202.73Z" transform="translate(-704.55 -1174.93)"/><path class="cls-2" d="M802.51,1210.54a6.26,6.26,0,0,1-1.2,1,8.27,8.27,0,0,1-2.87,1.14,7.7,7.7,0,0,1-1.45.14,5.65,5.65,0,0,1-1.46-.18,3.52,3.52,0,0,1-1.19-.55,2.68,2.68,0,0,1-.81-0.94,2.86,2.86,0,0,1-.3-1.35,3.47,3.47,0,0,1,.24-1.27,3,3,0,0,1,.74-1.08,3.72,3.72,0,0,1,1.29-.76,5.85,5.85,0,0,1,1.88-.32,3.49,3.49,0,0,1-1.26-.21,2.53,2.53,0,0,1-.89-0.56,2.27,2.27,0,0,1-.53-0.82,2.79,2.79,0,0,1-.18-1,2.31,2.31,0,0,1,.17-0.9,2.52,2.52,0,0,1,.47-0.73,3.12,3.12,0,0,1,.71-0.57,4.58,4.58,0,0,1,.88-0.4,6,6,0,0,1,1-.24,6.85,6.85,0,0,1,2.56.08,4.57,4.57,0,0,1,1.31.5,2.87,2.87,0,0,1,.92.84,2,2,0,0,1,.35,1.17,0.8,0.8,0,0,1-.16.46,2,2,0,0,1-.38.41,2.07,2.07,0,0,1-.47.29,1.07,1.07,0,0,1-.41.11c-0.09,0-.14-0.08-0.14-0.24a3,3,0,0,1,.07-0.56,8.2,8.2,0,0,1,.23-0.85,2.18,2.18,0,0,0-.52-0.29,6.18,6.18,0,0,0-.77-0.26,8,8,0,0,0-.92-0.2,6.43,6.43,0,0,0-1-.07,4.32,4.32,0,0,0-.84.08,2.2,2.2,0,0,0-.71.26,1.39,1.39,0,0,0-.49.48,1.37,1.37,0,0,0-.18.73,1.26,1.26,0,0,0,.13.6,1.3,1.3,0,0,0,.34.41,1.87,1.87,0,0,0,.49.28q0.28,0.11.57,0.19l0.58,0.16a4.18,4.18,0,0,1,.53.18,1.41,1.41,0,0,1,.4.25,0.68,0.68,0,0,1,.22.36l0,0.28c0,0.09,0,.19,0,0.27a0.84,0.84,0,0,1-.14.54,0.68,0.68,0,0,1-.54.17l-0.42,0-0.48,0a4,4,0,0,0-1,.13,3,3,0,0,0-.91.4,2.18,2.18,0,0,0-.65.66,1.67,1.67,0,0,0-.25.91,2.09,2.09,0,0,0,.14.82,1.36,1.36,0,0,0,.39.53,1.47,1.47,0,0,0,.58.29,2.83,2.83,0,0,0,.72.09,5.6,5.6,0,0,0,1-.09,8,8,0,0,0,1-.25,8.87,8.87,0,0,0,1-.38,8.46,8.46,0,0,0,.9-0.47,5.14,5.14,0,0,0,.73-0.53,2.51,2.51,0,0,0,.49-0.56Z" transform="translate(-704.55 -1174.93)"/><path class="cls-2" d="M808.71,1210.57a6,6,0,0,1-.4.49,5.09,5.09,0,0,1-.57.54,3.51,3.51,0,0,1-.68.43,1.61,1.61,0,0,1-.72.18,1,1,0,0,1-.72-0.28,2.26,2.26,0,0,1-.5-0.81,3.18,3.18,0,0,1-.39.38,3.35,3.35,0,0,1-.5.34,3.22,3.22,0,0,1-.57.25,1.89,1.89,0,0,1-.59.1,1.53,1.53,0,0,1-.61-0.13,1.57,1.57,0,0,1-.53-0.37,1.79,1.79,0,0,1-.37-0.58,2.05,2.05,0,0,1-.14-0.78,3.9,3.9,0,0,1,.14-1,5.56,5.56,0,0,1,.38-1,5.74,5.74,0,0,1,.58-0.94,4.57,4.57,0,0,1,.72-0.77,3.52,3.52,0,0,1,.83-0.52,2.17,2.17,0,0,1,.89-0.19,0.41,0.41,0,0,1,.24.06,0.58,0.58,0,0,1,.14.13l0.11,0.15a0.29,0.29,0,0,0,.13.11l0.16,0h0.46l0.18,0a0.3,0.3,0,0,1,.15.09,0.42,0.42,0,0,1,.1.18,1.16,1.16,0,0,1,0,.32,4.16,4.16,0,0,1-.07.7c0,0.26-.09.52-0.14,0.79s-0.1.54-.14,0.81a4.75,4.75,0,0,0-.07.76,1.6,1.6,0,0,0,.06.48,0.23,0.23,0,0,0,.24.17,0.68,0.68,0,0,0,.29-0.07,1.72,1.72,0,0,0,.3-0.18,3.21,3.21,0,0,0,.31-0.25l0.29-.29a10.31,10.31,0,0,0,.65-0.8Zm-5.61-.52a2.1,2.1,0,0,0,0,.32,0.92,0.92,0,0,0,.08.28,0.53,0.53,0,0,0,.16.2,0.39,0.39,0,0,0,.25.08,0.59,0.59,0,0,0,.44-0.21,2,2,0,0,0,.34-0.5,4,4,0,0,0,.35-1.14l0.4-1.93a1.11,1.11,0,0,0-.52.13,1.92,1.92,0,0,0-.48.37,3.26,3.26,0,0,0-.42.52,4.1,4.1,0,0,0-.33.62,4,4,0,0,0-.21.65A2.81,2.81,0,0,0,803.11,1210.05Z" transform="translate(-704.55 -1174.93)"/><path class="cls-2" d="M807.94,1210.81q0-.29,0-0.67c0-.26.05-0.53,0.09-0.81s0.08-.57.13-0.87,0.1-.58.16-0.84,0.11-.51.17-0.73a4.79,4.79,0,0,1,.17-0.55,1.28,1.28,0,0,1,.11-0.23,0.45,0.45,0,0,1,.12-0.13,0.4,0.4,0,0,1,.17-0.07l0.25,0,0.27,0a0.21,0.21,0,0,1,.14.08,0.34,0.34,0,0,1,.06.18c0,0.08,0,.19,0,0.32v0.59c0,0.23,0,.46,0,0.68h0.07l0.29-.59a3.79,3.79,0,0,1,.38-0.61,2.23,2.23,0,0,1,.49-0.48,1.08,1.08,0,0,1,.64-0.19,0.69,0.69,0,0,1,.24,0,0.61,0.61,0,0,1,.21.12,0.59,0.59,0,0,1,.14.19,0.62,0.62,0,0,1,.05.26,2,2,0,0,1,0,.31l-0.07.42-0.07.43a2.31,2.31,0,0,0,0,.34,1.41,1.41,0,0,0,0,.39,0.75,0.75,0,0,0,.12.25,0.43,0.43,0,0,0,.17.13,0.5,0.5,0,0,0,.2,0,1.58,1.58,0,0,0,.61-0.13,3.86,3.86,0,0,0,.58-0.29,5.56,5.56,0,0,0,.6-0.43l-0.1,1.54-0.39.25a4.75,4.75,0,0,1-.46.26,3.33,3.33,0,0,1-.51.2,1.82,1.82,0,0,1-.54.08,1.42,1.42,0,0,1-.79-0.2,1.44,1.44,0,0,1-.48-0.53,2.65,2.65,0,0,1-.26-0.73c-0.06-.27-0.1-0.54-0.14-0.82h-0.11l-1.17,3.28a4.3,4.3,0,0,1-.17.42,1.48,1.48,0,0,1-.17.27,0.48,0.48,0,0,1-.18.15,0.53,0.53,0,0,1-.22,0,0.73,0.73,0,0,1-.43-0.12,0.74,0.74,0,0,1-.25-0.31,1.51,1.51,0,0,1-.12-0.44A4.3,4.3,0,0,1,807.94,1210.81Z" transform="translate(-704.55 -1174.93)"/><path class="cls-2" d="M813.61,1210.81q0-.43.05-1c0-.38.08-0.76,0.13-1.15s0.11-.77.18-1.13,0.13-.67.19-0.93a1,1,0,0,1,.28-0.51,0.77,0.77,0,0,1,.56-0.2,0.54,0.54,0,0,1,.49.22,1.06,1.06,0,0,1,.14.58,2.28,2.28,0,0,1,0,.27c0,0.11,0,.23,0,0.37l-0.06.41-0.06.39,0,0.32a1.48,1.48,0,0,0,0,.18h0.13l0.13-.23,0.2-.37,0.24-.44,0.24-.45,0.2-.38,0.14-.24a1.19,1.19,0,0,1,.48-0.49,1.34,1.34,0,0,1,.6-0.13,0.61,0.61,0,0,1,.52.28,1.31,1.31,0,0,1,.19.76,1.63,1.63,0,0,1,0,.24l-0.08.41-0.1.52c0,0.19-.07.38-0.1,0.58s-0.06.39-.08,0.58a5.3,5.3,0,0,0,0,.53,1.89,1.89,0,0,0,.1.67,0.34,0.34,0,0,0,.32.26,0.56,0.56,0,0,0,.23-0.06l0.28-.15,0.3-.22,0.31-.26c0.23-.21.47-0.44,0.73-0.7l0.11,1.47-0.33.25-0.55.41a4.75,4.75,0,0,1-.58.37,3.63,3.63,0,0,1-.63.26,2.3,2.3,0,0,1-.69.1,0.73,0.73,0,0,1-.61-0.52,3.7,3.7,0,0,1-.25-1.53,7.45,7.45,0,0,1,.05-0.85c0-.3.08-0.63,0.13-1h-0.11l-1.72,3.41a0.85,0.85,0,0,1-.29.37,0.73,0.73,0,0,1-1.07-.33,1.51,1.51,0,0,1-.12-0.44A4.3,4.3,0,0,1,813.61,1210.81Z" transform="translate(-704.55 -1174.93)"/><path class="cls-2" d="M721.51,1179.07v16.27a2.29,2.29,0,0,1-3.92,1.54,7.07,7.07,0,0,1-.76-1c-0.34-.53-6.83-10-7.23-10.56v10.05a2.24,2.24,0,0,1-4.48,0v-16.27a2.21,2.21,0,0,1,4-1.26c0.48,0.62,5.21,7.51,7.9,11.43v-10.17a2.22,2.22,0,0,1,2.21-2.21A2.24,2.24,0,0,1,721.51,1179.07Z" transform="translate(-704.55 -1174.93)"/><path class="cls-2" d="M726.09,1197.58a2.22,2.22,0,0,1-2.21-2.21v-16.3a2.21,2.21,0,1,1,4.42,0v16.3A2.22,2.22,0,0,1,726.09,1197.58Z" transform="translate(-704.55 -1174.93)"/><path class="cls-2" d="M747.85,1187.22a10.37,10.37,0,0,1-10.36,10.36h-4.65a2.21,2.21,0,0,1-2.16-2.24V1179.1a2.25,2.25,0,0,1,2.24-2.24h4.56A10.37,10.37,0,0,1,747.85,1187.22Zm-4.51,0a5.87,5.87,0,0,0-5.85-5.88h-2.32v11.76h2.32A5.87,5.87,0,0,0,743.34,1187.22Z" transform="translate(-704.55 -1174.93)"/><path class="cls-2" d="M764.8,1197.38a2.18,2.18,0,0,1-2.94-1.15l-1-2.21h-8.57l-1,2.21a2.22,2.22,0,1,1-4.06-1.79l7.25-16.21a2.3,2.3,0,0,1,1.18-1.18,2.55,2.55,0,0,1,1.82,0,2.3,2.3,0,0,1,1.18,1.18l7.25,16.21A2.27,2.27,0,0,1,764.8,1197.38Zm-5.94-7.81-2.27-5.1-2.27,5.1h4.54Z" transform="translate(-704.55 -1174.93)"/><path class="cls-2" d="M778.32,1197.75a10.53,10.53,0,0,1,0-21.06,10.33,10.33,0,0,1,6.41,2.19,2.23,2.23,0,1,1-2.72,3.53,6.09,6.09,0,1,0,0,9.63,2.26,2.26,0,0,1,3.14.42,2.23,2.23,0,0,1-.42,3.14A10.33,10.33,0,0,1,778.32,1197.75Z" transform="translate(-704.55 -1174.93)"/><path class="cls-2" d="M801.76,1185.68v9.8a2.12,2.12,0,0,1-2.1,2.1,2.25,2.25,0,0,1-1.57-.67,7.39,7.39,0,0,1-3.5.9,7.17,7.17,0,0,1,0-14.34,7.33,7.33,0,0,1,3.44.9,2,2,0,0,1,1.62-.78A2.12,2.12,0,0,1,801.76,1185.68Zm-4.45,5a2.72,2.72,0,1,0-2.72,2.72A2.7,2.7,0,0,0,797.3,1190.63Z" transform="translate(-704.55 -1174.93)"/><path class="cls-2" d="M809.2,1187.27c-0.53-.17-1.32-0.36-1.46.25s0.87,0.84,1.29.92a4.23,4.23,0,0,1,2.24,1.29,4.83,4.83,0,0,1,.84,5.15,5,5,0,0,1-4.34,2.88c-1,.06-3.19-0.23-4.06-1.37a2.12,2.12,0,0,1,1.74-3.42c0.7,0,1.46.56,2,.59a0.71,0.71,0,1,0,.28-1.4,5.6,5.6,0,0,1-3.86-2.86,3.83,3.83,0,0,1,.39-3.89,5.21,5.21,0,0,1,6-1.62c1.12,0.45,2,1.6,1.34,2.83A1.86,1.86,0,0,1,809.2,1187.27Z" transform="translate(-704.55 -1174.93)"/><path class="cls-2" d="M827.15,1189.63v5.71a2.24,2.24,0,0,1-4.48,0v-5.71a1.72,1.72,0,1,0-3.44,0v5.71a2.25,2.25,0,0,1-4.51,0V1181.2a2.25,2.25,0,1,1,4.51,0v2.44a7,7,0,0,1,1.71-.22A6.2,6.2,0,0,1,827.15,1189.63Z" transform="translate(-704.55 -1174.93)"/><path class="cls-3" d="M841.39,1185.56a18,18,0,0,0-.8-5.9c-0.83-3.14.82-4.52,3.12-3.84s2.48-1.3,4.37-.82,1.11,2.31,3.46,2.79,3.15,2.48.94,4.86a18,18,0,0,0-3.5,4.82C847,1193.2,840.47,1191.57,841.39,1185.56Z" transform="translate(-704.55 -1174.93)"/><ellipse class="cls-4" cx="842.27" cy="1197.85" rx="12.7" ry="12.8" transform="translate(-1229.33 547.74) rotate(-75.89)"/><path class="cls-5" d="M845.37,1185.53a12.81,12.81,0,0,1,7.88,5.83,12.57,12.57,0,0,1-.13,5.6c-1.71,6.8-2.53,12.46-15.51,9.2-4.73-1.19-7.48-2.66-9-4.38a26,26,0,0,1,1.22-7.05A12.75,12.75,0,0,1,845.37,1185.53Z" transform="translate(-704.55 -1174.93)"/><path class="cls-6" d="M840.79,1182.28l10.14,2.55a0.73,0.73,0,0,1,.53.88h0a0.73,0.73,0,0,1-.88.53l-10.14-2.55a0.73,0.73,0,0,1-.53-0.88h0A0.73,0.73,0,0,1,840.79,1182.28Z" transform="translate(-704.55 -1174.93)"/><path class="cls-6" d="M840.44,1183.68l10.14,2.55a0.73,0.73,0,0,1,.53.88h0a0.73,0.73,0,0,1-.88.53l-10.14-2.55a0.73,0.73,0,0,1-.53-0.88h0A0.73,0.73,0,0,1,840.44,1183.68Z" transform="translate(-704.55 -1174.93)"/><path class="cls-7" d="M845.25,1191.65a3.38,3.38,0,0,1,1.22,1.13,3.64,3.64,0,0,1,.5,2.26l-2.19-.26a2.13,2.13,0,0,0-.11-0.84l0.58-2.3h0Zm-1.31,5.21a4.66,4.66,0,0,1,1.73,1.71,3.44,3.44,0,0,1,.17,2.41,3.78,3.78,0,0,1-3.69,3l0.5-2a1.77,1.77,0,0,0,.39-0.21,1.7,1.7,0,0,0,.67-1,1.5,1.5,0,0,0-.39-1.47Zm-3.25,4.8,0.88-3.51-0.5-.31,0.64-2.54a2.29,2.29,0,0,0,.46.46l0.73-2.9a1.67,1.67,0,0,0-.62.17l0.51-2a4.77,4.77,0,0,1,.56,0l0.21-.83,1.21,0.31-0.21.83a5.05,5.05,0,0,1,.68.32l-0.58,2.3a1.64,1.64,0,0,0-.56-0.76l-0.82,3.28,0.66,0.39-0.61,2.43a2.87,2.87,0,0,0-.63-0.48l-0.82,3.27a1.81,1.81,0,0,0,.78-0.11l-0.5,2a5.57,5.57,0,0,1-.75,0l-0.39,1.57-1.21-.31,0.38-1.53a5.15,5.15,0,0,1-.52-0.23l0.58-2.3A2.13,2.13,0,0,0,840.69,1201.66Zm0.39-3.83a4.35,4.35,0,0,1-1.56-1.72,3.69,3.69,0,0,1-.19-2.5,3.37,3.37,0,0,1,1.45-2.09,3.47,3.47,0,0,1,2-.55l-0.51,2a1.67,1.67,0,0,0-.32.2,1.53,1.53,0,0,0-.52.82,1.45,1.45,0,0,0,.06.89,1.6,1.6,0,0,0,.2.36l-0.64,2.54h0Zm-1.41,5.61a3.83,3.83,0,0,1-1.57-1.44,4.58,4.58,0,0,1-.51-2.85l2.25,0.32a2.84,2.84,0,0,0,.41,1.67Z" transform="translate(-704.55 -1174.93)"/><path class="cls-8" d="M849.21,1186.8c1.33,2.71,1.57,5.67-.31,9.74" transform="translate(-704.55 -1174.93)"/><path class="cls-8" d="M849.21,1186.8c2.28,2,3.66,4.61,3.51,9.09" transform="translate(-704.55 -1174.93)"/><path class="cls-5" d="M840.85,1180.73q-0.12-.51-0.26-1.06c-0.83-3.14.82-4.52,3.12-3.84s2.48-1.3,4.37-.82,1.11,2.31,3.46,2.79a3.73,3.73,0,0,1,1.18.44c-0.51.79-.82,1.38-1.09,1.75C849.31,1183.19,844.11,1182.9,840.85,1180.73Z" transform="translate(-704.55 -1174.93)"/><path class="cls-7" d="M749,1203a1.28,1.28,0,0,0,.25.78,2.91,2.91,0,0,0,.67.63,7.29,7.29,0,0,0,.95.55l1.08,0.54q0.55,0.28,1.08.6a5.33,5.33,0,0,1,.95.72,3.28,3.28,0,0,1,.67.91,2.53,2.53,0,0,1,.25,1.15,3,3,0,0,1-.19,1.09,3.1,3.1,0,0,1-.52.89,3.71,3.71,0,0,1-.78.7,4.78,4.78,0,0,1-1,.5,6,6,0,0,1-1.1.3,6.63,6.63,0,0,1-1.16.1,6.38,6.38,0,0,1-1.59-.2,4.45,4.45,0,0,1-1.38-.6,3.18,3.18,0,0,1-1-1,2.7,2.7,0,0,1-.36-1.42,1.87,1.87,0,0,1,.13-0.74,1.78,1.78,0,0,1,.33-0.53,1.41,1.41,0,0,1,.44-0.32,1.06,1.06,0,0,1,.44-0.11,0.54,0.54,0,0,1,.35.12,0.43,0.43,0,0,1,.14.36,1.14,1.14,0,0,1,0,.24l-0.06.27c0,0.1,0,.21-0.06.32a2.64,2.64,0,0,0,0,.39,1.47,1.47,0,0,0,.21.79,1.73,1.73,0,0,0,.56.55,2.64,2.64,0,0,0,.8.32,4.14,4.14,0,0,0,.94.11,4.86,4.86,0,0,0,1.14-.14,3.68,3.68,0,0,0,1-.41,2.42,2.42,0,0,0,.73-0.66,1.49,1.49,0,0,0,.28-0.9A1.44,1.44,0,0,0,753,1208a2.93,2.93,0,0,0-.67-0.68,6.73,6.73,0,0,0-.95-0.59l-1.08-.56c-0.37-.19-0.73-0.39-1.08-0.59a5.83,5.83,0,0,1-.95-0.69,3.15,3.15,0,0,1-.67-0.84,2.15,2.15,0,0,1-.25-1.05,2.42,2.42,0,0,1,.27-1.09,2.85,2.85,0,0,1,.8-1,4.24,4.24,0,0,1,1.34-.69,6,6,0,0,1,1.88-.26,4.43,4.43,0,0,1,1.33.21,4,4,0,0,1,1.17.58,3,3,0,0,1,.82.89,2.18,2.18,0,0,1,.31,1.15,2.47,2.47,0,0,1-.13.77,3.42,3.42,0,0,1-.41.82,2,2,0,0,1-.6.61,1.16,1.16,0,0,1-.59.2,0.46,0.46,0,0,1-.32-0.12,0.45,0.45,0,0,1-.12-0.35,1.28,1.28,0,0,1,.08-0.4,2.58,2.58,0,0,1,.27-0.54,2.74,2.74,0,0,0,.26-0.54,1.47,1.47,0,0,0,.08-0.47,1,1,0,0,0-.18-0.59,1.42,1.42,0,0,0-.5-0.42,2.62,2.62,0,0,0-.76-0.26,5.07,5.07,0,0,0-1-.09,3.49,3.49,0,0,0-1,.13,2.44,2.44,0,0,0-.73.35,1.45,1.45,0,0,0-.43.47A1.1,1.1,0,0,0,749,1203Z" transform="translate(-704.55 -1174.93)"/><path class="cls-7" d="M758.45,1207.52l0.6-.76a9.28,9.28,0,0,1,.7-0.76,4.7,4.7,0,0,1,.72-0.58,1.24,1.24,0,0,1,.67-0.23l0.18,0a0.5,0.5,0,0,1,.19.11,0.59,0.59,0,0,1,.15.22,1,1,0,0,1,.06.36,3.05,3.05,0,0,1-.12.87c-0.08.28-.17,0.56-0.27,0.85s-0.19.57-.27,0.86a3.43,3.43,0,0,0-.12.92,0.94,0.94,0,0,0,.08.42,0.23,0.23,0,0,0,.2.16,1,1,0,0,0,.33-0.06,2.27,2.27,0,0,0,.35-0.17,3.26,3.26,0,0,0,.35-0.24l0.32-.28a7.67,7.67,0,0,0,.71-0.76l0.11,1.75-0.3.23-0.4.29-0.48.31a5.18,5.18,0,0,1-.51.28,3.78,3.78,0,0,1-.52.2,1.7,1.7,0,0,1-.5.08,1,1,0,0,1-.63-0.19,1.56,1.56,0,0,1-.44-0.49,2.48,2.48,0,0,1-.26-0.65,2.89,2.89,0,0,1-.08-0.67,2.24,2.24,0,0,1,.06-0.47c0-.17.08-0.35,0.14-0.52s0.12-.35.18-0.51l0.19-.45,0.15-.32,0.09-.14-0.14,0a2.49,2.49,0,0,0-.38.37q-0.27.3-.6,0.75c-0.22.3-.45,0.64-0.69,1a11.61,11.61,0,0,0-.65,1.16c-0.1.2-.17,0.37-0.24,0.52a2.58,2.58,0,0,1-.18.36,0.7,0.7,0,0,1-.19.21,0.46,0.46,0,0,1-.27.07,0.46,0.46,0,0,1-.34-0.12,0.78,0.78,0,0,1-.19-0.33,2.1,2.1,0,0,1-.09-0.47c0-.17,0-0.35,0-0.54s0-.68,0-1.15,0-1,.06-1.58,0.08-1.19.15-1.83,0.16-1.27.28-1.89a15.58,15.58,0,0,1,.45-1.79,7,7,0,0,1,.66-1.5,3.44,3.44,0,0,1,.92-1,2,2,0,0,1,1.21-.38,1.41,1.41,0,0,1,.58.1,0.9,0.9,0,0,1,.36.3,1.15,1.15,0,0,1,.19.46,3.07,3.07,0,0,1,.05.59,4.79,4.79,0,0,1-.14,1.08,11.32,11.32,0,0,1-.36,1.23q-0.23.64-.52,1.29c-0.19.44-.39,0.86-0.59,1.27s-0.4.79-.59,1.16l-0.51,1Zm0.58-4.06a15.24,15.24,0,0,0,.56-1.69,4.64,4.64,0,0,0,.17-1q0-.5-0.13-0.5a1,1,0,0,0-.51.56,14,14,0,0,0-.79,1.62c-0.07.24-.14,0.49-0.21,0.75s-0.12.52-.17,0.77-0.1.51-.14,0.76-0.08.48-.11,0.71q-0.11.78-.17,1.53l0.39-.9,0.41-1,0.38-.9Z" transform="translate(-704.55 -1174.93)"/><path class="cls-7" d="M769.78,1210a6,6,0,0,1-.4.49,5.09,5.09,0,0,1-.57.54,3.51,3.51,0,0,1-.68.43,1.61,1.61,0,0,1-.72.18,1,1,0,0,1-.72-0.28,2.26,2.26,0,0,1-.5-0.81,3.18,3.18,0,0,1-.39.38,3.35,3.35,0,0,1-.5.34,3.22,3.22,0,0,1-.57.25,1.89,1.89,0,0,1-.59.1,1.53,1.53,0,0,1-.61-0.13,1.57,1.57,0,0,1-.53-0.37,1.79,1.79,0,0,1-.37-0.58,2.05,2.05,0,0,1-.14-0.78,3.9,3.9,0,0,1,.14-1,5.56,5.56,0,0,1,.38-1,5.74,5.74,0,0,1,.58-0.94,4.57,4.57,0,0,1,.72-0.77,3.52,3.52,0,0,1,.83-0.52,2.17,2.17,0,0,1,.89-0.19,0.41,0.41,0,0,1,.24.06,0.58,0.58,0,0,1,.14.13l0.11,0.15a0.29,0.29,0,0,0,.13.11l0.16,0h0.46l0.18,0a0.3,0.3,0,0,1,.15.09,0.42,0.42,0,0,1,.1.18,1.16,1.16,0,0,1,0,.32,4.16,4.16,0,0,1-.07.7c0,0.26-.09.52-0.14,0.79s-0.1.54-.14,0.81a4.75,4.75,0,0,0-.07.76,1.6,1.6,0,0,0,.06.48,0.23,0.23,0,0,0,.24.17,0.68,0.68,0,0,0,.29-0.07,1.72,1.72,0,0,0,.3-0.18,3.21,3.21,0,0,0,.31-0.25l0.29-.29a10.31,10.31,0,0,0,.65-0.8Zm-5.61-.52a2.1,2.1,0,0,0,0,.32,0.92,0.92,0,0,0,.08.28,0.53,0.53,0,0,0,.16.2,0.39,0.39,0,0,0,.25.08,0.59,0.59,0,0,0,.44-0.21,2,2,0,0,0,.34-0.5,4,4,0,0,0,.35-1.14l0.4-1.93a1.11,1.11,0,0,0-.52.13,1.92,1.92,0,0,0-.48.37,3.26,3.26,0,0,0-.42.52,4.1,4.1,0,0,0-.33.62,4,4,0,0,0-.21.65A2.81,2.81,0,0,0,764.17,1209.48Z" transform="translate(-704.55 -1174.93)"/><path class="cls-7" d="M769,1210.23q0-.29,0-0.67c0-.26.05-0.53,0.09-0.81s0.08-.57.13-0.87,0.1-.58.16-0.84,0.11-.51.17-0.73a4.79,4.79,0,0,1,.17-0.55,1.28,1.28,0,0,1,.11-0.23,0.45,0.45,0,0,1,.12-0.13,0.4,0.4,0,0,1,.17-0.07l0.25,0,0.27,0a0.21,0.21,0,0,1,.14.08,0.34,0.34,0,0,1,.06.18c0,0.08,0,.19,0,0.32v0.59c0,0.23,0,.46,0,0.68H771l0.29-.59a3.79,3.79,0,0,1,.38-0.61,2.23,2.23,0,0,1,.49-0.48,1.08,1.08,0,0,1,.64-0.19,0.69,0.69,0,0,1,.24,0,0.61,0.61,0,0,1,.21.12,0.59,0.59,0,0,1,.14.19,0.62,0.62,0,0,1,.05.26,2,2,0,0,1,0,.31l-0.07.42-0.07.43a2.31,2.31,0,0,0,0,.34,1.41,1.41,0,0,0,0,.39,0.75,0.75,0,0,0,.12.25,0.43,0.43,0,0,0,.17.13,0.5,0.5,0,0,0,.2,0,1.58,1.58,0,0,0,.61-0.13,3.86,3.86,0,0,0,.58-0.29,5.56,5.56,0,0,0,.6-0.43l-0.1,1.54-0.39.25a4.75,4.75,0,0,1-.46.26,3.33,3.33,0,0,1-.51.2,1.82,1.82,0,0,1-.54.08,1.42,1.42,0,0,1-.79-0.2,1.44,1.44,0,0,1-.48-0.53,2.65,2.65,0,0,1-.26-0.73c-0.06-.27-0.1-0.54-0.14-0.82h-0.11l-1.17,3.28a4.3,4.3,0,0,1-.17.42,1.48,1.48,0,0,1-.17.27,0.48,0.48,0,0,1-.18.15,0.53,0.53,0,0,1-.22,0,0.73,0.73,0,0,1-.43-0.12,0.74,0.74,0,0,1-.25-0.31,1.51,1.51,0,0,1-.12-0.44A4.3,4.3,0,0,1,769,1210.23Z" transform="translate(-704.55 -1174.93)"/><path class="cls-7" d="M776.89,1211.6a2.47,2.47,0,0,1-1.08-.22,2.23,2.23,0,0,1-.77-0.6,2.55,2.55,0,0,1-.46-0.87,3.47,3.47,0,0,1-.15-1,4.41,4.41,0,0,1,.07-0.78,4.46,4.46,0,0,1,.22-0.8,4.14,4.14,0,0,1,.37-0.75,3,3,0,0,1,.52-0.63,2.45,2.45,0,0,1,.67-0.43,2.05,2.05,0,0,1,.82-0.16,1.9,1.9,0,0,1,.68.12,1.65,1.65,0,0,1,.55.33,1.47,1.47,0,0,1,.36.51,1.68,1.68,0,0,1,.13.68,1.84,1.84,0,0,1-.2.81,3,3,0,0,1-.55.77,3.91,3.91,0,0,1-.84.64,4.57,4.57,0,0,1-1.06.44,2.09,2.09,0,0,0,.19.29,0.84,0.84,0,0,0,.19.18,0.62,0.62,0,0,0,.21.09l0.23,0a2.44,2.44,0,0,0,.83-0.16,5.39,5.39,0,0,0,.85-0.39,7.2,7.2,0,0,0,1.41-1l0.85,0.88a8.76,8.76,0,0,1-1.23,1.06q-0.28.2-.61,0.39a5.69,5.69,0,0,1-.68.34,4.73,4.73,0,0,1-.74.24A3.47,3.47,0,0,1,776.89,1211.6Zm-0.87-3.08a1.32,1.32,0,0,0,.52-0.12,2.38,2.38,0,0,0,.52-0.31,2.21,2.21,0,0,0,.4-0.41,0.73,0.73,0,0,0,.16-0.43,1,1,0,0,0-.11-0.48,0.31,0.31,0,0,0-.27-0.19,1,1,0,0,0-.48.11,1.05,1.05,0,0,0-.33.27,1.46,1.46,0,0,0-.22.38,2.6,2.6,0,0,0-.12.43,3.07,3.07,0,0,0-.06.42C776,1208.31,776,1208.42,776,1208.52Z" transform="translate(-704.55 -1174.93)"/><path class="cls-7" d="M785.67,1206c-0.08-.15-0.17-0.33-0.26-0.54s-0.17-.42-0.25-0.65a6.41,6.41,0,0,1-.19-0.69,3,3,0,0,1-.08-0.65,2.36,2.36,0,0,1,.23-1,2.94,2.94,0,0,1,.62-0.86,3,3,0,0,1,.9-0.59,2.68,2.68,0,0,1,1.07-.22,2.57,2.57,0,0,1,.88.15,2,2,0,0,1,.69.41,1.87,1.87,0,0,1,.45.62,1.85,1.85,0,0,1,.16.77,2.57,2.57,0,0,1-.12.77,3.11,3.11,0,0,1-.41.82,4.93,4.93,0,0,1-.73.83,6.91,6.91,0,0,1-1.08.8c0.05,0.1.14,0.26,0.27,0.46l0.42,0.67,0.49,0.77q0.25,0.4.47,0.78a1,1,0,0,0,.22-0.2,0.77,0.77,0,0,0,.12-0.21,0.84,0.84,0,0,0,0-.21c0-.07,0-0.14,0-0.22a1.35,1.35,0,0,0-.06-0.43,1.62,1.62,0,0,0-.17-0.35q-0.11-.17-0.26-0.36a5.68,5.68,0,0,1-.33-0.48l0,0,0.08-.07L789,1206l0.05,0a0.77,0.77,0,0,1,.28.08,2.65,2.65,0,0,1,.4.23,4.32,4.32,0,0,1,.45.36,2.8,2.8,0,0,1,.41.46,2.58,2.58,0,0,1,.3.55,1.66,1.66,0,0,1,.12.62,1.81,1.81,0,0,1-.22.83,2.79,2.79,0,0,1-.75.86l0.14,0.09,0.27,0.21,0.3,0.24,0.22,0.18a0.36,0.36,0,0,1,.1.27,0.71,0.71,0,0,1-.09.32,1.35,1.35,0,0,1-.23.32,1.43,1.43,0,0,1-.31.25,0.63,0.63,0,0,1-.33.1,0.4,0.4,0,0,1-.27-0.1l-0.25-.24-0.32-.34-0.28-.31-0.12-.14a3.65,3.65,0,0,1-.71.42,5.53,5.53,0,0,1-.83.29,4.18,4.18,0,0,1-1.1.13,5.08,5.08,0,0,1-1.41-.18,3.13,3.13,0,0,1-1-.49,2.06,2.06,0,0,1-.61-0.72,1.93,1.93,0,0,1-.21-0.88,2.4,2.4,0,0,1,.17-0.85,3.55,3.55,0,0,1,.5-0.88,5.17,5.17,0,0,1,.83-0.85A7.1,7.1,0,0,1,785.67,1206Zm0.62,4.3a2.45,2.45,0,0,0,.83-0.15,3.86,3.86,0,0,0,.76-0.38c-0.19-.22-0.35-0.43-0.5-0.62s-0.29-.38-0.42-0.58-0.28-.43-0.43-0.68-0.32-.54-0.51-0.9a4.51,4.51,0,0,0-.57.5,3.53,3.53,0,0,0-.42.54,2.52,2.52,0,0,0-.26.55,1.69,1.69,0,0,0-.09.53,1.13,1.13,0,0,0,.1.46,1,1,0,0,0,.29.37,1.49,1.49,0,0,0,.5.25A2.44,2.44,0,0,0,786.29,1210.28Zm1.5-8.12a0.68,0.68,0,0,0-.31.09,1.16,1.16,0,0,0-.32.25,1.38,1.38,0,0,0-.25.37,1.08,1.08,0,0,0-.1.46,2.62,2.62,0,0,0,.06.52q0.06,0.3.14,0.58c0.05,0.19.1,0.34,0.14,0.47a0.7,0.7,0,0,0,.08.19c0.21-.2.41-0.39,0.59-0.57a4,4,0,0,0,.45-0.54,2.52,2.52,0,0,0,.29-0.54,1.64,1.64,0,0,0,.1-0.57,1,1,0,0,0,0-.29,0.54,0.54,0,0,0-.14-0.22,0.66,0.66,0,0,0-.27-0.14A1.55,1.55,0,0,0,787.79,1202.15Z" transform="translate(-704.55 -1174.93)"/><path class="cls-7" d="M801.93,1210a6.26,6.26,0,0,1-1.2,1,8.27,8.27,0,0,1-2.87,1.14,7.7,7.7,0,0,1-1.45.14,5.65,5.65,0,0,1-1.46-.18,3.52,3.52,0,0,1-1.19-.55,2.68,2.68,0,0,1-.81-0.94,2.86,2.86,0,0,1-.3-1.35,3.47,3.47,0,0,1,.24-1.27,3,3,0,0,1,.74-1.08,3.72,3.72,0,0,1,1.29-.76,5.85,5.85,0,0,1,1.88-.32,3.49,3.49,0,0,1-1.26-.21,2.53,2.53,0,0,1-.89-0.56,2.27,2.27,0,0,1-.53-0.82,2.79,2.79,0,0,1-.18-1,2.31,2.31,0,0,1,.17-0.9,2.52,2.52,0,0,1,.47-0.73,3.12,3.12,0,0,1,.71-0.57,4.58,4.58,0,0,1,.88-0.4,6,6,0,0,1,1-.24,6.85,6.85,0,0,1,2.56.08,4.57,4.57,0,0,1,1.31.5,2.87,2.87,0,0,1,.92.84,2,2,0,0,1,.35,1.17,0.8,0.8,0,0,1-.16.46,2,2,0,0,1-.38.41,2.07,2.07,0,0,1-.47.29,1.07,1.07,0,0,1-.41.11c-0.09,0-.14-0.08-0.14-0.24a3,3,0,0,1,.07-0.56,8.2,8.2,0,0,1,.23-0.85,2.18,2.18,0,0,0-.52-0.29,6.18,6.18,0,0,0-.77-0.26,8,8,0,0,0-.92-0.2,6.43,6.43,0,0,0-1-.07,4.32,4.32,0,0,0-.84.08,2.2,2.2,0,0,0-.71.26,1.39,1.39,0,0,0-.49.48,1.37,1.37,0,0,0-.18.73,1.26,1.26,0,0,0,.13.6,1.3,1.3,0,0,0,.34.41,1.87,1.87,0,0,0,.49.28q0.28,0.11.57,0.19l0.58,0.16a4.18,4.18,0,0,1,.53.18,1.41,1.41,0,0,1,.4.25,0.68,0.68,0,0,1,.22.36l0,0.28c0,0.09,0,.19,0,0.27a0.84,0.84,0,0,1-.14.54,0.68,0.68,0,0,1-.54.17l-0.42,0-0.48,0a4,4,0,0,0-1,.13,3,3,0,0,0-.91.4,2.18,2.18,0,0,0-.65.66,1.67,1.67,0,0,0-.25.91,2.09,2.09,0,0,0,.14.82,1.36,1.36,0,0,0,.39.53,1.47,1.47,0,0,0,.58.29,2.83,2.83,0,0,0,.72.09,5.6,5.6,0,0,0,1-.09,8,8,0,0,0,1-.25,8.87,8.87,0,0,0,1-.38,8.46,8.46,0,0,0,.9-0.47A5.14,5.14,0,0,0,801,1209a2.51,2.51,0,0,0,.49-0.56Z" transform="translate(-704.55 -1174.93)"/><path class="cls-7" d="M808.14,1210a6,6,0,0,1-.4.49,5.09,5.09,0,0,1-.57.54,3.51,3.51,0,0,1-.68.43,1.61,1.61,0,0,1-.72.18,1,1,0,0,1-.72-0.28,2.26,2.26,0,0,1-.5-0.81,3.18,3.18,0,0,1-.39.38,3.35,3.35,0,0,1-.5.34,3.22,3.22,0,0,1-.57.25,1.89,1.89,0,0,1-.59.1,1.53,1.53,0,0,1-.61-0.13,1.57,1.57,0,0,1-.53-0.37,1.79,1.79,0,0,1-.37-0.58,2.05,2.05,0,0,1-.14-0.78,3.9,3.9,0,0,1,.14-1,5.56,5.56,0,0,1,.38-1,5.74,5.74,0,0,1,.58-0.94,4.57,4.57,0,0,1,.72-0.77,3.52,3.52,0,0,1,.83-0.52,2.17,2.17,0,0,1,.89-0.19,0.41,0.41,0,0,1,.24.06,0.58,0.58,0,0,1,.14.13l0.11,0.15a0.29,0.29,0,0,0,.13.11l0.16,0h0.46l0.18,0a0.3,0.3,0,0,1,.15.09,0.42,0.42,0,0,1,.1.18,1.16,1.16,0,0,1,0,.32,4.16,4.16,0,0,1-.07.7c0,0.26-.09.52-0.14,0.79s-0.1.54-.14,0.81a4.75,4.75,0,0,0-.07.76,1.6,1.6,0,0,0,.06.48,0.23,0.23,0,0,0,.24.17,0.68,0.68,0,0,0,.29-0.07,1.72,1.72,0,0,0,.3-0.18,3.21,3.21,0,0,0,.31-0.25l0.29-.29a10.31,10.31,0,0,0,.65-0.8Zm-5.61-.52a2.1,2.1,0,0,0,0,.32,0.92,0.92,0,0,0,.08.28,0.53,0.53,0,0,0,.16.2,0.39,0.39,0,0,0,.25.08,0.59,0.59,0,0,0,.44-0.21,2,2,0,0,0,.34-0.5,4,4,0,0,0,.35-1.14l0.4-1.93a1.11,1.11,0,0,0-.52.13,1.92,1.92,0,0,0-.48.37,3.26,3.26,0,0,0-.42.52,4.1,4.1,0,0,0-.33.62,4,4,0,0,0-.21.65A2.81,2.81,0,0,0,802.53,1209.48Z" transform="translate(-704.55 -1174.93)"/><path class="cls-7" d="M807.36,1210.23q0-.29,0-0.67c0-.26.05-0.53,0.09-0.81s0.08-.57.13-0.87,0.1-.58.16-0.84,0.11-.51.17-0.73a4.79,4.79,0,0,1,.17-0.55,1.28,1.28,0,0,1,.11-0.23,0.45,0.45,0,0,1,.12-0.13,0.4,0.4,0,0,1,.17-0.07l0.25,0,0.27,0a0.21,0.21,0,0,1,.14.08,0.34,0.34,0,0,1,.06.18c0,0.08,0,.19,0,0.32v0.59c0,0.23,0,.46,0,0.68h0.07l0.29-.59A3.79,3.79,0,0,1,810,1206a2.23,2.23,0,0,1,.49-0.48,1.08,1.08,0,0,1,.64-0.19,0.69,0.69,0,0,1,.24,0,0.61,0.61,0,0,1,.21.12,0.59,0.59,0,0,1,.14.19,0.62,0.62,0,0,1,.05.26,2,2,0,0,1,0,.31l-0.07.42-0.07.43a2.31,2.31,0,0,0,0,.34,1.41,1.41,0,0,0,0,.39,0.75,0.75,0,0,0,.12.25,0.43,0.43,0,0,0,.17.13,0.5,0.5,0,0,0,.2,0,1.58,1.58,0,0,0,.61-0.13,3.86,3.86,0,0,0,.58-0.29,5.56,5.56,0,0,0,.6-0.43l-0.1,1.54-0.39.25a4.75,4.75,0,0,1-.46.26,3.33,3.33,0,0,1-.51.2,1.82,1.82,0,0,1-.54.08,1.42,1.42,0,0,1-.79-0.2,1.44,1.44,0,0,1-.48-0.53,2.65,2.65,0,0,1-.26-0.73c-0.06-.27-0.1-0.54-0.14-0.82h-0.11l-1.17,3.28a4.3,4.3,0,0,1-.17.42,1.48,1.48,0,0,1-.17.27,0.48,0.48,0,0,1-.18.15,0.53,0.53,0,0,1-.22,0,0.73,0.73,0,0,1-.43-0.12,0.74,0.74,0,0,1-.25-0.31,1.51,1.51,0,0,1-.12-0.44A4.3,4.3,0,0,1,807.36,1210.23Z" transform="translate(-704.55 -1174.93)"/><path class="cls-7" d="M813,1210.23q0-.43.05-1c0-.38.08-0.76,0.13-1.15s0.11-.77.18-1.13,0.13-.67.19-0.93a1,1,0,0,1,.28-0.51,0.77,0.77,0,0,1,.56-0.2,0.54,0.54,0,0,1,.49.22,1.06,1.06,0,0,1,.14.58,2.28,2.28,0,0,1,0,.27c0,0.11,0,.23,0,0.37l-0.06.41-0.06.39,0,0.32a1.48,1.48,0,0,0,0,.18h0.13l0.13-.23,0.2-.37,0.24-.44,0.24-.45,0.2-.38,0.14-.24a1.19,1.19,0,0,1,.48-0.49,1.34,1.34,0,0,1,.6-0.13,0.61,0.61,0,0,1,.52.28,1.31,1.31,0,0,1,.19.76,1.63,1.63,0,0,1,0,.24l-0.08.41-0.1.52c0,0.19-.07.38-0.1,0.58s-0.06.39-.08,0.58a5.3,5.3,0,0,0,0,.53,1.89,1.89,0,0,0,.1.67,0.34,0.34,0,0,0,.32.26,0.56,0.56,0,0,0,.23-0.06l0.28-.15,0.3-.22,0.31-.26c0.23-.21.47-0.44,0.73-0.7l0.11,1.47-0.33.25-0.55.41a4.75,4.75,0,0,1-.58.37,3.63,3.63,0,0,1-.63.26,2.3,2.3,0,0,1-.69.1,0.73,0.73,0,0,1-.61-0.52,3.7,3.7,0,0,1-.25-1.53,7.45,7.45,0,0,1,.05-0.85c0-.3.08-0.63,0.13-1h-0.11l-1.72,3.41a0.85,0.85,0,0,1-.29.37,0.73,0.73,0,0,1-1.07-.33,1.51,1.51,0,0,1-.12-0.44A4.3,4.3,0,0,1,813,1210.23Z" transform="translate(-704.55 -1174.93)"/><path class="cls-7" d="M720.93,1178.49v16.27a2.29,2.29,0,0,1-3.92,1.54,7.07,7.07,0,0,1-.76-1c-0.34-.53-6.83-10-7.23-10.56v10.05a2.24,2.24,0,0,1-4.48,0v-16.27a2.21,2.21,0,0,1,4-1.26c0.48,0.62,5.21,7.51,7.9,11.43v-10.17a2.22,2.22,0,0,1,2.21-2.21A2.24,2.24,0,0,1,720.93,1178.49Z" transform="translate(-704.55 -1174.93)"/><path class="cls-7" d="M725.52,1197a2.22,2.22,0,0,1-2.21-2.21v-16.3a2.21,2.21,0,1,1,4.42,0v16.3A2.22,2.22,0,0,1,725.52,1197Z" transform="translate(-704.55 -1174.93)"/><path class="cls-7" d="M747.27,1186.64A10.37,10.37,0,0,1,736.91,1197h-4.65a2.21,2.21,0,0,1-2.16-2.24v-16.24a2.25,2.25,0,0,1,2.24-2.24h4.56A10.37,10.37,0,0,1,747.27,1186.64Zm-4.51,0a5.87,5.87,0,0,0-5.85-5.88h-2.32v11.76h2.32A5.87,5.87,0,0,0,742.77,1186.64Z" transform="translate(-704.55 -1174.93)"/><path class="cls-7" d="M764.22,1196.8a2.18,2.18,0,0,1-2.94-1.15l-1-2.21h-8.57l-1,2.21a2.22,2.22,0,1,1-4.06-1.79l7.25-16.21a2.3,2.3,0,0,1,1.18-1.18,2.55,2.55,0,0,1,1.82,0,2.3,2.3,0,0,1,1.18,1.18l7.25,16.21A2.27,2.27,0,0,1,764.22,1196.8Zm-5.94-7.81-2.27-5.1-2.27,5.1h4.54Z" transform="translate(-704.55 -1174.93)"/><path class="cls-7" d="M777.74,1197.17a10.53,10.53,0,1,1,0-21.06,10.33,10.33,0,0,1,6.41,2.19,2.23,2.23,0,1,1-2.72,3.53,6.09,6.09,0,1,0,0,9.63,2.26,2.26,0,0,1,3.14.42,2.23,2.23,0,0,1-.42,3.14A10.33,10.33,0,0,1,777.74,1197.17Z" transform="translate(-704.55 -1174.93)"/><path class="cls-7" d="M801.18,1185.1v9.8a2.12,2.12,0,0,1-2.1,2.1,2.25,2.25,0,0,1-1.57-.67,7.39,7.39,0,0,1-3.5.9,7.17,7.17,0,0,1,0-14.34,7.33,7.33,0,0,1,3.44.9,2,2,0,0,1,1.62-.78A2.12,2.12,0,0,1,801.18,1185.1Zm-4.45,5a2.72,2.72,0,1,0-2.72,2.72A2.7,2.7,0,0,0,796.73,1190.05Z" transform="translate(-704.55 -1174.93)"/><path class="cls-7" d="M808.62,1186.69c-0.53-.17-1.32-0.36-1.46.25s0.87,0.84,1.29.92a4.23,4.23,0,0,1,2.24,1.29,4.83,4.83,0,0,1,.84,5.15,5,5,0,0,1-4.34,2.88c-1,.06-3.19-0.23-4.06-1.37a2.12,2.12,0,0,1,1.74-3.42c0.7,0,1.46.56,2,.59a0.71,0.71,0,1,0,.28-1.4,5.6,5.6,0,0,1-3.86-2.86,3.83,3.83,0,0,1,.39-3.89,5.21,5.21,0,0,1,6-1.62c1.12,0.45,2,1.6,1.34,2.83A1.86,1.86,0,0,1,808.62,1186.69Z" transform="translate(-704.55 -1174.93)"/><path class="cls-7" d="M826.57,1189v5.71a2.24,2.24,0,0,1-4.48,0V1189a1.72,1.72,0,1,0-3.44,0v5.71a2.25,2.25,0,0,1-4.51,0v-14.14a2.25,2.25,0,1,1,4.51,0v2.44a7,7,0,0,1,1.71-.22A6.2,6.2,0,0,1,826.57,1189Z" transform="translate(-704.55 -1174.93)"/></svg>