<svg id="Layer_1" data-name="Layer 1" xmlns="http://www.w3.org/2000/svg" viewBox="0 0 335.79 347.39"><defs><style>.cls-1{fill:#75ad5e;}</style></defs><title>reception-icon</title><circle class="cls-1" cx="75.14" cy="35.71" r="34.32"/><path class="cls-1" d="M164.22,171.23h0c-0.34,0-4.2-.18.2-0.2h0.09C168,171.06,164.71,171.2,164.22,171.23Z" transform="translate(-87.63 -82.64)"/><path class="cls-1" d="M237.7,239.18l-26,.16s-3.84-21.77-6.64-24.08-5.22,24.15-5.22,24.15l-35.92.22v-0.22H128.24s-2.58-26.44-5.37-24.12-6.49,24.12-6.49,24.12h-26c0-20.87,17.62-67.72,51.48-68.18,13.6-.19,19.87-0.22,22.5-0.2-4.4,0-.54.19-0.2,0.2h0v0.19c0.93-.05,2.27-0.15,0-0.17,3,0,9.33,0,21.66.07C219.67,171.58,237.58,218.31,237.7,239.18Z" transform="translate(-87.63 -82.64)"/><path class="cls-1" d="M164.22,171.23h0c-0.34,0-4.2-.18.2-0.2h0.09C168,171.06,164.71,171.2,164.22,171.23Z" transform="translate(-87.63 -82.64)"/><circle class="cls-1" cx="258.8" cy="35.71" r="35.71"/><path class="cls-1" d="M423.41,294c-1.94-37.39-6-66.29-12.17-85.9-5.15-16.44-11.77-26.68-20.23-31.29a21,21,0,0,0-7.29-2.41,12.56,12.56,0,0,0-10.85-5.53H320c-13.45,0-14.38,15.77-14.38,15.77v2.1l-0.1.1-22,24.89-32.9-26.17a10.67,10.67,0,1,0-13.28,16.7l40.81,32.47a10.67,10.67,0,0,0,14.63-1.28l12.88-14.55V430h33.86V312.23l7-1.86,7,1.86V430h33.86V204.86a82.2,82.2,0,0,1,3.63,9.66c5.6,17.9,9.38,45,11.22,80.63a10.67,10.67,0,0,0,10.64,10.11h0.56A10.67,10.67,0,0,0,423.41,294Z" transform="translate(-87.63 -82.64)"/><rect class="cls-1" y="164.65" width="202.22" height="13.91"/></svg>