<?xml version="1.0" encoding="utf-8"?>
<!-- Generator: Adobe Illustrator 21.1.0, SVG Export Plug-In . SVG Version: 6.00 Build 0)  -->
<svg version="1.1" id="Layer_1" xmlns="http://www.w3.org/2000/svg" xmlns:xlink="http://www.w3.org/1999/xlink" x="0px" y="0px"
	 viewBox="0 0 42.9 61.1" style="enable-background:new 0 0 42.9 61.1;" xml:space="preserve">
<style type="text/css">
	.st0{fill-rule:evenodd;clip-rule:evenodd;fill:#76AE5F;}
	.st1{fill-rule:evenodd;clip-rule:evenodd;fill:#91C67B;}
	.st2{fill-rule:evenodd;clip-rule:evenodd;fill:#FFD574;}
	.st3{fill:#FFFFFF;}
	.st4{fill:none;stroke:#FFD574;stroke-width:0.315;stroke-linecap:round;stroke-linejoin:round;stroke-miterlimit:22.9256;}
</style>
<g>
	<path class="st0" d="M20.4,19.4c0.1-0.9,0-3.7-1.1-7.9c-1.1-4.2,1.1-6.1,4.2-5.2c3.1,0.9,3.3-1.7,5.9-1.1C32,5.9,30.9,8.3,34.1,9
		c3.2,0.7,4.2,3.3,1.3,6.5c-3,3.2-4.4,5.6-4.7,6.5C27.9,29.7,19.2,27.5,20.4,19.4z"/>
	<ellipse transform="matrix(0.2438 -0.9698 0.9698 0.2438 -18.5191 48.1741)" class="st0" cx="21.6" cy="36" rx="17.1" ry="17.2"/>
	<path class="st1" d="M25.8,19.4c4.6,1.2,8.3,4.1,10.6,7.8c0.5,2.4,0.5,5-0.2,7.5c-2.3,9.2-3.4,16.8-20.9,12.4
		C9,45.5,5.3,43.6,3.3,41.3c-0.1-2.9,0.8-6,1.6-9.5C7.2,22.6,16.6,17.1,25.8,19.4z"/>
	<path class="st2" d="M19.6,15l13.6,3.4c0.5,0.1,0.8,0.7,0.7,1.2l0,0c-0.1,0.5-0.7,0.8-1.2,0.7l-13.6-3.4c-0.5-0.1-0.8-0.7-0.7-1.2
		l0,0C18.6,15.2,19.1,14.9,19.6,15z"/>
	<path class="st2" d="M19.2,16.9l13.6,3.4c0.5,0.1,0.8,0.7,0.7,1.2l0,0c-0.1,0.5-0.7,0.8-1.2,0.7l-13.6-3.4
		c-0.5-0.1-0.8-0.7-0.7-1.2l0,0C18.1,17.1,18.6,16.8,19.2,16.9z"/>
	<path class="st3" d="M25.6,27.6c0.7,0.4,1.3,0.9,1.6,1.5c0.5,0.9,0.8,1.9,0.7,3L25,31.8c0-0.4,0-0.8-0.1-1.1L25.6,27.6L25.6,27.6z
		 M23.9,34.6c1.2,0.8,2,1.5,2.3,2.3c0.5,0.9,0.5,2,0.2,3.2c-0.3,1.4-1,2.4-2.1,3.1c-0.8,0.6-1.8,0.9-2.9,0.9l0.7-2.7
		c0.2-0.1,0.4-0.2,0.5-0.3c0.5-0.3,0.8-0.8,0.9-1.3c0.1-0.5,0.1-1-0.1-1.4c-0.1-0.2-0.2-0.4-0.4-0.6L23.9,34.6z M19.5,41.1l1.2-4.7
		c-0.2-0.1-0.5-0.3-0.7-0.4l0.9-3.4c0.2,0.2,0.4,0.4,0.6,0.6l1-3.9c-0.3,0-0.6,0.1-0.8,0.2l0.7-2.8c0.2,0,0.5,0,0.8,0.1l0.3-1.1
		l1.6,0.4l-0.3,1.1c0.3,0.1,0.6,0.3,0.9,0.4l-0.8,3.1c-0.1-0.4-0.4-0.7-0.8-1L23,34.1c0.3,0.2,0.6,0.4,0.9,0.5l-0.8,3.3
		c-0.2-0.2-0.5-0.4-0.9-0.6l-1.1,4.4c0.4,0,0.7,0,1.1-0.2l-0.7,2.7c-0.3,0-0.7,0-1,0l-0.5,2.1l-1.6-0.4l0.5-2.1
		c-0.2-0.1-0.5-0.2-0.7-0.3l0.8-3.1C19.1,40.7,19.3,40.9,19.5,41.1z M20,35.9c-1-0.7-1.7-1.5-2.1-2.3c-0.5-1-0.6-2.2-0.3-3.4
		c0.3-1.2,1-2.2,1.9-2.8c0.8-0.5,1.7-0.8,2.7-0.7l-0.7,2.8c-0.2,0.1-0.3,0.2-0.4,0.3c-0.4,0.3-0.6,0.7-0.7,1.1
		c-0.1,0.4-0.1,0.8,0.1,1.2c0.1,0.2,0.2,0.3,0.3,0.5L20,35.9L20,35.9z M18.1,43.5c-0.9-0.5-1.6-1.1-2.1-1.9c-0.6-1-0.8-2.3-0.7-3.8
		l3,0.4c0,0.6,0.1,1.2,0.3,1.7c0.1,0.2,0.2,0.4,0.3,0.5L18.1,43.5z"/>
	<path class="st4" d="M31,21.1c1.8,3.6,2.1,7.6-0.4,13.1"/>
	<path class="st4" d="M31,21.1c3.1,2.7,4.9,6.2,4.7,12.2"/>
	<path class="st1" d="M19.7,12.9c-0.1-0.5-0.2-0.9-0.4-1.4c-1.1-4.2,1.1-6.1,4.2-5.2c3.1,0.9,3.3-1.7,5.9-1.1
		C32,5.9,30.9,8.3,34.1,9c0.6,0.1,1.1,0.3,1.6,0.6c-0.7,1.1-1.1,1.9-1.5,2.3C31.1,16.2,24.1,15.9,19.7,12.9z"/>
</g>
</svg>
