<?xml version="1.0" encoding="utf-8"?>
<!-- Generator: Adobe Illustrator 21.1.0, SVG Export Plug-In . SVG Version: 6.00 Build 0)  -->
<svg version="1.1" id="Layer_1" xmlns="http://www.w3.org/2000/svg" xmlns:xlink="http://www.w3.org/1999/xlink" x="0px" y="0px"
	 viewBox="0 0 800 800" style="enable-background:new 0 0 800 800;" xml:space="preserve">
<style type="text/css">
	.st0{fill:#EC1B23;}
	.st1{fill:#FFFFFF;}
</style>
<path class="st0" d="M756.7,400.9c0,196.6-159.3,355.9-355.9,355.9c-196.6,0-355.9-159.4-355.9-355.9C44.9,204.4,204.3,45,400.8,45
	C597.4,45,756.7,204.4,756.7,400.9z"/>
<g>
	<path class="st1" d="M281.3,338.2v139.3c0,17.5-21.3,24.9-33.6,13.2c-2.4-2.4-4.5-6-6.5-8.9c-2.9-4.6-58.5-85.6-61.9-90.4v86.1
		c0,10.5-8.6,19.2-19.2,19.2c-10.5,0-19.2-8.6-19.2-19.2V338.2c0-10.3,8.6-18.9,19.2-18.9c6.5,0,11.3,3.1,15.4,8.1
		c4.1,5.3,44.6,64.3,67.6,97.8v-87c0-10.3,8.4-18.9,18.9-18.9C272.7,319.2,281.3,327.9,281.3,338.2z"/>
	<path class="st1" d="M330.7,496.6c-10.6,0-18.9-8.6-18.9-18.9V338.2c0-10.3,8.4-18.9,18.9-18.9c10.5,0,18.9,8.6,18.9,18.9v139.5
		C349.7,488,341.3,496.6,330.7,496.6z"/>
	<path class="st1" d="M527.1,407.9c0,48.9-39.8,88.7-88.7,88.7h-39.8c-10.3,0-18.5-8.9-18.5-19.2V338.4c0-10.5,8.6-19.2,19.2-19.2
		h39.1C487.3,319.2,527.1,359,527.1,407.9z M488.5,407.9c0-27.8-22.5-50.3-50.1-50.3h-19.9v100.7h19.9
		C465.9,458.3,488.5,435.7,488.5,407.9z"/>
	<path class="st1" d="M679.6,495c-7.9,4.1-20.1,1.4-25.2-9.8l-8.4-18.9h-73.4l-8.6,18.9c-5,11-16.8,13.4-25.2,9.8
		c-9.6-4.1-13.9-15.6-9.6-25.2L591.3,331c1.9-4.6,5.8-8.1,10.1-10.1c4.8-1.9,10.8-1.9,15.6,0c4.6,1.9,7.9,5.5,10.1,10.1l62.1,138.8
		C693.4,479.4,688.9,490.2,679.6,495z M628.7,428.1l-19.4-43.6l-19.4,43.6H628.7z"/>
</g>
</svg>
