<?xml version="1.0" encoding="utf-8"?>
<!-- Generator: Adobe Illustrator 16.0.0, SVG Export Plug-In . SVG Version: 6.00 Build 0)  -->
<!DOCTYPE svg PUBLIC "-//W3C//DTD SVG 1.1//EN" "http://www.w3.org/Graphics/SVG/1.1/DTD/svg11.dtd">
<svg version="1.1" id="Layer_1" xmlns="http://www.w3.org/2000/svg" xmlns:xlink="http://www.w3.org/1999/xlink" x="0px" y="0px"
	 width="400px" height="117.606px" viewBox="0 0 400 117.606" enable-background="new 0 0 400 117.606" xml:space="preserve">
<path fill="#E6E7E8" d="M389.097,102.875c0,5.57-15.183,10.083-33.907,10.083c-18.728,0-33.907-4.513-33.907-10.083
	c0-5.569,15.18-10.084,33.907-10.084C373.914,92.792,389.097,97.306,389.097,102.875"/>
<path fill-rule="evenodd" clip-rule="evenodd" fill="#76AE5F" d="M358.259,38.458c0.265-1.726,0.063-7.011-2.045-15.011
	c-2.108-8.008,2.086-11.508,7.942-9.768c5.857,1.74,6.311-3.312,11.131-2.098c4.82,1.21,2.831,5.874,8.815,7.112
	c5.984,1.236,8.022,6.305,2.382,12.358c-5.644,6.056-8.321,10.618-8.903,12.264C372.421,57.907,355.907,53.757,358.259,38.458"/>
<path fill-rule="evenodd" clip-rule="evenodd" fill="#76AE5F" d="M368.386,38.367c17.446,4.385,28.067,21.984,23.709,39.307
	c-4.353,17.32-6.446,31.722-39.479,23.419c-33.03-8.303-28.067-21.984-23.713-39.307C333.257,44.464,350.933,33.978,368.386,38.367"
	/>
<path fill-rule="evenodd" clip-rule="evenodd" fill="#91C67B" d="M368.386,38.367c8.746,2.197,15.773,7.714,20.062,14.851
	c0.938,4.58,0.885,9.428-0.328,14.253c-4.354,17.319-6.449,31.724-39.481,23.421c-12.05-3.031-19.038-6.774-22.85-11.153
	c-0.257-5.401,1.471-11.418,3.114-17.954C333.257,44.464,350.933,33.978,368.386,38.367"/>
<path fill-rule="evenodd" clip-rule="evenodd" fill="#FFD574" d="M356.745,30.083l25.813,6.489c0.983,0.246,1.592,1.258,1.343,2.245
	c-0.25,0.988-1.259,1.592-2.245,1.345l-25.812-6.488c-0.988-0.251-1.592-1.26-1.343-2.248
	C354.749,30.438,355.758,29.834,356.745,30.083"/>
<path fill-rule="evenodd" clip-rule="evenodd" fill="#FFD574" d="M355.844,33.672l25.812,6.488c0.986,0.25,1.591,1.258,1.343,2.245
	c-0.249,0.987-1.259,1.591-2.245,1.342l-25.813-6.489c-0.986-0.246-1.591-1.257-1.342-2.245
	C353.847,34.027,354.855,33.424,355.844,33.672"/>
<path fill="#FFFFFF" d="M368.09,53.949c1.34,0.761,2.377,1.712,3.106,2.871c1.013,1.611,1.438,3.531,1.271,5.76l-5.577-0.652
	c0.043-0.792-0.049-1.501-0.272-2.125L368.09,53.949z M364.756,67.214c2.234,1.452,3.706,2.904,4.407,4.354
	c0.868,1.783,1.012,3.826,0.433,6.135c-0.646,2.573-1.972,4.548-3.967,5.923c-1.547,1.063-3.357,1.626-5.423,1.688l1.278-5.084
	c0.346-0.134,0.673-0.312,0.986-0.537c0.87-0.624,1.437-1.467,1.709-2.538c0.24-0.955,0.158-1.84-0.227-2.674
	c-0.17-0.371-0.426-0.726-0.757-1.07L364.756,67.214z M356.476,79.441l2.247-8.943c-0.448-0.26-0.868-0.524-1.264-0.795l1.623-6.464
	c0.301,0.416,0.69,0.806,1.169,1.173l1.859-7.388c-0.574,0.045-1.097,0.186-1.571,0.423l1.308-5.206
	c0.466,0.013,0.944,0.054,1.435,0.124l0.529-2.113l3.091,0.777l-0.53,2.114c0.619,0.239,1.191,0.507,1.719,0.805l-1.472,5.854
	c-0.276-0.77-0.754-1.417-1.435-1.939l-2.099,8.343c0.595,0.339,1.153,0.673,1.671,1.007l-1.56,6.195
	c-0.415-0.428-0.952-0.838-1.615-1.215l-2.091,8.324c0.716,0.046,1.38-0.051,1.994-0.289l-1.278,5.084
	c-0.611,0.02-1.248-0.008-1.904-0.074l-1.004,3.995l-3.09-0.775l0.979-3.895c-0.463-0.179-0.899-0.372-1.317-0.589l1.474-5.857
	C355.666,78.64,356.042,79.083,356.476,79.441 M357.459,69.703c-1.905-1.305-3.228-2.759-3.97-4.371
	c-0.891-1.944-1.052-4.069-0.476-6.372c0.586-2.334,1.815-4.11,3.687-5.328c1.513-0.979,3.228-1.442,5.146-1.392l-1.308,5.206
	c-0.285,0.14-0.552,0.315-0.805,0.52c-0.67,0.562-1.106,1.258-1.312,2.081c-0.19,0.751-0.143,1.514,0.148,2.27
	c0.127,0.321,0.296,0.629,0.512,0.922L357.459,69.703z M353.869,83.975c-1.732-0.899-3.067-2.122-3.995-3.674
	c-1.151-1.916-1.584-4.336-1.309-7.25l5.727,0.804c-0.061,1.193,0.122,2.287,0.541,3.269c0.152,0.357,0.321,0.688,0.51,0.993
	L353.869,83.975z"/>
<path fill="none" stroke="#FFD574" stroke-width="0.234" stroke-linecap="round" stroke-linejoin="round" stroke-miterlimit="22.926" d="
	M378.158,41.593c3.373,6.891,3.995,14.427-0.791,24.799"/>
<path fill="none" stroke="#FFD574" stroke-width="0.234" stroke-linecap="round" stroke-linejoin="round" stroke-miterlimit="22.926" d="
	M378.158,41.593c5.794,5.029,9.305,11.727,8.942,23.143"/>
<path fill-rule="evenodd" clip-rule="evenodd" fill="#91C67B" d="M356.88,26.154c-0.196-0.865-0.417-1.77-0.666-2.707
	c-2.108-8.008,2.086-11.508,7.942-9.768c5.857,1.74,6.311-3.312,11.128-2.098c4.823,1.21,2.834,5.874,8.818,7.112
	c1.161,0.239,2.173,0.624,3.011,1.131c-1.304,2.014-2.102,3.525-2.77,4.448C378.437,32.412,365.176,31.684,356.88,26.154"/>
<path fill="#ED1C24" d="M125.681,82.818c0,0.734,0.214,1.394,0.642,1.973c0.431,0.58,1,1.117,1.707,1.612
	c0.706,0.499,1.511,0.966,2.406,1.411c0.896,0.445,1.815,0.905,2.757,1.381c0.942,0.472,1.862,0.979,2.758,1.521
	c0.897,0.54,1.7,1.149,2.406,1.827c0.706,0.681,1.273,1.449,1.706,2.311c0.428,0.854,0.641,1.834,0.641,2.938
	c0,1.002-0.159,1.924-0.482,2.765c-0.323,0.843-0.765,1.597-1.333,2.265c-0.559,0.67-1.226,1.261-1.993,1.772
	c-0.771,0.513-1.599,0.936-2.491,1.269c-0.891,0.335-1.826,0.589-2.807,0.761c-0.981,0.173-1.966,0.259-2.956,0.259
	c-1.393,0-2.748-0.17-4.063-0.51c-1.312-0.339-2.483-0.851-3.51-1.536c-1.024-0.688-1.845-1.544-2.461-2.573
	c-0.622-1.032-0.93-2.238-0.93-3.617c0-0.711,0.115-1.34,0.344-1.878c0.229-0.544,0.512-0.993,0.853-1.357
	c0.34-0.359,0.708-0.634,1.111-0.817c0.4-0.184,0.77-0.275,1.119-0.275c0.357,0,0.657,0.097,0.895,0.29
	c0.239,0.196,0.359,0.5,0.359,0.912c0,0.189-0.023,0.391-0.065,0.602c-0.044,0.212-0.095,0.443-0.144,0.694
	c-0.05,0.248-0.097,0.523-0.142,0.824c-0.044,0.303-0.067,0.632-0.067,0.988c0,0.78,0.179,1.454,0.537,2.021
	c0.353,0.572,0.826,1.037,1.417,1.405c0.591,0.367,1.272,0.641,2.039,0.818c0.771,0.179,1.566,0.268,2.392,0.268
	c0.969,0,1.939-0.114,2.909-0.351c0.966-0.235,1.834-0.579,2.604-1.036c0.769-0.458,1.393-1.018,1.87-1.681
	c0.482-0.662,0.721-1.422,0.721-2.28c0-0.79-0.214-1.498-0.645-2.122c-0.43-0.624-0.996-1.202-1.702-1.729
	c-0.711-0.528-1.514-1.029-2.417-1.496c-0.902-0.468-1.819-0.942-2.757-1.419c-0.938-0.48-1.855-0.985-2.757-1.515
	c-0.902-0.526-1.706-1.111-2.415-1.745c-0.708-0.633-1.275-1.346-1.708-2.131c-0.428-0.785-0.642-1.678-0.642-2.683
	c0-0.932,0.227-1.856,0.677-2.764c0.452-0.907,1.134-1.721,2.039-2.438c0.91-0.722,2.043-1.304,3.401-1.748
	c1.36-0.445,2.953-0.669,4.78-0.669c1.159,0,2.29,0.174,3.398,0.52c1.108,0.346,2.099,0.835,2.968,1.469
	c0.868,0.638,1.566,1.393,2.096,2.273c0.529,0.879,0.792,1.854,0.792,2.923c0,0.637-0.107,1.288-0.322,1.956
	c-0.219,0.67-0.567,1.368-1.044,2.089c-0.471,0.701-0.98,1.223-1.532,1.563c-0.552,0.339-1.049,0.51-1.497,0.51
	c-0.333,0-0.606-0.099-0.815-0.293c-0.214-0.193-0.318-0.484-0.318-0.878c0-0.288,0.064-0.632,0.199-1.027
	c0.132-0.395,0.364-0.849,0.687-1.361c0.298-0.49,0.521-0.949,0.668-1.38c0.145-0.428,0.216-0.823,0.216-1.193
	c0-0.569-0.155-1.066-0.458-1.497c-0.308-0.428-0.731-0.785-1.272-1.075c-0.54-0.292-1.189-0.509-1.944-0.652
	c-0.761-0.147-1.589-0.219-2.491-0.219c-1.004,0-1.875,0.114-2.616,0.344c-0.741,0.228-1.358,0.524-1.854,0.884
	c-0.497,0.364-0.865,0.767-1.104,1.211C125.801,81.945,125.681,82.385,125.681,82.818"/>
<path fill="#ED1C24" d="M149.66,94.347c0.458-0.602,0.97-1.247,1.539-1.937c0.567-0.691,1.159-1.338,1.771-1.932
	s1.223-1.091,1.831-1.486c0.606-0.396,1.178-0.595,1.71-0.595c0.137,0,0.288,0.025,0.452,0.077c0.17,0.05,0.329,0.142,0.479,0.276
	c0.148,0.132,0.275,0.318,0.377,0.559c0.099,0.239,0.149,0.55,0.149,0.928c0,0.759-0.107,1.494-0.318,2.213
	s-0.443,1.437-0.693,2.155c-0.251,0.719-0.48,1.452-0.684,2.195c-0.209,0.75-0.311,1.529-0.311,2.342
	c0,0.447,0.068,0.803,0.201,1.068c0.135,0.27,0.306,0.404,0.518,0.404c0.269,0,0.552-0.059,0.853-0.168
	c0.301-0.111,0.601-0.255,0.902-0.435c0.298-0.179,0.597-0.383,0.886-0.612c0.289-0.225,0.562-0.464,0.821-0.708
	c0.611-0.568,1.213-1.216,1.804-1.938l0.283,4.445c-0.204,0.155-0.455,0.35-0.76,0.583c-0.308,0.234-0.646,0.482-1.019,0.744
	c-0.374,0.263-0.776,0.527-1.214,0.795c-0.432,0.267-0.869,0.502-1.31,0.709c-0.44,0.206-0.882,0.378-1.32,0.509
	c-0.44,0.135-0.861,0.202-1.264,0.202c-0.611,0-1.144-0.164-1.595-0.492c-0.451-0.329-0.82-0.746-1.11-1.253
	c-0.291-0.508-0.507-1.062-0.65-1.663c-0.145-0.603-0.219-1.171-0.219-1.706c0-0.354,0.047-0.753,0.145-1.192
	c0.094-0.44,0.209-0.884,0.347-1.33c0.14-0.445,0.296-0.881,0.468-1.304c0.171-0.423,0.334-0.805,0.487-1.136
	c0.148-0.332,0.278-0.606,0.393-0.818c0.109-0.211,0.184-0.334,0.216-0.367l-0.351-0.05c-0.188,0.121-0.512,0.433-0.961,0.935
	c-0.45,0.502-0.96,1.134-1.529,1.897c-0.567,0.763-1.154,1.62-1.763,2.573c-0.606,0.952-1.156,1.937-1.646,2.947
	c-0.247,0.503-0.445,0.94-0.602,1.312c-0.157,0.374-0.311,0.68-0.46,0.919c-0.148,0.24-0.313,0.421-0.492,0.543
	s-0.408,0.185-0.686,0.185c-0.369,0-0.657-0.106-0.868-0.317c-0.211-0.212-0.375-0.493-0.484-0.843
	c-0.112-0.352-0.185-0.749-0.219-1.197c-0.033-0.444-0.05-0.901-0.05-1.368c0-0.747,0.01-1.725,0.025-2.933
	c0.018-1.21,0.069-2.55,0.159-4.02c0.09-1.47,0.219-3.018,0.386-4.646c0.166-1.626,0.405-3.231,0.708-4.82
	c0.309-1.586,0.691-3.104,1.154-4.545c0.462-1.442,1.024-2.712,1.688-3.809c0.665-1.099,1.439-1.969,2.333-2.615
	c0.892-0.647,1.916-0.97,3.075-0.97c0.602,0,1.094,0.089,1.476,0.267c0.386,0.179,0.692,0.429,0.92,0.755
	c0.229,0.321,0.389,0.706,0.478,1.159c0.089,0.45,0.133,0.955,0.133,1.512c0,0.824-0.118,1.737-0.352,2.742
	c-0.234,1.002-0.542,2.043-0.925,3.122c-0.388,1.082-0.823,2.175-1.312,3.283c-0.493,1.11-0.993,2.186-1.507,3.226
	c-0.512,1.044-1.014,2.025-1.511,2.95s-0.932,1.739-1.31,2.439L149.66,94.347z M151.149,84.021c0.657-1.704,1.134-3.141,1.427-4.312
	c0.296-1.169,0.443-2.032,0.443-2.591c0-0.846-0.109-1.268-0.333-1.268c-0.291,0-0.718,0.473-1.287,1.419
	c-0.567,0.947-1.235,2.323-2.004,4.127c-0.188,0.614-0.365,1.248-0.527,1.905c-0.161,0.658-0.308,1.312-0.435,1.964
	c-0.126,0.65-0.246,1.292-0.35,1.922c-0.104,0.629-0.199,1.228-0.277,1.798c-0.188,1.324-0.334,2.619-0.434,3.891
	c0.303-0.701,0.632-1.463,0.987-2.288c0.356-0.825,0.708-1.641,1.052-2.448c0.347-0.808,0.67-1.571,0.979-2.29
	C150.694,85.131,150.948,84.523,151.149,84.021"/>
<path fill="#ED1C24" d="M178.501,100.647c-0.253,0.358-0.597,0.776-1.026,1.253c-0.431,0.479-0.91,0.938-1.445,1.373
	c-0.537,0.432-1.108,0.8-1.72,1.101c-0.614,0.301-1.228,0.453-1.839,0.453c-0.736,0-1.348-0.239-1.839-0.712
	c-0.488-0.472-0.914-1.16-1.269-2.062c-0.268,0.311-0.596,0.628-0.984,0.951c-0.394,0.323-0.819,0.617-1.281,0.879
	c-0.463,0.26-0.942,0.474-1.445,0.644c-0.502,0.166-1.004,0.248-1.503,0.248c-0.535,0-1.057-0.107-1.564-0.326
	c-0.507-0.216-0.955-0.527-1.345-0.935s-0.701-0.902-0.935-1.486c-0.237-0.585-0.351-1.245-0.351-1.981
	c0-0.835,0.114-1.692,0.351-2.573c0.234-0.879,0.557-1.74,0.967-2.58c0.413-0.844,0.9-1.636,1.463-2.382
	c0.562-0.745,1.177-1.396,1.847-1.957c0.667-0.556,1.373-0.999,2.114-1.327s1.496-0.492,2.262-0.492
	c0.258,0,0.457,0.051,0.602,0.147c0.145,0.104,0.266,0.218,0.361,0.345c0.094,0.13,0.186,0.254,0.275,0.376
	c0.089,0.123,0.199,0.214,0.333,0.268c0.133,0.055,0.271,0.093,0.41,0.11c0.138,0.015,0.281,0.024,0.424,0.024
	c0.125,0,0.25-0.002,0.379-0.01c0.127-0.005,0.253-0.008,0.375-0.008c0.167,0,0.323,0.018,0.468,0.05
	c0.146,0.035,0.273,0.106,0.385,0.219c0.109,0.106,0.196,0.267,0.258,0.468c0.061,0.199,0.092,0.472,0.092,0.818
	c0,0.534-0.057,1.128-0.167,1.778c-0.112,0.652-0.234,1.321-0.367,2.005c-0.135,0.686-0.259,1.373-0.369,2.056
	c-0.112,0.686-0.168,1.335-0.168,1.946c0,0.525,0.049,0.936,0.143,1.229c0.096,0.296,0.3,0.442,0.61,0.442
	c0.233,0,0.479-0.058,0.735-0.175c0.256-0.115,0.517-0.271,0.779-0.459c0.258-0.188,0.522-0.402,0.785-0.645
	c0.259-0.237,0.507-0.486,0.741-0.743c0.547-0.602,1.099-1.279,1.655-2.038L178.501,100.647z M164.231,99.327
	c0,0.278,0.02,0.55,0.059,0.811c0.04,0.265,0.109,0.497,0.208,0.703c0.1,0.207,0.234,0.374,0.4,0.501
	c0.167,0.129,0.381,0.191,0.634,0.191c0.413,0,0.786-0.178,1.121-0.535c0.336-0.355,0.624-0.786,0.868-1.285
	c0.245-0.502,0.443-1.02,0.594-1.555c0.152-0.533,0.249-0.981,0.291-1.337l1.019-4.912c-0.454,0-0.899,0.114-1.335,0.344
	c-0.434,0.229-0.843,0.537-1.228,0.927c-0.385,0.39-0.738,0.836-1.061,1.335c-0.323,0.502-0.603,1.029-0.835,1.58
	c-0.234,0.55-0.415,1.105-0.542,1.661C164.295,98.315,164.231,98.837,164.231,99.327"/>
<path fill="#ED1C24" d="M176.532,101.249c0-0.489,0.024-1.061,0.081-1.713c0.059-0.651,0.133-1.337,0.227-2.063
	c0.095-0.724,0.204-1.462,0.334-2.212c0.129-0.754,0.263-1.47,0.41-2.148c0.145-0.679,0.29-1.303,0.435-1.871
	c0.144-0.567,0.289-1.037,0.434-1.406c0.089-0.242,0.179-0.437,0.268-0.583c0.09-0.146,0.191-0.259,0.309-0.344
	c0.119-0.082,0.263-0.139,0.436-0.166c0.171-0.028,0.385-0.043,0.644-0.043c0.288,0,0.513,0.015,0.676,0.043
	c0.161,0.027,0.28,0.094,0.357,0.201c0.081,0.106,0.127,0.258,0.145,0.46c0.016,0.199,0.025,0.473,0.025,0.818v1.496
	c0,0.584,0.01,1.161,0.032,1.728h0.185c0.221-0.444,0.474-0.942,0.752-1.493c0.279-0.553,0.603-1.067,0.97-1.547
	c0.365-0.48,0.785-0.883,1.254-1.21c0.467-0.329,1.006-0.496,1.62-0.496c0.209,0,0.418,0.038,0.617,0.109
	c0.201,0.073,0.377,0.178,0.526,0.309c0.148,0.135,0.269,0.298,0.357,0.495c0.091,0.194,0.135,0.414,0.135,0.661
	c0,0.187-0.027,0.453-0.084,0.79c-0.055,0.341-0.114,0.699-0.184,1.072c-0.065,0.372-0.127,0.733-0.184,1.086
	c-0.056,0.351-0.083,0.642-0.083,0.875c0,0.403,0.037,0.736,0.116,1.005c0.08,0.267,0.182,0.481,0.309,0.644
	c0.13,0.161,0.274,0.273,0.436,0.341s0.331,0.103,0.51,0.103c0.502,0,1.019-0.112,1.557-0.336c0.532-0.222,1.023-0.474,1.469-0.751
	c0.525-0.324,1.037-0.691,1.537-1.104l-0.252,3.913c-0.288,0.186-0.616,0.397-0.984,0.631s-0.761,0.455-1.179,0.661
	s-0.853,0.379-1.302,0.517c-0.453,0.14-0.91,0.209-1.381,0.209c-0.835,0-1.509-0.168-2.021-0.51
	c-0.512-0.338-0.92-0.785-1.221-1.335c-0.301-0.552-0.524-1.171-0.669-1.856c-0.144-0.684-0.261-1.377-0.353-2.079h-0.265
	l-2.993,8.339c-0.153,0.433-0.303,0.794-0.441,1.077c-0.14,0.285-0.282,0.515-0.425,0.692c-0.147,0.179-0.301,0.304-0.469,0.377
	c-0.166,0.074-0.35,0.108-0.551,0.108c-0.458,0-0.823-0.098-1.103-0.294c-0.278-0.193-0.494-0.454-0.646-0.785
	c-0.149-0.328-0.249-0.7-0.298-1.118C176.557,102.126,176.532,101.694,176.532,101.249"/>
<path fill="#ED1C24" d="M196.614,104.742c-1.047,0-1.964-0.189-2.749-0.569c-0.786-0.377-1.437-0.887-1.964-1.528
	c-0.522-0.64-0.915-1.381-1.177-2.221c-0.261-0.842-0.393-1.726-0.393-2.65c0-0.624,0.063-1.282,0.184-1.979
	c0.122-0.695,0.309-1.379,0.561-2.048c0.25-0.668,0.565-1.305,0.944-1.911c0.378-0.606,0.82-1.144,1.328-1.605
	c0.507-0.461,1.072-0.828,1.704-1.103c0.63-0.273,1.328-0.41,2.099-0.41c0.622,0,1.201,0.1,1.735,0.301
	c0.537,0.201,0.999,0.483,1.396,0.846c0.395,0.361,0.705,0.798,0.925,1.31c0.225,0.512,0.336,1.087,0.336,1.722
	c0,0.69-0.171,1.381-0.509,2.072c-0.339,0.691-0.811,1.342-1.412,1.954c-0.602,0.613-1.317,1.158-2.147,1.638
	c-0.831,0.48-1.73,0.854-2.698,1.12c0.166,0.301,0.331,0.549,0.492,0.752c0.162,0.201,0.326,0.356,0.494,0.469
	c0.165,0.111,0.341,0.188,0.525,0.233c0.184,0.044,0.381,0.067,0.594,0.067c0.667,0,1.372-0.135,2.113-0.4
	c0.741-0.27,1.462-0.602,2.163-1.006c0.701-0.399,1.368-0.839,1.989-1.31c0.624-0.475,1.152-0.922,1.586-1.345l2.157,2.238
	c-0.979,1.014-2.023,1.914-3.124,2.691c-0.48,0.333-0.995,0.662-1.546,0.985s-1.132,0.608-1.738,0.859
	c-0.607,0.251-1.235,0.455-1.89,0.603C197.942,104.667,197.284,104.742,196.614,104.742 M194.393,96.888
	c0.402,0,0.841-0.102,1.312-0.308c0.472-0.207,0.912-0.474,1.319-0.796c0.405-0.323,0.749-0.674,1.024-1.052
	c0.28-0.379,0.42-0.746,0.42-1.104c0-0.499-0.089-0.912-0.272-1.235c-0.184-0.322-0.413-0.484-0.68-0.484
	c-0.479,0-0.887,0.089-1.228,0.267c-0.34,0.179-0.624,0.41-0.853,0.693c-0.229,0.285-0.412,0.608-0.552,0.969
	c-0.14,0.363-0.244,0.729-0.316,1.097c-0.071,0.365-0.122,0.724-0.142,1.068C194.402,96.349,194.393,96.642,194.393,96.888"/>
<path fill="#ED1C24" d="M218.957,90.422c-0.211-0.392-0.433-0.848-0.659-1.37c-0.228-0.524-0.441-1.077-0.636-1.656
	c-0.194-0.578-0.358-1.161-0.485-1.745c-0.127-0.583-0.191-1.139-0.191-1.663c0-0.902,0.193-1.766,0.584-2.591
	c0.392-0.822,0.913-1.554,1.569-2.187c0.659-0.637,1.419-1.139,2.282-1.515c0.868-0.373,1.775-0.56,2.732-0.56
	c0.813,0,1.563,0.127,2.247,0.375c0.687,0.25,1.272,0.6,1.762,1.045c0.493,0.448,0.873,0.97,1.144,1.571
	c0.274,0.602,0.413,1.26,0.413,1.971c0,0.624-0.106,1.28-0.318,1.964c-0.213,0.688-0.556,1.383-1.035,2.089
	c-0.481,0.708-1.098,1.412-1.854,2.113c-0.759,0.704-1.679,1.382-2.759,2.041c0.135,0.266,0.358,0.653,0.677,1.16
	c0.318,0.508,0.674,1.072,1.068,1.696s0.81,1.278,1.238,1.964c0.428,0.684,0.825,1.346,1.194,1.979
	c0.232-0.167,0.423-0.339,0.562-0.517c0.14-0.181,0.241-0.356,0.308-0.535c0.065-0.179,0.109-0.361,0.125-0.545
	c0.018-0.184,0.025-0.37,0.025-0.562c0-0.42-0.051-0.783-0.15-1.084s-0.242-0.594-0.428-0.885c-0.184-0.288-0.402-0.599-0.658-0.928
	c-0.257-0.328-0.534-0.733-0.835-1.21c0-0.013,0.027-0.045,0.082-0.102c0.055-0.056,0.119-0.117,0.193-0.186
	c0.073-0.064,0.143-0.123,0.209-0.174c0.065-0.05,0.109-0.074,0.135-0.074c0.163,0,0.407,0.069,0.716,0.209
	c0.313,0.139,0.651,0.334,1.019,0.584c0.369,0.252,0.746,0.553,1.139,0.902c0.388,0.351,0.741,0.743,1.053,1.179
	c0.311,0.436,0.568,0.905,0.768,1.412c0.201,0.507,0.301,1.031,0.301,1.579c0,0.678-0.187,1.384-0.56,2.112
	c-0.372,0.731-1.004,1.457-1.897,2.178c0.033,0,0.152,0.079,0.352,0.229c0.201,0.15,0.428,0.326,0.686,0.527
	c0.257,0.198,0.51,0.399,0.764,0.602c0.245,0.198,0.436,0.354,0.557,0.467c0.177,0.167,0.267,0.395,0.267,0.687
	c0,0.256-0.074,0.531-0.224,0.825c-0.152,0.296-0.344,0.569-0.577,0.82c-0.233,0.248-0.493,0.457-0.778,0.627
	c-0.283,0.166-0.559,0.248-0.828,0.248c-0.253,0-0.481-0.082-0.684-0.248c-0.146-0.125-0.355-0.328-0.626-0.611
	c-0.273-0.284-0.545-0.578-0.811-0.879c-0.267-0.301-0.502-0.563-0.703-0.792c-0.199-0.229-0.299-0.349-0.299-0.358
	c-0.524,0.399-1.126,0.756-1.805,1.069c-0.592,0.265-1.295,0.512-2.113,0.735c-0.82,0.222-1.755,0.333-2.8,0.333
	c-1.359,0-2.555-0.149-3.584-0.449c-1.029-0.301-1.893-0.714-2.581-1.238c-0.692-0.522-1.213-1.134-1.563-1.83
	c-0.352-0.696-0.527-1.444-0.527-2.251c0-0.698,0.142-1.422,0.425-2.169c0.286-0.746,0.711-1.492,1.281-2.238
	c0.568-0.747,1.274-1.471,2.12-2.173C216.829,91.692,217.821,91.034,218.957,90.422 M220.545,101.366
	c0.723,0,1.431-0.125,2.121-0.375c0.688-0.252,1.335-0.572,1.937-0.96c-0.477-0.569-0.899-1.089-1.268-1.564
	c-0.368-0.472-0.727-0.969-1.079-1.486c-0.351-0.517-0.716-1.092-1.093-1.72c-0.379-0.634-0.814-1.391-1.304-2.282
	c-0.537,0.4-1.015,0.828-1.437,1.277c-0.423,0.453-0.78,0.913-1.068,1.38c-0.292,0.467-0.514,0.933-0.662,1.395
	c-0.149,0.46-0.225,0.911-0.225,1.345c0,0.423,0.08,0.812,0.242,1.179c0.161,0.362,0.41,0.676,0.743,0.945
	c0.333,0.266,0.755,0.477,1.268,0.634C219.235,101.289,219.844,101.366,220.545,101.366 M224.354,80.678
	c-0.233,0-0.498,0.076-0.786,0.227s-0.559,0.356-0.811,0.627c-0.251,0.266-0.459,0.581-0.626,0.945
	c-0.169,0.359-0.251,0.753-0.251,1.178c0,0.363,0.052,0.807,0.159,1.318c0.106,0.515,0.227,1.007,0.359,1.479
	c0.133,0.476,0.254,0.876,0.369,1.203c0.109,0.33,0.176,0.495,0.198,0.495c0.548-0.502,1.045-0.985,1.496-1.446
	c0.45-0.464,0.831-0.923,1.144-1.378c0.313-0.457,0.556-0.92,0.727-1.387c0.175-0.468,0.259-0.952,0.259-1.455
	c0-0.279-0.035-0.529-0.106-0.751c-0.072-0.224-0.191-0.412-0.361-0.568c-0.166-0.157-0.396-0.277-0.686-0.358
	C225.15,80.721,224.786,80.678,224.354,80.678"/>
<path fill="#ED1C24" d="M260.363,100.565c-0.901,0.958-1.92,1.796-3.049,2.514c-1.131,0.722-2.312,1.32-3.542,1.805
	s-2.481,0.851-3.752,1.094c-1.273,0.246-2.501,0.371-3.694,0.371c-1.312,0-2.55-0.155-3.709-0.463
	c-1.159-0.306-2.173-0.772-3.04-1.402c-0.868-0.629-1.557-1.424-2.063-2.387c-0.507-0.966-0.762-2.109-0.762-3.438
	c0-1.122,0.204-2.205,0.609-3.24c0.407-1.036,1.037-1.956,1.89-2.756c0.852-0.803,1.944-1.45,3.276-1.939
	c1.33-0.49,2.923-0.759,4.785-0.804c-1.226,0-2.294-0.174-3.208-0.526c-0.914-0.351-1.671-0.822-2.272-1.42
	c-0.602-0.597-1.052-1.293-1.353-2.088c-0.301-0.797-0.453-1.641-0.453-2.531c0-0.838,0.147-1.599,0.438-2.289
	c0.288-0.692,0.686-1.313,1.193-1.864c0.507-0.553,1.104-1.032,1.795-1.445c0.691-0.412,1.442-0.756,2.248-1.026
	c0.81-0.274,1.655-0.48,2.54-0.616c0.886-0.143,1.78-0.209,2.683-0.209c1.304,0,2.578,0.139,3.826,0.426
	c1.248,0.279,2.356,0.708,3.327,1.273c0.969,0.57,1.747,1.281,2.336,2.132c0.592,0.852,0.888,1.848,0.888,2.982
	c0,0.401-0.137,0.799-0.41,1.187c-0.273,0.39-0.597,0.738-0.977,1.044c-0.38,0.309-0.778,0.551-1.195,0.736
	c-0.418,0.187-0.767,0.275-1.045,0.275c-0.233,0-0.349-0.206-0.349-0.616c0-0.368,0.059-0.844,0.174-1.422
	c0.117-0.58,0.313-1.304,0.593-2.173c-0.298-0.244-0.741-0.49-1.318-0.734c-0.582-0.246-1.238-0.469-1.963-0.668
	c-0.731-0.2-1.508-0.366-2.333-0.495c-0.825-0.126-1.636-0.191-2.441-0.191c-0.746,0-1.457,0.067-2.138,0.201
	c-0.679,0.135-1.278,0.354-1.795,0.659c-0.518,0.309-0.93,0.711-1.238,1.216c-0.306,0.497-0.457,1.116-0.457,1.852
	c0,0.602,0.109,1.111,0.323,1.519c0.218,0.413,0.508,0.767,0.87,1.055c0.363,0.288,0.776,0.525,1.243,0.709
	c0.469,0.184,0.955,0.351,1.457,0.494c0.502,0.145,0.994,0.284,1.476,0.42c0.488,0.133,0.93,0.283,1.338,0.458
	c0.408,0.174,0.751,0.38,1.029,0.627c0.279,0.243,0.463,0.549,0.552,0.917c0.021,0.234,0.046,0.472,0.064,0.711
	c0.021,0.239,0.035,0.47,0.035,0.693c0,0.624-0.119,1.077-0.353,1.365c-0.233,0.28-0.691,0.426-1.367,0.426
	c-0.291,0-0.652-0.021-1.08-0.054s-0.84-0.049-1.228-0.049c-0.89,0-1.766,0.114-2.625,0.343c-0.855,0.227-1.626,0.567-2.305,1.019
	c-0.679,0.45-1.229,1.008-1.646,1.671c-0.417,0.662-0.626,1.435-0.626,2.315c0,0.836,0.119,1.531,0.361,2.089
	c0.237,0.556,0.565,1.004,0.983,1.344c0.418,0.341,0.91,0.582,1.479,0.726c0.569,0.147,1.181,0.22,1.837,0.22
	c0.79,0,1.621-0.077,2.491-0.233c0.867-0.157,1.735-0.371,2.599-0.645c0.862-0.273,1.702-0.596,2.521-0.97
	c0.82-0.372,1.581-0.772,2.285-1.2c0.7-0.428,1.317-0.884,1.854-1.355c0.532-0.474,0.944-0.95,1.235-1.429L260.363,100.565z"/>
<path fill="#ED1C24" d="M276.151,100.647c-0.25,0.358-0.594,0.776-1.024,1.253c-0.43,0.479-0.909,0.938-1.444,1.373
	c-0.537,0.432-1.108,0.8-1.72,1.101c-0.614,0.301-1.228,0.453-1.84,0.453c-0.735,0-1.348-0.239-1.839-0.712
	c-0.488-0.472-0.914-1.16-1.269-2.062c-0.269,0.311-0.597,0.628-0.985,0.951c-0.393,0.323-0.817,0.617-1.279,0.879
	c-0.463,0.26-0.942,0.474-1.444,0.644c-0.503,0.166-1.005,0.248-1.504,0.248c-0.535,0-1.057-0.107-1.564-0.326
	c-0.507-0.216-0.955-0.527-1.345-0.935s-0.701-0.902-0.935-1.486c-0.237-0.585-0.352-1.245-0.352-1.981
	c0-0.835,0.114-1.692,0.352-2.573c0.233-0.879,0.558-1.74,0.968-2.58c0.412-0.844,0.899-1.636,1.463-2.382
	c0.562-0.745,1.177-1.396,1.847-1.957c0.667-0.556,1.373-0.999,2.114-1.327s1.496-0.492,2.263-0.492
	c0.258,0,0.456,0.051,0.601,0.147c0.146,0.104,0.266,0.218,0.361,0.345c0.092,0.13,0.187,0.254,0.275,0.376
	c0.09,0.123,0.199,0.214,0.334,0.268c0.133,0.055,0.271,0.093,0.41,0.11c0.136,0.015,0.28,0.024,0.424,0.024
	c0.125,0,0.249-0.002,0.379-0.01c0.127-0.005,0.253-0.008,0.375-0.008c0.166,0,0.323,0.018,0.468,0.05
	c0.146,0.035,0.273,0.106,0.385,0.219c0.11,0.106,0.196,0.267,0.259,0.468c0.06,0.199,0.092,0.472,0.092,0.818
	c0,0.534-0.057,1.128-0.166,1.778c-0.112,0.652-0.234,1.321-0.368,2.005c-0.135,0.686-0.259,1.373-0.368,2.056
	c-0.112,0.686-0.169,1.335-0.169,1.946c0,0.525,0.049,0.936,0.144,1.229c0.095,0.296,0.3,0.442,0.61,0.442
	c0.232,0,0.479-0.058,0.734-0.175c0.257-0.115,0.515-0.271,0.779-0.459c0.258-0.188,0.522-0.402,0.785-0.645
	c0.259-0.237,0.507-0.486,0.741-0.743c0.545-0.602,1.099-1.279,1.655-2.038L276.151,100.647z M261.885,99.327
	c0,0.278,0.02,0.55,0.057,0.811c0.042,0.265,0.111,0.497,0.208,0.703c0.103,0.207,0.237,0.374,0.403,0.501
	c0.167,0.129,0.381,0.191,0.634,0.191c0.413,0,0.785-0.178,1.121-0.535c0.336-0.355,0.624-0.786,0.868-1.285
	c0.245-0.502,0.441-1.02,0.592-1.555c0.154-0.533,0.251-0.981,0.293-1.337l1.02-4.912c-0.454,0-0.902,0.114-1.335,0.344
	c-0.435,0.229-0.844,0.537-1.229,0.927s-0.738,0.836-1.061,1.335c-0.323,0.502-0.603,1.029-0.836,1.58
	c-0.233,0.55-0.415,1.105-0.542,1.661C261.948,98.315,261.885,98.837,261.885,99.327"/>
<path fill="#ED1C24" d="M274.185,101.249c0-0.489,0.025-1.061,0.082-1.713c0.058-0.651,0.132-1.337,0.227-2.063
	c0.095-0.724,0.204-1.462,0.334-2.212c0.129-0.754,0.263-1.47,0.41-2.148c0.145-0.679,0.29-1.303,0.435-1.871
	c0.144-0.567,0.288-1.037,0.434-1.406c0.089-0.242,0.179-0.437,0.268-0.583c0.089-0.146,0.191-0.259,0.309-0.344
	c0.119-0.082,0.263-0.139,0.435-0.166c0.172-0.028,0.386-0.043,0.644-0.043c0.289,0,0.514,0.015,0.677,0.043
	c0.161,0.027,0.28,0.094,0.357,0.201c0.08,0.106,0.127,0.258,0.145,0.46c0.016,0.199,0.025,0.473,0.025,0.818v1.496
	c0,0.584,0.01,1.161,0.031,1.728h0.186c0.221-0.444,0.474-0.942,0.752-1.493c0.279-0.553,0.603-1.067,0.97-1.547
	c0.365-0.48,0.785-0.883,1.254-1.21c0.467-0.329,1.006-0.496,1.62-0.496c0.209,0,0.418,0.038,0.617,0.109
	c0.201,0.073,0.377,0.178,0.526,0.309c0.148,0.135,0.269,0.298,0.357,0.495c0.091,0.194,0.135,0.414,0.135,0.661
	c0,0.187-0.027,0.453-0.084,0.79c-0.055,0.341-0.114,0.699-0.184,1.072c-0.065,0.372-0.127,0.733-0.186,1.086
	c-0.054,0.351-0.081,0.642-0.081,0.875c0,0.403,0.037,0.736,0.116,1.005c0.08,0.267,0.182,0.481,0.309,0.644
	c0.13,0.161,0.274,0.273,0.436,0.341s0.331,0.103,0.51,0.103c0.502,0,1.019-0.112,1.556-0.336c0.533-0.222,1.024-0.474,1.47-0.751
	c0.525-0.324,1.037-0.691,1.537-1.104l-0.252,3.913c-0.288,0.186-0.616,0.397-0.984,0.631s-0.761,0.455-1.179,0.661
	s-0.854,0.379-1.303,0.517c-0.452,0.14-0.909,0.209-1.38,0.209c-0.835,0-1.509-0.168-2.021-0.51
	c-0.513-0.338-0.92-0.785-1.221-1.335c-0.301-0.552-0.524-1.171-0.669-1.856c-0.144-0.684-0.261-1.377-0.353-2.079h-0.265
	l-2.993,8.339c-0.153,0.433-0.303,0.794-0.441,1.077c-0.14,0.285-0.282,0.515-0.426,0.692c-0.146,0.179-0.301,0.304-0.468,0.377
	c-0.166,0.074-0.35,0.108-0.551,0.108c-0.458,0-0.823-0.098-1.103-0.294c-0.278-0.193-0.494-0.454-0.646-0.785
	c-0.149-0.328-0.249-0.7-0.3-1.118C274.21,102.126,274.185,101.694,274.185,101.249"/>
<path fill="#ED1C24" d="M288.619,101.249c0-0.735,0.044-1.583,0.135-2.548c0.09-0.963,0.201-1.944,0.332-2.94
	c0.135-0.998,0.287-1.957,0.453-2.882s0.329-1.716,0.484-2.374c0.122-0.512,0.361-0.94,0.709-1.286
	c0.354-0.345,0.83-0.52,1.432-0.52c0.603,0,1.021,0.185,1.253,0.553c0.234,0.367,0.349,0.857,0.349,1.472
	c0,0.166-0.015,0.396-0.05,0.676c-0.032,0.283-0.074,0.597-0.124,0.935c-0.05,0.341-0.104,0.693-0.159,1.055
	c-0.055,0.36-0.109,0.696-0.159,1.002s-0.089,0.573-0.124,0.803c-0.035,0.229-0.051,0.384-0.051,0.46h0.334
	c0.067-0.124,0.173-0.32,0.318-0.594c0.145-0.274,0.311-0.588,0.502-0.945c0.188-0.355,0.393-0.73,0.608-1.128
	c0.217-0.396,0.421-0.774,0.609-1.137c0.19-0.361,0.363-0.682,0.517-0.96c0.158-0.278,0.274-0.484,0.354-0.616
	c0.355-0.604,0.761-1.015,1.219-1.238s0.965-0.336,1.521-0.336c0.558,0,1.001,0.236,1.328,0.704
	c0.328,0.467,0.493,1.114,0.493,1.937c0,0.125-0.025,0.331-0.076,0.619c-0.049,0.291-0.114,0.636-0.19,1.037
	c-0.077,0.4-0.164,0.839-0.258,1.32c-0.095,0.479-0.183,0.969-0.262,1.471c-0.075,0.501-0.139,0.995-0.189,1.487
	c-0.052,0.489-0.076,0.939-0.076,1.353c0,0.69,0.087,1.258,0.26,1.705c0.173,0.445,0.44,0.666,0.811,0.666
	c0.165,0,0.358-0.05,0.575-0.149s0.449-0.231,0.703-0.393c0.249-0.161,0.507-0.348,0.767-0.559c0.263-0.211,0.521-0.431,0.78-0.651
	c0.586-0.525,1.208-1.114,1.854-1.773l0.283,3.745l-0.836,0.634c-0.456,0.345-0.925,0.69-1.396,1.035
	c-0.472,0.347-0.965,0.654-1.478,0.928c-0.512,0.274-1.049,0.496-1.605,0.672c-0.557,0.169-1.141,0.256-1.755,0.256
	c-0.611,0-1.129-0.442-1.546-1.328c-0.418-0.887-0.627-2.182-0.627-3.885c0-0.669,0.045-1.39,0.135-2.166
	c0.089-0.772,0.201-1.605,0.334-2.496h-0.265l-4.38,8.689c-0.225,0.458-0.474,0.768-0.752,0.935
	c-0.277,0.166-0.602,0.251-0.97,0.251c-0.457,0-0.825-0.098-1.104-0.294c-0.278-0.193-0.492-0.454-0.642-0.785
	c-0.151-0.328-0.25-0.7-0.304-1.118C288.645,102.126,288.619,101.694,288.619,101.249"/>
<path fill="#ED1C24" d="M54.145,20.444v41.423c0,5.202-6.344,7.411-9.981,3.918c-0.713-0.71-1.354-1.783-1.924-2.637
	c-0.855-1.355-17.395-25.45-18.395-26.875v25.594c0,3.136-2.565,5.701-5.703,5.701c-3.135,0-5.703-2.565-5.703-5.701V20.444
	c0-3.065,2.568-5.633,5.703-5.633c1.924,0,3.351,0.927,4.562,2.424c1.214,1.568,13.261,19.108,20.105,29.087V20.444
	c0-3.065,2.496-5.633,5.633-5.633C51.579,14.811,54.145,17.378,54.145,20.444"/>
<path fill="#ED1C24" d="M65.822,67.568c-3.137,0-5.633-2.565-5.633-5.632V20.444c0-3.065,2.496-5.633,5.633-5.633
	s5.631,2.568,5.631,5.633v41.492C71.453,65.002,68.959,67.568,65.822,67.568"/>
<path fill="#ED1C24" d="M121.212,41.19c0,14.544-11.833,26.378-26.379,26.378H82.999c-3.065,0-5.49-2.639-5.49-5.701V20.516
	c0-3.138,2.568-5.706,5.703-5.706h11.621C109.378,14.811,121.212,26.647,121.212,41.19 M109.734,41.19
	c0-8.271-6.7-14.971-14.901-14.971h-5.917v29.943h5.917C103.034,56.162,109.734,49.459,109.734,41.19"/>
<path fill="#ED1C24" d="M164.363,67.066c-2.353,1.215-5.987,0.426-7.486-2.919l-2.493-5.63h-21.815l-2.572,5.63
	c-1.494,3.279-4.986,3.993-7.483,2.919c-2.851-1.207-4.134-4.629-2.851-7.484l18.465-41.276c0.571-1.355,1.712-2.426,2.995-2.998
	c1.425-0.567,3.207-0.567,4.634,0c1.355,0.572,2.352,1.643,2.994,2.998l18.467,41.276C168.499,62.437,167.146,65.643,164.363,67.066
	 M149.25,47.179l-5.777-12.975L137.7,47.179H149.25z"/>
<path fill="#ED1C24" d="M198.782,67.996c-14.758,0-26.807-12.048-26.807-26.806c0-14.76,12.049-26.807,26.807-26.807
	c5.918,0,11.551,1.854,16.326,5.564c2.496,1.922,2.924,5.417,1.069,7.983c-1.997,2.493-5.49,2.921-7.985,0.999
	c-2.71-2.068-5.988-3.209-9.41-3.209c-8.555,0-15.471,6.988-15.471,15.471c0,8.486,6.916,15.472,15.471,15.472
	c3.351,0,6.629-1.142,9.34-3.21c2.565-1.852,6.059-1.424,7.983,1.071c1.927,2.496,1.428,6.06-1.069,7.983
	C210.333,66.144,204.7,67.996,198.782,67.996"/>
<path fill="#ED1C24" d="M258.438,37.27V62.22c0,2.923-2.424,5.348-5.346,5.348c-1.568,0-2.995-0.711-3.992-1.708
	c-2.71,1.424-5.633,2.28-8.912,2.28c-10.052,0-18.251-8.199-18.251-18.252c0-10.052,8.199-18.251,18.251-18.251
	c3.137,0,6.062,0.855,8.768,2.282c1-1.285,2.425-1.996,4.137-1.996C256.015,31.922,258.438,34.346,258.438,37.27 M247.104,49.887
	c0-3.849-3.064-6.914-6.915-6.914c-3.852,0-6.916,3.065-6.916,6.914c0,3.85,3.064,6.915,6.916,6.915
	C244.039,56.802,247.104,53.737,247.104,49.887"/>
<path fill="#ED1C24" d="M277.393,41.333c-1.358-0.428-3.351-0.925-3.71,0.643c-0.354,1.426,2.211,2.137,3.282,2.353
	c2.138,0.427,4.206,1.641,5.7,3.279c3.282,3.42,3.995,8.841,2.141,13.119c-1.926,4.42-6.344,7.059-11.051,7.344
	c-2.638,0.141-8.127-0.575-10.337-3.495c-2.779-3.707-0.071-8.914,4.421-8.7c1.782,0.073,3.706,1.427,5.202,1.498
	c2.565,0.216,3.136-2.922,0.714-3.566c-4.492-1.352-7.771-3.134-9.837-7.269c-1.496-3.137-1.142-7.058,0.996-9.912
	c3.424-4.632,9.91-6.203,15.258-4.135c2.851,1.144,5.205,4.065,3.424,7.2C282.31,41.832,280.098,42.26,277.393,41.333"/>
<path fill="#ED1C24" d="M323.081,47.323v14.544c0,3.136-2.565,5.701-5.702,5.701c-3.138,0-5.703-2.565-5.703-5.701V47.323
	c0-2.426-1.997-4.42-4.421-4.42c-2.354,0-4.351,1.995-4.351,4.42v14.544c0,3.136-2.565,5.701-5.702,5.701
	c-3.207,0-5.778-2.565-5.778-5.701V25.861c0-3.207,2.571-5.772,5.778-5.772c3.137,0,5.702,2.565,5.702,5.772v6.203
	c1.427-0.356,2.854-0.569,4.351-0.569C316.024,31.495,323.081,38.553,323.081,47.323"/>
</svg>
