<?xml version="1.0" encoding="utf-8"?>
<!-- Generator: Adobe Illustrator 21.1.0, SVG Export Plug-In . SVG Version: 6.00 Build 0)  -->
<svg version="1.1" id="Layer_1" xmlns="http://www.w3.org/2000/svg" xmlns:xlink="http://www.w3.org/1999/xlink" x="0px" y="0px"
	 viewBox="0 0 500 500" style="enable-background:new 0 0 500 500;" xml:space="preserve">
<style type="text/css">
	.st0{fill:#D1262D;}
	.st1{opacity:0.3;fill:#C1282D;enable-background:new    ;}
	.st2{opacity:0.2;fill:#FFFFFF;enable-background:new    ;}
	.st3{fill:#FFFFFF;}
	.st4{enable-background:new    ;}
</style>
<g>
	<g>
		<path class="st0" d="M250,474C126.3,474,25.7,373.4,25.7,249.7S126.3,25.4,250,25.4S474.3,126,474.3,249.7S373.7,474,250,474z"/>
	</g>
	<g>
		<path class="st1" d="M433.5,120.8c0.8,7.9,1.3,15.9,1.3,24c0,127.1-106.1,233.2-233.2,233.2c-66.1,0-126.4-28.7-169.2-74.1
			C56.7,401.5,145,474,250,474c123.7,0,224.3-100.6,224.3-224.3C474.3,201.7,459.2,157.3,433.5,120.8z"/>
		<path class="st1" d="M467.3,194.2c0,0.4,0,0.7,0,1.1c0,127.1-106.1,233.2-233.2,233.2c-82.9,0-156.7-45.1-198.2-111.7
			C64.6,407.8,149.7,474,250,474c123.7,0,224.3-100.6,224.3-224.3C474.3,230.5,471.9,211.9,467.3,194.2z"/>
		
			<ellipse transform="matrix(0.7353 -0.6778 0.6778 0.7353 -51.8181 140.9617)" class="st2" cx="154.5" cy="136.8" rx="83.3" ry="36.6"/>
	</g>
</g>
<g>
	<path class="st3" d="M200.3,165.8v53.4c0,6.7-8.2,9.6-12.9,5.1c-0.9-0.9-1.7-2.3-2.5-3.4c-1.1-1.7-22.4-32.8-23.7-34.6v33
		c0,4-3.3,7.4-7.4,7.4s-7.3-3.3-7.3-7.4v-53.4c0-4,3.3-7.3,7.3-7.3c2.5,0,4.3,1.2,5.9,3.1c1.6,2,17.1,24.6,25.9,37.5v-33.4
		c0-4,3.2-7.3,7.3-7.3S200.3,161.8,200.3,165.8z"/>
	<path class="st3" d="M217.2,226.5c-4,0-7.3-3.3-7.3-7.3v-53.5c0-4,3.2-7.3,7.3-7.3s7.3,3.3,7.3,7.3v53.5
		C224.4,223.2,221.2,226.5,217.2,226.5z"/>
	<path class="st3" d="M289.8,192.5c0,18.7-15.3,34-34,34h-15.3c-4,0-7.1-3.4-7.1-7.4v-53.3c0-4,3.3-7.4,7.3-7.4h15
		C274.5,158.5,289.8,173.8,289.8,192.5z M275,192.5c0-10.7-8.6-19.3-19.2-19.3h-7.6v38.6h7.6C266.4,211.8,275,203.2,275,192.5z"/>
	<path class="st3" d="M348.2,225.3c-3,1.6-7.7,0.6-9.6-3.8l-3.2-7.3h-28.1l-3.3,7.3c-1.9,4.2-6.4,5.1-9.6,3.8
		c-3.7-1.6-5.3-6-3.7-9.6l23.8-53.2c0.7-1.7,2.2-3.1,3.9-3.9c1.8-0.7,4.1-0.7,6,0c1.7,0.7,3,2.1,3.9,3.9l23.8,53.2
		C353.5,219.3,351.8,223.4,348.2,225.3z M328.7,199.6l-7.4-16.7l-7.4,16.7H328.7z"/>
</g>
<g class="st4">
	<path class="st3" d="M131.7,289c-0.4,10.8-4.7,20.7-12.1,28c-7.5,7.7-17.7,11.9-28.5,11.9c-11.2,0-21.5-4.3-29.2-12.3
		c-7.5-7.9-11.6-18.3-11.6-29.4c0-23,18.6-41.7,41.7-41.7c7,0,13.9,1.8,20,5c4.3,2.4,5.9,7.8,3.5,12.1c-2.3,4.3-7.8,5.9-12,3.5
		c-3.5-1.9-7.5-3-11.5-3c-13.2,0-23.9,10.9-23.9,24.1c0,6.5,2.3,12.6,6.7,17.1c4.2,4.4,10.1,7,16.4,7c10.2,0,18.6-6.7,21.6-16.1
		H92.5c-4.2,0-7.8-3.4-7.8-7.8c0-4.2,3.5-7.8,7.8-7.8h30.8C128.2,279.8,132,284.1,131.7,289z"/>
	<path class="st3" d="M185.8,319.5c0,4.8-4,8.8-8.8,8.8h-27.6c-4.9,0-8.9-4-8.9-8.8V255c0-4.8,4-8.8,8.9-8.8h27.6
		c4.8,0,8.8,4,8.8,8.8c0,5-4,9-8.8,9h-18.7v15.5h17.7c4.3,0,7.8,3.5,7.8,7.8c0,4.3-3.4,7.8-7.8,7.8h-17.7v15.5h18.7
		C181.8,310.5,185.8,314.5,185.8,319.5z"/>
	<path class="st3" d="M259.5,255v64.4c0,8.1-9.9,11.5-15.5,6.1c-1.1-1.1-2.1-2.8-3-4.1c-1.3-2.1-27.1-39.6-28.6-41.8v39.8
		c0,4.9-4,8.9-8.9,8.9s-8.9-4-8.9-8.9V255c0-4.8,4-8.8,8.9-8.8c3,0,5.2,1.4,7.1,3.8c1.9,2.4,20.6,29.7,31.3,45.2V255
		c0-4.8,3.9-8.8,8.8-8.8C255.5,246.2,259.5,250.2,259.5,255z"/>
	<path class="st3" d="M314.2,319.5c0,4.8-4,8.8-8.8,8.8h-27.6c-4.9,0-8.9-4-8.9-8.8V255c0-4.8,4-8.8,8.9-8.8h27.6
		c4.8,0,8.8,4,8.8,8.8c0,5-4,9-8.8,9h-18.7v15.5h17.7c4.3,0,7.8,3.5,7.8,7.8c0,4.3-3.4,7.8-7.8,7.8h-17.7v15.5h18.7
		C310.2,310.5,314.2,314.5,314.2,319.5z"/>
	<path class="st3" d="M363.3,319.6c-10.6,11.9-26.9,11-38,4.1c-4.1-2.5-5-8.2-2.3-12.3c1.4-2.2,4-3.7,6.7-3.9
		c3.2-0.2,5.9,1.8,8.9,2.9c4.1,1.3,8.4,0.9,11.4-2.4c3.5-4,2.4-9.9-2.4-12.3c-4-2.3-12-3.1-17.9-9c-4.4-4.4-7-10.6-6.9-17
		c0.1-8.5,4.8-16.3,12.5-20.6c8.1-4.5,18.6-4.9,26.8,0.1c4.2,2.5,5.7,8.3,3.2,12.2c-2.7,4.2-7.2,5.1-12.8,2.9
		c-6.8-2.8-14,2.3-11.9,7.7c1.8,4.5,10.5,5.8,15,8c8,4,13.2,12.2,14,20.8C370.2,307.6,368.1,314.4,363.3,319.6z"/>
	<path class="st3" d="M386.8,328.3c-4.9,0-8.8-4-8.8-8.8V255c0-4.8,3.9-8.8,8.8-8.8s8.8,4,8.8,8.8v64.5
		C395.6,324.3,391.7,328.3,386.8,328.3z"/>
	<path class="st3" d="M445.2,319.6c-10.6,11.9-26.9,11-38,4.1c-4.1-2.5-5-8.2-2.3-12.3c1.4-2.2,4-3.7,6.7-3.9
		c3.2-0.2,5.9,1.8,8.9,2.9c4.1,1.3,8.4,0.9,11.4-2.4c3.5-4,2.4-9.9-2.4-12.3c-4-2.3-12-3.1-17.9-9c-4.4-4.4-7-10.6-6.9-17
		c0.1-8.5,4.8-16.3,12.5-20.6c8.1-4.5,18.6-4.9,26.8,0.1c4.2,2.5,5.7,8.3,3.2,12.2c-2.7,4.2-7.2,5.1-12.8,2.9
		c-6.8-2.8-14,2.3-11.9,7.7c1.8,4.5,10.5,5.8,15,8c8,4,13.2,12.2,14,20.8C452.1,307.6,450,314.4,445.2,319.6z"/>
</g>
</svg>
