<svg id="Layer_1" xmlns="http://www.w3.org/2000/svg" viewBox="0 0 125.2 67.2">
  <style>
    .st0{fill:#fff}
  </style>
  <path class="st0" d="M82.8 39.1L69.4 10.9h-5.8l3.5-7.5h-7.5l-17 35.7h7.6l12.5-26.4 12.6 26.4z"></path>
  <path d="M81.2 1.1s0 .1 0 0c0 .1 0 0 0 0 0-.1-.1 0-.1 0 0 .1-.1.1-.1.2l-.1.1-.1.1-.1.1c-.1 0-.1 0-.2.1s-.2.2-.3.4c-.1.1-.1 0-.1.1 0 0-.1 0-.1.1-.1.1-.1 0-.2.1l-.2.2c-.1.1-.3.3-.4.3-.1 0-.2.1-.2.2-.1.1-.2.1-.3.2-.2 0-.3.2-.4.3 0 0-.1.1-.1.2-.1 0-.1.1-.2.2l-.3.3c-.2.1-.5.3-.6.5H77c-.1 0-.1 0-.2.1-.2 0-.3.1-.4.1-.2.1-.3.1-.4.2v.1c-.1.1-.1.1-.2.1h-.2l-.1.1h-.1l-.1.1v.2h-.1c-.1 0-.1.1-.2.1s-.2 0-.2-.1c0 .1-.1.2-.3.2-.1 0-.2.1-.2.2-.1.1-.1.1-.3.1-.1 0-.2 0-.2.1h-.1c-.1.1-.2.1-.3.2H73.1v.1h-.2c-.1 0-.1 0-.2.1s-.1.1-.2 0v-.1l-.2.2c.1.1 0 .2-.1.2s-.1.1-.2.1l-.1-.1c0 .2-.2.1-.3.1 0 .1 0 .2-.1.2.1 0 .2-.1.3-.1.1.1.1.1.1 0 .1-.1.2-.2.3-.2v.1l.1-.1h.2v.2s0 .1-.1.1c-.1.1-.2.1-.3.1-.1.5-.2.5-.3.5-.1.1-.3.2-.5.2h-.1-.1-.1c-.1 0-.2 0-.1.1.1 0 .1.1.1.2s-.2.1-.3.1c-.2.1-.4.1-.6 0l-.1.1h-.2v.2c0 .2-.3.3-.4.4-.2.1-.4.1-.5.2-.2.1-.4.1-.6.2 0-.1.1-.2.2-.2s.2-.1.3-.1h-.1-.1c-.1 0-.2 0-.2.1h-.1s-.1 0-.1.1h-.1s0 .1-.1.1h-.1s0 .1-.1.1h-.1c-.1 0-.2 0-.2.1-.1 0-.1.1-.2.2h.1v.2h-.1-.1-.1-.4c-.1 0-.1 0-.1.1-.1.1-.2.1-.4.1-.1-.1-.2-.1-.3-.1-.1.1-.3.1-.4.1-.2.1-.4.1-.5.2-.2.1-.3.3-.5.2h-.1c-.1 0-.2.2-.4 0h-.1c-.1.1-.3 0-.4.1h-.1-.1s-.1 0-.1.1H63h-.5c-.2 0-.4.1-.5.2 0 0 0 .1-.1.1-.1-.1-.1-.1-.2 0-.1 0-.2.1-.2 0-.1-.1-.2-.1-.3 0H61c-.2 0-.5 0-.7.1 0 0-.1 0-.1.1-.1.1-.3.2-.4.1-.2-.1-.3-.1-.5-.1h-.1c-.2-.1-.4 0-.6 0-.2 0-.4.1-.6.1-.2 0-.5 0-.7.1-.3 0-.5.1-.8.1h-3.8c-.3 0-.6-.1-.9-.1-.2 0-.5-.1-.7-.1-.3-.1-.6-.1-.9-.2-.3 0-.5-.1-.7-.2l-.6-.3c-.3-.1-.5-.1-.8-.3-.1-.1-.2-.1-.3-.2l-1.5-.9c-.2-.2-.5-.4-.8-.4-.1 0-.2 0-.4.1-.1 0-.2 0-.3.1-.1.1-.2.4-.2.5 0 .1-.1.2-.1.2v.5c0 .2-.1.4 0 .5 0 .1.1.2.1.4v.3c0 .1.1.2.2.3.1.1.2.1.2.2.1.2.2.4.4.5 0 0 0 .1.1.1v.1h-.1c0 .1 0 .2.1.3 0 .1.1.2.1.2.1-.1.2 0 .3.1l.1.1v-.1c0 .1 0 .2.1.4.1.1.1.2.2.3v.1s0-.1-.1-.1-.1-.1-.2-.1c-.1.1-.1.1 0 .2.2.2.3.4.5.5.1.1.2.2.2.3 0 .1.1.1.1.2l.1.1s0 .1.1.1c.1.1.1.2.3.2l.2.2c0 .1.1.1.2.2.1 0 .1.1.2.1s.2.1.3.1h.1c.1 0 .1.1.2.1l.6.3c.1.1.2.1.3.2.1.1.2.2.3.2.1 0 .3.1.4.1 0 .1.1.1.2.1h.1c.1 0 .1 0 .1.1.2.1.3.1.5.2.2 0 .4.1.5.2.1 0 .1 0 .2.1.2.1.4.1.6.1.2.1.4.2.6.2H54c.3 0 .5.1.8.1.1 0 .2.1.3 0h.3c.4 0 .7.2 1.1.1h1.6c.2 0 .4 0 .6-.1.2-.1.5 0 .7 0 .3 0 .6-.1.9-.1 0 0 .1-.1.1 0 .1.1.3 0 .4 0 .3 0 .5-.1.8-.1h.2c.2-.1.4-.2.6-.2.1 0 .1 0 .2-.1.1 0 .3-.1.4-.1h.1c.3 0 .5-.1.8-.1.1 0 .2-.1.3-.1.2.1.4-.1.6-.1.2 0 .3-.1.5-.1h.6s.1 0 .1-.1h.2c.1 0 .2-.1.3-.1.2-.1.5-.1.7-.2.1 0 .1 0 .2-.1.1 0 .2-.2.3-.3v.1h.1s0-.1.1-.1h.5c.1 0 .2 0 .3-.1h.1c.1 0 .1 0 .1-.1l.1-.1c.2-.1.5-.1.7-.2.1 0 .3-.1.3-.2.1-.1.1-.1.1-.2 0 0 0 .1.1.1s.1 0 .1-.1h.1l.1-.1c.1 0 .2.1.3 0 .1 0 .2-.1.3-.1.1 0 .1-.2.2-.3v.1c0-.1.1-.1.1-.2s.2 0 .3-.1c.1-.1.2-.1.2-.2.1 0 .2-.1.3-.1.1-.1.1-.3.2-.2.1 0 .2 0 .2-.1.1-.2.3-.1.4-.2.1-.1.2-.1.2-.2 0 0 0-.1.1-.1.1-.1.1.1.1.1.1 0 .2-.1.3-.2h.1s.1 0 .1-.1l.1-.1c.1-.1.2-.3.4-.3.1 0 .3-.3.4-.2 0-.2 0-.3.2-.2 0-.1.2-.1.2-.2.1-.2.3-.2.3-.3 0-.1 0-.1.1-.1l.3-.3c.1-.2.1-.2.2-.1 0-.1 0-.1.1-.2l.3-.3c.1 0 .1 0 .2-.1 0 0 0-.1.1-.1l.1-.1V11c0-.1.1-.1.1-.2s.1-.1.1-.2c.1 0 .1-.1.2-.1s.2 0 .2-.1.1-.2.2-.2.1-.1.1-.1c0-.1.1-.2.1-.3 0-.1.1-.1.1-.1v.1c0-.1.1-.1.2-.2l.1-.1v-.1h.1v-.1c.1-.1.1-.1.1-.2.1 0 .1-.1.1-.1 0-.1 0-.1.1-.2s0-.2-.1-.3c-.1.1-.2.3-.3.4 0 0-.1.1-.1.2s0 .1-.1.1-.1.1-.2.1l-.1.1v.1s0 .1 0 0v-.1.1c0 .1-.1.1-.1.1-.1 0 0-.1 0-.2s.1-.2.1-.2c0-.1.1-.1.1-.1h.1c0-.1.1-.1.1-.2 0 0 0-.1.1-.1l.1-.1c.1-.1.2-.1.2-.2l.1-.1v-.1c0-.1.2-.1.1-.2V8v0l.2-.2v-.1-.1-.2-.1-.2l-.1.1s0 .1-.1.1v.1l-.2.2s0 .1-.1.1l-.1.1c0 .1-.1.1-.2.2v.1l-.1.1s-.1 0-.1.1l.1-.1s.1 0 .1-.1V8l.1-.1v-.1l.1-.1c0-.1 0-.1.1-.2 0-.1.1-.2.2-.3.1-.2.3-.3.4-.5 0-.1.1-.2.2-.1v-.1s0-.1.1-.1h.1v-.3s0-.1.1-.1c.1-.1.1-.2.1-.3.4-.8.4-.8.3-.7 0-.1 0-.1-.1-.1-.1.2-.3.3-.4.5 0 0 0 .1-.1.1-.1.1-.2.2-.2.3l-.4.4h-.1l-.1.1s-.3.3-.4.3c0-.1.1-.1.1-.1.1-.1.1-.1.2-.1l.2-.2s0-.1.1-.1c.1-.2.3-.3.4-.5l.1-.1c-.1 0-.1.1-.1 0 .2-.3.2-.3.3-.4 0-.1.1-.2.2-.3.1-.1.2-.2.2-.3.1-.3.1-.4.2-.5h.1c0 .2-.2.3-.2.4.1 0 .4-.4.4-.6-.1 0-.1.1-.2.1v-.1c0-.1.1-.1.1-.2s.1-.1.1-.2v-.1h-.1c-.1.1-.3.1-.4.2 0 .1-.2.2-.3.3l-.3.3s-.1 0-.1.1c-.1 0-.1.1-.1.2s-.1.1-.1.1l-.1.1h-.1c-.1 0 0 .1-.1.1l-.1.2c0-.1.1-.2.1-.2-.1.1-.2.2-.2.3-.2 0-.3.1-.4.1-.1.1-.2.1-.3.2l-.2.2c-.1.1-.2.2-.3.2-.1.1-.2.1-.3.2l.1-.1.1-.1.2-.2c.1 0 .1-.1.1-.1s0-.1.1 0h.1l.3-.3s0 .1-.1.1v.1s.1 0 .1-.1 0-.1.1-.1V5h-.1c0-.1.1-.1.2-.2s.1-.2.2-.2c0 0 0-.1.1-.1h.1c.1 0 .1 0 .1-.1.1-.1.2-.2.3-.2l.1-.1h-.2s0-.1.1-.1.1-.1.1-.1 0-.1.1-.1v.1c.1.1.1 0 .1 0 0-.1.1-.1.1-.1-.1-.1.1-.2.1-.3l.1-.1c.5-.2.5-.3.6-.4-.1-.1-.1.1-.2 0 0-.1.1-.1.1-.2 0 .2 0 .2.1.2s.1-.1.2-.1c0 0 0-.1-.1-.1v-.2c0-.1 0 0 .1-.1.1 0 .1-.1.1-.1 0-.1.1-.1.1-.1 0-.1.1 0 .2-.1 0 0 .1-.1.1-.2s-.2.1-.2.1l-.1.1-.2.2v-.2l.1-.1s0-.1.1-.1c.1-.1.2-.2.3-.2-.1-.1 0-.2.1-.2l.1-.1c.1 0 .1-.1.1-.1.1-.2.1-.2.1-.3z" fill="#ef384b"></path>
  <g>
    <path class="st0" d="M64 65.7V47.1h9c6.3 0 9.8 2.5 9.8 7.8v10.7h-4V55c0-3.8-1.8-4.8-5.8-4.8h-5.1v15.5H64zM53.3 47.2c-6.3 0-10.7 3.9-10.7 9.3 0 5.3 4.4 9.3 10.7 9.3 2.2 0 3.4-.8 3.8-1.3v1.3H61V47.2h-7.7zm0 15.5c-4.1 0-6.7-2.5-6.7-6.2 0-3.8 2.8-6.2 6.8-6.2h3.8v10.3c-.5.9-1.5 2.1-3.9 2.1zM116.4 47.2c-6.3 0-10.7 3.9-10.7 9.3 0 5.3 4.4 9.3 10.7 9.3 2.2 0 3.4-.8 3.8-1.3v1.3h3.9V47.2h-7.7zm0 15.5c-4.1 0-6.7-2.5-6.7-6.2 0-3.8 2.8-6.2 6.8-6.2h3.8v10.3c-.5.9-1.5 2.1-3.9 2.1zM30.6 47.1h-4.7V42H22v23.6h3.9V50.2h4.7c4 0 5.8 1.1 5.8 4.8v10.7h4V55c-.1-5.4-3.5-7.9-9.8-7.9zM99.6 42.1v5.1h-3.8c-6.3 0-10.7 3.9-10.7 9.3 0 5.3 4.4 9.3 10.7 9.3 2.2 0 3.4-.8 3.8-1.3v1.3h3.9V42.1h-3.9zm0 18.4c-.4 1-1.4 2.2-3.8 2.2-4.1 0-6.7-2.5-6.7-6.2 0-3.8 2.8-6.2 6.8-6.2h3.8v10.2zM15.2 55.8c-1.2-.5-2.5-.8-3.7-1.2-2.5-.7-4.9-1.4-4.9-2.6 0-1.3 1.9-2.3 4.5-2.3 1.8 0 3.2.4 4.8 1.3l.5.3 2.8-2.1-1-.6c-.8-.5-3.2-1.8-7.2-1.8-4.8 0-8.3 2.2-8.3 5.3 0 2.3 2.2 3.5 4.1 4.3 1.1.5 2.4.8 3.6 1.2 2.8.8 5.4 1.5 5.4 3.2 0 1.5-2.4 2.5-4.6 2.5-3.4 0-5.3-1.2-6.6-2.3l-.4-.4-3.1 1.8.8.6c2.4 2.1 5.5 3.1 9.3 3.1 4.9 0 8.5-2.3 8.5-5.4 0-2.1-1.5-3.7-4.5-4.9z"></path>
  </g>
</svg>