<?xml version="1.0" encoding="utf-8"?>
<!-- Generator: Adobe Illustrator 16.0.4, SVG Export Plug-In . SVG Version: 6.00 Build 0)  -->
<!DOCTYPE svg PUBLIC "-//W3C//DTD SVG 1.1//EN" "http://www.w3.org/Graphics/SVG/1.1/DTD/svg11.dtd">
<svg version="1.1" id="Layer_1" xmlns="http://www.w3.org/2000/svg" xmlns:xlink="http://www.w3.org/1999/xlink" x="0px" y="0px"
	 width="155px" height="155px" viewBox="0 0 155 155" enable-background="new 0 0 155 155" xml:space="preserve">
<g>
	<circle fill="#EC1C24" cx="77.5" cy="77.5" r="76.5"/>
	<g>
		<g>
			<path fill="#FFFFFF" d="M77.375,39.537c-7.521,0-13.617,6.097-13.617,13.618s6.095,13.617,13.617,13.617
				c7.52,0,13.616-6.096,13.616-13.617S84.895,39.537,77.375,39.537z M101.761,51.298h-5.442c-1.025,0-1.856,0.832-1.856,1.856
				c0,1.026,0.832,1.858,1.856,1.858h5.442c1.025,0,1.858-0.832,1.858-1.858C103.619,52.13,102.786,51.298,101.761,51.298z
				 M60.537,53.155c0-1.024-0.832-1.856-1.856-1.856h-5.443c-1.026,0-1.858,0.832-1.858,1.856c0,1.026,0.832,1.858,1.858,1.858
				h5.443C59.707,55.013,60.537,54.181,60.537,53.155z M77.375,36.604c1.025,0,1.856-0.831,1.856-1.858v-5.441
				c0-1.026-0.831-1.857-1.856-1.857c-1.025,0-1.858,0.831-1.858,1.857v5.441C75.516,35.773,76.349,36.604,77.375,36.604z
				 M77.375,70.135c-1.025,0-1.858,0.83-1.858,1.857v5.442c0,1.024,0.833,1.857,1.858,1.857c1.025,0,1.856-0.833,1.856-1.857v-5.442
				C79.23,70.965,78.399,70.135,77.375,70.135z M92.272,65.211c-0.726-0.723-1.901-0.723-2.628,0c-0.724,0.726-0.724,1.902,0,2.627
				l3.849,3.848c0.724,0.724,1.9,0.724,2.627,0c0.724-0.725,0.724-1.9,0-2.625L92.272,65.211z M63.031,41.224
				c0.725,0.726,1.901,0.726,2.625,0c0.726-0.726,0.726-1.902,0-2.627l-3.847-3.846c-0.724-0.726-1.902-0.726-2.626,0
				c-0.725,0.723-0.725,1.901,0,2.625L63.031,41.224z M91.891,41.425l3.85-3.847c0.725-0.724,0.725-1.9,0-2.627
				c-0.726-0.723-1.902-0.723-2.628,0l-3.848,3.848c-0.726,0.725-0.726,1.901,0,2.626C89.99,42.151,91.166,42.151,91.891,41.425z
				 M62.93,65.136l-3.848,3.848c-0.725,0.725-0.725,1.903,0,2.626c0.725,0.724,1.902,0.724,2.627,0l3.846-3.847
				c0.726-0.727,0.726-1.901,0-2.626C64.831,64.409,63.655,64.409,62.93,65.136z"/>
		</g>
	</g>
	<g>
		<path fill="#FFFFFF" d="M56.619,111.347c0,3.656-2.975,6.631-6.63,6.631h-2.974c-0.771,0-1.38-0.663-1.38-1.434v-10.392
			c0-0.788,0.646-1.434,1.432-1.434h2.922C53.645,104.718,56.619,107.692,56.619,111.347z M53.734,111.347
			c0-2.077-1.685-3.762-3.745-3.762h-1.487v7.524h1.487C52.049,115.111,53.734,113.427,53.734,111.347z"/>
		<path fill="#FFFFFF" d="M68.962,117.852c-0.592,0.304-1.506,0.107-1.881-0.735l-0.628-1.415h-5.483l-0.646,1.415
			c-0.375,0.824-1.253,1.005-1.88,0.735c-0.717-0.306-1.039-1.164-0.717-1.88l4.64-10.375c0.144-0.342,0.431-0.608,0.753-0.753
			c0.359-0.143,0.805-0.143,1.166,0c0.34,0.145,0.591,0.411,0.753,0.753l4.641,10.375C69.999,116.688,69.658,117.494,68.962,117.852
			z M65.162,112.852l-1.45-3.262l-1.453,3.262H65.162z"/>
		<path fill="#FFFFFF" d="M78.327,106.976l-3.064,4.39v5.196c0,0.769-0.645,1.416-1.433,1.416c-0.788,0-1.417-0.646-1.417-1.416
			v-5.196l-3.062-4.39c-0.467-0.645-0.306-1.523,0.34-1.989c0.645-0.447,1.522-0.306,1.97,0.341l2.168,3.101l2.167-3.101
			c0.447-0.646,1.327-0.788,1.989-0.341C78.632,105.452,78.776,106.331,78.327,106.976z"/>
		<path fill="#FFFFFF" d="M89,118.085c-2.435,0-4.425-1.99-4.425-4.425v-7.526c0-0.77,0.646-1.416,1.435-1.416
			c0.77,0,1.415,0.645,1.415,1.416v7.526c0,0.859,0.699,1.559,1.577,1.559c0.879,0,1.577-0.699,1.577-1.559v-7.526
			c0-0.77,0.646-1.416,1.417-1.416c0.788,0,1.432,0.645,1.432,1.416v7.526C93.427,116.097,91.438,118.085,89,118.085z"/>
		<path fill="#FFFFFF" d="M101.361,116.579c-1.721,1.918-4.354,1.775-6.146,0.663c-0.663-0.412-0.807-1.326-0.376-1.989
			c0.232-0.357,0.644-0.591,1.074-0.627c0.518-0.036,0.95,0.287,1.434,0.466c0.663,0.215,1.361,0.145,1.845-0.393
			c0.573-0.646,0.395-1.595-0.394-1.99c-0.646-0.377-1.935-0.502-2.885-1.451c-0.718-0.718-1.13-1.72-1.11-2.742
			c0.019-1.378,0.771-2.633,2.024-3.331c1.309-0.735,3.011-0.789,4.337,0.018c0.681,0.412,0.914,1.344,0.519,1.97
			c-0.43,0.682-1.164,0.825-2.061,0.468c-1.093-0.448-2.257,0.376-1.917,1.236c0.285,0.735,1.703,0.932,2.419,1.289
			c1.291,0.646,2.132,1.972,2.258,3.368C102.472,114.626,102.132,115.736,101.361,116.579z"/>
		<path fill="#FFFFFF" d="M111.051,116.562c0,0.769-0.645,1.416-1.416,1.416h-4.461c-0.788,0-1.434-0.646-1.434-1.416v-10.428
			c0-0.77,0.646-1.416,1.434-1.416h4.461c0.771,0,1.416,0.645,1.416,1.416c0,0.807-0.645,1.451-1.416,1.451h-3.026v2.508h2.866
			c0.699,0,1.254,0.573,1.254,1.255c0,0.699-0.555,1.256-1.254,1.256h-2.866v2.508h3.026
			C110.406,115.111,111.051,115.755,111.051,116.562z"/>
	</g>
</g>
</svg>
