<?xml version="1.0" encoding="utf-8"?>
<!-- Generator: Adobe Illustrator 16.0.4, SVG Export Plug-In . SVG Version: 6.00 Build 0)  -->
<!DOCTYPE svg PUBLIC "-//W3C//DTD SVG 1.1//EN" "http://www.w3.org/Graphics/SVG/1.1/DTD/svg11.dtd">
<svg version="1.1" id="Layer_1" xmlns="http://www.w3.org/2000/svg" xmlns:xlink="http://www.w3.org/1999/xlink" x="0px" y="0px"
	 width="155px" height="155px" viewBox="0 0 155 155" enable-background="new 0 0 155 155" xml:space="preserve">
<g>
	<g>
		<g>
			<circle fill="#EC1C24" cx="77.5" cy="77.5" r="76.5"/>
		</g>
	</g>
	<g>
		<path fill="#FFFFFF" d="M102.997,52.52l-1.937,0.02l-0.076-2.812c-0.086-3.229-0.825-6.354-2.196-9.299
			c-2.604-5.587-7.231-9.879-13.033-12.083c-5.802-2.203-12.107-2.062-17.753,0.395c-1.315,0.574-2.57,1.261-3.749,2.05
			c-0.631,0.293-1.146,0.83-1.393,1.537c-0.485,1.393,0.248,2.915,1.64,3.4c0.834,0.291,1.711,0.141,2.389-0.32l0.004,0.009
			c1.08-0.759,2.245-1.399,3.481-1.916c4.123-1.719,8.737-1.855,12.995-0.384c4.257,1.471,7.802,4.43,9.979,8.329
			c1.411,2.523,2.19,5.259,2.317,8.131l0.13,3.013l-2.045,0.02c-1.645,0.016-2.307,1.188-1.471,2.604l4.701,7.964
			c0.836,1.417,2.182,1.402,2.992-0.029l4.545-8.054C105.326,53.662,104.643,52.503,102.997,52.52z"/>
		<path fill="#FFFFFF" d="M89.865,65.566c-0.705-0.246-1.443-0.178-2.062,0.13l-0.004-0.006c-0.021,0.014-0.046,0.027-0.068,0.044
			c-0.148,0.08-0.289,0.174-0.422,0.281c-0.941,0.616-1.938,1.152-2.992,1.595c-4.123,1.725-8.738,1.864-12.997,0.396
			c-4.262-1.47-7.809-4.426-9.991-8.328c-1.411-2.526-2.191-5.265-2.317-8.139l-0.134-3.091l2.42-0.119
			c1.642-0.08,2.256-1.278,1.366-2.661l-5.012-7.771c-0.895-1.383-2.237-1.316-2.989,0.148L50.44,46.27
			c-0.753,1.463-0.022,2.594,1.62,2.514l1.556-0.077l0.074,2.683c0.087,3.223,0.825,6.349,2.193,9.289
			c2.604,5.593,7.234,9.888,13.037,12.092c5.807,2.204,12.113,2.06,17.764-0.401c1.258-0.549,2.457-1.204,3.594-1.951
			c0.554-0.308,1.004-0.81,1.229-1.454C91.992,67.573,91.259,66.052,89.865,65.566z"/>
		<path fill="#FFFFFF" d="M91.923,42.504c-0.478-0.72-1.446-0.917-2.166-0.44l-11.104,7.359c-0.099-0.099-0.202-0.194-0.32-0.278
			l-5.413-3.821c-1.128-0.794-2.689-0.525-3.485,0.602c-0.795,1.129-0.527,2.688,0.602,3.484l5.413,3.82
			c0.842,0.593,1.925,0.593,2.752,0.085c0.204-0.036,0.405-0.113,0.59-0.235l12.693-8.412C92.204,44.192,92.4,43.223,91.923,42.504z
			"/>
	</g>
	<g>
		<path fill="#FFFFFF" d="M64.985,103.169c0,0.688-0.546,1.235-1.235,1.235h-2.825v3.902c0,0.76-0.636,1.396-1.432,1.396
			c-0.759,0-1.395-0.636-1.395-1.396V98.027c0-0.758,0.636-1.395,1.395-1.395h4.415c0.76,0,1.396,0.637,1.396,1.395
			c0,0.797-0.636,1.433-1.396,1.433h-2.983v2.472h2.825C64.439,101.932,64.985,102.496,64.985,103.169z"/>
		<path fill="#FFFFFF" d="M72.179,109.702h-4.415c-0.759,0-1.395-0.636-1.395-1.412V98.045c0-0.775,0.636-1.411,1.395-1.411
			c0.796,0,1.431,0.636,1.431,1.411v8.832h2.984c0.778,0,1.414,0.637,1.414,1.413S72.957,109.702,72.179,109.702z"/>
		<path fill="#FFFFFF" d="M81.915,108.309c0,0.76-0.636,1.395-1.396,1.395h-4.397c-0.776,0-1.412-0.635-1.412-1.395V98.027
			c0-0.758,0.636-1.395,1.412-1.395h4.397c0.76,0,1.396,0.637,1.396,1.395c0,0.797-0.636,1.433-1.396,1.433h-2.983v2.472h2.825
			c0.689,0,1.236,0.564,1.236,1.237c0,0.688-0.547,1.235-1.236,1.235h-2.825v2.473h2.983
			C81.279,106.877,81.915,107.514,81.915,108.309z"/>
		<path fill="#FFFFFF" d="M92.693,107.514c0.459,0.618,0.265,1.448-0.338,1.926c-0.545,0.44-1.502,0.334-1.959-0.338l-2.438-3.479
			l-2.435,3.479c-0.496,0.707-1.396,0.812-1.963,0.338c-0.582-0.478-0.775-1.308-0.317-1.926l3.003-4.328l-3.003-4.326
			c-0.458-0.635-0.3-1.502,0.336-1.961c0.618-0.439,1.502-0.301,1.944,0.336l2.435,3.496l2.438-3.496
			c0.44-0.637,1.324-0.775,1.942-0.336c0.636,0.459,0.812,1.326,0.354,1.961l-3.004,4.326L92.693,107.514z"/>
		<path fill="#FFFFFF" d="M95.506,109.702c-0.777,0-1.395-0.636-1.395-1.396V98.027c0-0.758,0.615-1.395,1.395-1.395
			c0.776,0,1.396,0.637,1.396,1.395v10.279C96.9,109.066,96.282,109.702,95.506,109.702z"/>
		<path fill="#FFFFFF" d="M65.649,128.336c-1.695,1.889-4.293,1.747-6.058,0.652c-0.653-0.406-0.794-1.307-0.371-1.961
			c0.229-0.353,0.637-0.582,1.06-0.617c0.512-0.035,0.937,0.281,1.413,0.461c0.653,0.211,1.343,0.14,1.819-0.391
			c0.565-0.635,0.389-1.571-0.389-1.961c-0.637-0.371-1.907-0.494-2.844-1.43c-0.705-0.708-1.111-1.695-1.095-2.703
			c0.017-1.357,0.76-2.598,1.996-3.283c1.289-0.726,2.966-0.778,4.273,0.016c0.671,0.406,0.901,1.326,0.513,1.943
			c-0.424,0.672-1.147,0.812-2.031,0.459c-1.078-0.439-2.226,0.373-1.891,1.219c0.283,0.726,1.679,0.92,2.385,1.271
			c1.271,0.636,2.103,1.943,2.226,3.32C66.744,126.41,66.409,127.506,65.649,128.336z"/>
		<path fill="#FFFFFF" d="M75.95,118.055c0,0.779-0.635,1.416-1.43,1.416h-1.359v8.828c0,0.779-0.636,1.414-1.395,1.414
			c-0.778,0-1.414-0.635-1.414-1.414v-8.828h-1.36c-0.794,0-1.43-0.637-1.43-1.416c0-0.775,0.636-1.41,1.43-1.41h5.528
			C75.315,116.645,75.95,117.279,75.95,118.055z"/>
		<path fill="#FFFFFF" d="M86.623,129.589c-0.585,0.302-1.482,0.106-1.855-0.723l-0.617-1.396h-5.404l-0.637,1.396
			c-0.371,0.812-1.235,0.987-1.854,0.723c-0.707-0.3-1.024-1.146-0.707-1.853l4.574-10.229c0.143-0.336,0.425-0.601,0.743-0.74
			c0.353-0.143,0.796-0.143,1.147,0c0.336,0.141,0.582,0.404,0.741,0.74l4.574,10.229C87.646,128.441,87.312,129.236,86.623,129.589
			z M82.878,124.662l-1.431-3.215l-1.43,3.215H82.878z"/>
		<path fill="#FFFFFF" d="M95.866,118.869l-3.021,4.326v5.123c0,0.76-0.635,1.395-1.412,1.395c-0.776,0-1.396-0.635-1.396-1.395
			v-5.123l-3.021-4.326c-0.459-0.637-0.302-1.501,0.336-1.961c0.637-0.44,1.5-0.301,1.941,0.335l2.139,3.056l2.137-3.056
			c0.441-0.636,1.306-0.775,1.959-0.335C96.167,117.368,96.311,118.232,95.866,118.869z"/>
	</g>
</g>
</svg>
