<?xml version="1.0" encoding="utf-8"?>
<!-- Generator: Adobe Illustrator 16.0.4, SVG Export Plug-In . SVG Version: 6.00 Build 0)  -->
<!DOCTYPE svg PUBLIC "-//W3C//DTD SVG 1.1//EN" "http://www.w3.org/Graphics/SVG/1.1/DTD/svg11.dtd">
<svg version="1.1" id="Layer_1" xmlns="http://www.w3.org/2000/svg" xmlns:xlink="http://www.w3.org/1999/xlink" x="0px" y="0px"
	 width="155px" height="155px" viewBox="0 0 155 155" enable-background="new 0 0 155 155" xml:space="preserve">
<g>
	<circle fill="#EC1C24" cx="77.5" cy="77.5" r="76.5"/>
	<g>
		<g>
			<path fill="#FFFFFF" d="M77.501,51.095c-5.287-0.001-10.578,2.017-14.613,6.052c-1.094,1.093-1.094,2.868,0,3.961
				c1.093,1.094,2.868,1.094,3.961,0.001c2.942-2.941,6.797-4.412,10.651-4.414c3.854,0,7.71,1.471,10.65,4.413
				c1.093,1.092,2.867,1.094,3.962,0c1.096-1.095,1.096-2.869,0.001-3.962C88.081,53.112,82.786,51.095,77.501,51.095z
				 M77.502,39.628c-8.226,0-16.451,3.138-22.723,9.41c-1.093,1.093-1.094,2.867,0,3.962c1.094,1.093,2.868,1.093,3.963,0
				c5.178-5.178,11.968-7.771,18.758-7.768c6.788-0.002,13.58,2.589,18.76,7.768c1.092,1.093,2.867,1.093,3.961-0.001
				c1.094-1.093,1.092-2.868,0-3.961C93.948,42.766,85.724,39.63,77.502,39.628z M108.329,40.929
				C99.818,32.418,88.658,28.163,77.5,28.163c-11.158,0-22.316,4.256-30.828,12.767c-1.092,1.095-1.094,2.868-0.001,3.962
				c1.094,1.094,2.869,1.093,3.962,0c7.419-7.418,17.143-11.129,26.867-11.129c9.723,0,19.448,3.711,26.866,11.129
				c1.095,1.093,2.869,1.091,3.963-0.003C109.424,43.796,109.423,42.023,108.329,40.929z M68.243,69.863
				c0.645,0,1.185-0.539,1.185-1.217c0-0.645-0.54-1.186-1.185-1.186h-3.756c-0.644,0-1.186,0.541-1.186,1.186v8.743
				c0,0.645,0.542,1.186,1.186,1.186c0.677,0,1.216-0.541,1.216-1.186V74.07h2.402c0.588,0,1.051-0.467,1.051-1.049
				c0-0.573-0.464-1.053-1.051-1.053h-2.401v-2.104L68.243,69.863L68.243,69.863z M75.5,73.933c1.083-0.569,1.802-1.71,1.802-3.033
				c0-1.892-1.531-3.439-3.438-3.439H71.52c-0.645,0-1.185,0.541-1.185,1.201v8.712c0,0.661,0.541,1.202,1.185,1.202
				c0.677,0,1.218-0.541,1.218-1.202v-3.019h0.225l2.133,3.635c0.376,0.631,1.112,0.721,1.638,0.406
				c0.569-0.346,0.765-1.051,0.435-1.638L75.5,73.933z M73.863,71.951h-1.126v-2.088h1.126c0.586,0,1.05,0.466,1.05,1.037
				C74.915,71.501,74.449,71.951,73.863,71.951z M83.18,69.863c0.645,0,1.185-0.539,1.185-1.217c0-0.645-0.54-1.186-1.185-1.186
				h-3.74c-0.66,0-1.203,0.541-1.203,1.186v8.743c0,0.645,0.543,1.186,1.203,1.186h3.74c0.645,0,1.185-0.541,1.185-1.186
				c0-0.677-0.54-1.216-1.185-1.216h-2.539V74.07h2.403c0.585,0,1.051-0.467,1.051-1.049c0-0.573-0.467-1.053-1.051-1.053h-2.403
				v-2.104L83.18,69.863L83.18,69.863z M90.512,69.863c0.645,0,1.187-0.539,1.187-1.217c0-0.645-0.542-1.186-1.187-1.186h-3.738
				c-0.661,0-1.203,0.541-1.203,1.186v8.743c0,0.645,0.541,1.186,1.203,1.186h3.738c0.645,0,1.187-0.541,1.187-1.186
				c0-0.677-0.542-1.216-1.187-1.216h-2.536V74.07h2.402c0.586,0,1.052-0.467,1.052-1.049c0-0.573-0.467-1.053-1.052-1.053h-2.402
				v-2.104L90.512,69.863L90.512,69.863z"/>
		</g>
	</g>
	<g>
		<path fill="#FFFFFF" d="M74.599,106.637l-2.867,10.229c-0.269,0.968-1.2,1.255-1.881,1.058c-0.68-0.196-1.002-0.844-1.182-1.487
			c-0.054-0.216-0.752-2.885-1.416-5.375c-0.662,2.49-1.361,5.161-1.417,5.375c-0.161,0.644-0.465,1.307-1.164,1.487
			c-0.68,0.18-1.595-0.055-1.881-1.058l-2.866-10.229c-0.216-0.807,0.25-1.648,1.057-1.864c0.807-0.233,1.63,0.232,1.864,1.039
			l1.666,5.912l1.542-5.821c0.143-0.556,0.664-0.933,1.2-0.933c0.555,0,1.057,0.377,1.218,0.933l1.541,5.821l1.648-5.912
			c0.233-0.806,1.076-1.272,1.882-1.039C74.348,104.988,74.832,105.829,74.599,106.637z"/>
		<path fill="#FFFFFF" d="M78.033,117.978c-0.788,0-1.416-0.645-1.416-1.416v-10.427c0-0.771,0.628-1.416,1.416-1.416
			c0.788,0,1.416,0.644,1.416,1.416v10.427C79.449,117.333,78.821,117.978,78.033,117.978z"/>
		<path fill="#FFFFFF" d="M88.854,111.348c0,0.699-0.557,1.254-1.254,1.254h-2.866v3.96c0,0.77-0.645,1.416-1.452,1.416
			c-0.77,0-1.415-0.645-1.415-1.416v-10.427c0-0.771,0.645-1.416,1.415-1.416h4.48c0.769,0,1.416,0.644,1.416,1.416
			c0,0.806-0.646,1.45-1.416,1.45h-3.028v2.509h2.866C88.298,110.094,88.854,110.666,88.854,111.348z"/>
		<path fill="#FFFFFF" d="M92.56,117.978c-0.788,0-1.416-0.645-1.416-1.416v-10.427c0-0.771,0.628-1.416,1.416-1.416
			c0.789,0,1.416,0.644,1.416,1.416v10.427C93.976,117.333,93.349,117.978,92.56,117.978z"/>
	</g>
</g>
</svg>
