<?xml version="1.0" encoding="utf-8"?>
<!-- Generator: Adobe Illustrator 16.0.4, SVG Export Plug-In . SVG Version: 6.00 Build 0)  -->
<!DOCTYPE svg PUBLIC "-//W3C//DTD SVG 1.1//EN" "http://www.w3.org/Graphics/SVG/1.1/DTD/svg11.dtd">
<svg version="1.1" id="Layer_1" xmlns="http://www.w3.org/2000/svg" xmlns:xlink="http://www.w3.org/1999/xlink" x="0px" y="0px"
	 width="155px" height="155px" viewBox="0 0 155 155" enable-background="new 0 0 155 155" xml:space="preserve">
<g>
	<circle fill="#EC1C24" cx="77.5" cy="77.5" r="76.5"/>
	<g>
		<path fill="#FFFFFF" d="M38.257,119.399h-4.479c-0.771,0-1.417-0.646-1.417-1.434v-10.393c0-0.788,0.646-1.432,1.417-1.432
			c0.805,0,1.451,0.644,1.451,1.432v8.96h3.029c0.788,0,1.433,0.644,1.433,1.433C39.69,118.754,39.045,119.399,38.257,119.399z"/>
		<path fill="#FFFFFF" d="M53.127,112.77c0,3.726-3.01,6.736-6.737,6.736c-3.708,0-6.737-3.011-6.737-6.736
			c0-3.727,3.028-6.736,6.737-6.736C50.117,106.033,53.127,109.043,53.127,112.77z M42.519,112.77c0,2.15,1.704,3.888,3.853,3.888
			c2.115,0,3.888-1.773,3.888-3.888c0-2.115-1.774-3.888-3.888-3.888C44.222,108.882,42.519,110.62,42.519,112.77z"/>
		<path fill="#FFFFFF" d="M64.947,107.556v10.41c0,1.307-1.594,1.863-2.508,0.985c-0.179-0.18-0.341-0.448-0.484-0.664
			c-0.215-0.339-4.372-6.395-4.624-6.754v6.433c0,0.788-0.644,1.434-1.433,1.434c-0.788,0-1.433-0.646-1.433-1.434v-10.41
			c0-0.771,0.645-1.416,1.433-1.416c0.483,0,0.843,0.233,1.147,0.608c0.304,0.395,3.333,4.802,5.052,7.312v-6.505
			c0-0.771,0.627-1.415,1.416-1.415C64.303,106.142,64.947,106.785,64.947,107.556z"/>
		<path fill="#FFFFFF" d="M79.349,113.057c-0.07,1.739-0.752,3.351-1.952,4.533c-1.218,1.237-2.866,1.918-4.605,1.918
			c-1.81,0-3.476-0.698-4.712-1.99c-1.218-1.272-1.881-2.956-1.881-4.748c0-3.709,3.012-6.736,6.737-6.736
			c1.129,0,2.242,0.286,3.227,0.804c0.698,0.396,0.948,1.256,0.573,1.954c-0.378,0.699-1.254,0.949-1.937,0.573
			c-0.572-0.304-1.217-0.483-1.863-0.483c-2.132,0-3.87,1.754-3.87,3.887c0,1.058,0.378,2.043,1.075,2.759
			c0.681,0.718,1.631,1.131,2.653,1.131c1.648,0,3.01-1.075,3.494-2.598h-3.279c-0.68,0-1.254-0.556-1.254-1.256
			c0-0.679,0.573-1.254,1.254-1.254h4.982C78.776,111.57,79.403,112.25,79.349,113.057z"/>
		<path fill="#FFFFFF" d="M92.208,118.002c-1.72,1.916-4.354,1.773-6.146,0.662c-0.663-0.411-0.806-1.325-0.377-1.988
			c0.233-0.358,0.646-0.592,1.075-0.629c0.52-0.035,0.949,0.287,1.434,0.467c0.663,0.216,1.362,0.145,1.846-0.394
			c0.573-0.644,0.394-1.595-0.395-1.989c-0.645-0.376-1.936-0.502-2.885-1.452c-0.717-0.717-1.129-1.72-1.11-2.741
			c0.02-1.379,0.771-2.634,2.024-3.332c1.308-0.734,3.012-0.788,4.337,0.019c0.681,0.412,0.914,1.344,0.52,1.971
			c-0.431,0.682-1.166,0.824-2.062,0.468c-1.092-0.449-2.255,0.375-1.916,1.235c0.287,0.734,1.703,0.932,2.42,1.29
			c1.288,0.646,2.132,1.97,2.257,3.368C93.318,116.048,92.979,117.159,92.208,118.002z"/>
		<path fill="#FFFFFF" d="M102.649,107.573c0,0.789-0.643,1.434-1.45,1.434H99.82v8.959c0,0.788-0.646,1.434-1.416,1.434
			c-0.789,0-1.435-0.646-1.435-1.434v-8.959h-1.379c-0.805,0-1.451-0.645-1.451-1.434c0-0.788,0.646-1.432,1.451-1.432h5.609
			C102.007,106.142,102.649,106.785,102.649,107.573z"/>
		<path fill="#FFFFFF" d="M113.472,119.272c-0.594,0.306-1.506,0.107-1.882-0.733l-0.627-1.416h-5.484l-0.645,1.416
			c-0.376,0.824-1.254,1.003-1.881,0.733c-0.718-0.305-1.04-1.163-0.718-1.88l4.642-10.374c0.145-0.342,0.43-0.609,0.753-0.754
			c0.357-0.144,0.806-0.144,1.165,0c0.341,0.145,0.591,0.412,0.752,0.754l4.641,10.374
			C114.511,118.109,114.169,118.915,113.472,119.272z M109.672,114.275l-1.45-3.263l-1.451,3.263H109.672z"/>
		<path fill="#FFFFFF" d="M122.838,108.396l-3.062,4.392v5.196c0,0.77-0.646,1.416-1.435,1.416c-0.788,0-1.415-0.646-1.415-1.416
			v-5.196l-3.064-4.392c-0.465-0.644-0.304-1.521,0.343-1.987c0.643-0.448,1.521-0.307,1.97,0.34l2.167,3.102l2.169-3.102
			c0.447-0.645,1.326-0.788,1.988-0.34C123.144,106.875,123.286,107.753,122.838,108.396z"/>
	</g>
	<g>
		<g>
			<path fill="#FFFFFF" d="M86.473,32.369H68.528v1.759h17.944V32.369z M95.604,32.369h-1.682v1.759h2.345
				c2.401,0,4.348,1.947,4.348,4.348v9.094H54.434v-9.094c0-2.402,1.945-4.348,4.345-4.348h2.299v-1.759h-1.524
				c-4.367,0-6.89,2.186-6.89,6.053V75.95c0,0.867,1.022,1.893,2.014,1.893h45.616c0.992,0,2.045-1.026,2.045-1.893V38.422
				C102.338,34.498,99.907,32.369,95.604,32.369z M60.845,62.402h-4.161v-4.159h4.161V62.402z M60.845,56.503h-4.161v-4.16h4.161
				V56.503z M66.945,62.402h-4.16v-4.159h4.16V62.402z M66.945,56.503h-4.16v-4.16h4.16V56.503z M73.045,62.402h-4.162v-4.159h4.162
				V62.402z M73.045,56.503h-4.162v-4.16h4.162V56.503z M79.146,62.402h-4.162v-4.159h4.162V62.402z M79.146,56.503h-4.162v-4.16
				h4.162V56.503z M85.246,56.503h-4.16v-4.16h4.16V56.503z M91.347,56.503h-4.161v-4.16h4.161V56.503z M97.447,56.503h-4.16v-4.16
				h4.16V56.503z M64.725,39.822h0.155c0.987,0,1.786-0.801,1.786-1.787v-7.606c0-0.986-0.799-1.787-1.786-1.787h-0.155
				c-0.985,0-1.785,0.801-1.785,1.787v7.606C62.94,39.022,63.74,39.822,64.725,39.822z M90.12,39.822h0.154
				c0.987,0,1.786-0.801,1.786-1.787v-7.606c0-0.986-0.799-1.787-1.786-1.787H90.12c-0.986,0-1.785,0.801-1.785,1.787v7.606
				C88.335,39.022,89.134,39.822,90.12,39.822z"/>
		</g>
	</g>
</g>
</svg>
