<?xml version="1.0" encoding="utf-8"?>
<!-- Generator: Adobe Illustrator 16.0.4, SVG Export Plug-In . SVG Version: 6.00 Build 0)  -->
<!DOCTYPE svg PUBLIC "-//W3C//DTD SVG 1.1//EN" "http://www.w3.org/Graphics/SVG/1.1/DTD/svg11.dtd">
<svg version="1.1" id="Layer_1" xmlns="http://www.w3.org/2000/svg" xmlns:xlink="http://www.w3.org/1999/xlink" x="0px" y="0px"
	 width="155px" height="155px" viewBox="0 0 155 155" enable-background="new 0 0 155 155" xml:space="preserve">
<g>
	<circle fill="#EC1C24" cx="77.5" cy="77.502" r="76.5"/>
	<g>
		<path fill="#FFFFFF" d="M60.819,108.665c-0.627,0.378-1.504,0.268-1.954-0.484l-2.544-4.336h-0.268v3.601
			c0,0.79-0.645,1.435-1.452,1.435c-0.77,0-1.415-0.645-1.415-1.435V97.055c0-0.786,0.645-1.433,1.415-1.433h2.794
			c2.276,0,4.104,1.846,4.104,4.104c0,1.576-0.86,2.938-2.149,3.618l1.989,3.368C61.731,107.412,61.499,108.253,60.819,108.665z
			 M57.396,98.489h-1.342v2.489h1.342c0.7,0,1.255-0.536,1.255-1.253C58.651,99.045,58.095,98.489,57.396,98.489z"/>
		<path fill="#FFFFFF" d="M75.812,102.252c0,3.726-3.009,6.735-6.737,6.735c-3.708,0-6.736-3.01-6.736-6.735
			c0-3.728,3.027-6.737,6.736-6.737C72.803,95.515,75.812,98.524,75.812,102.252z M65.206,102.252c0,2.149,1.703,3.888,3.852,3.888
			c2.115,0,3.887-1.774,3.887-3.888c0-2.116-1.773-3.89-3.887-3.89C66.909,98.362,65.206,100.101,65.206,102.252z"/>
		<path fill="#FFFFFF" d="M90.357,102.252c0,3.726-3.012,6.735-6.737,6.735c-3.71,0-6.738-3.01-6.738-6.735
			c0-3.728,3.028-6.737,6.738-6.737C87.348,95.515,90.357,98.524,90.357,102.252z M79.749,102.252c0,2.149,1.703,3.888,3.852,3.888
			c2.115,0,3.889-1.774,3.889-3.888c0-2.116-1.774-3.89-3.889-3.89C81.452,98.362,79.749,100.101,79.749,102.252z"/>
		<path fill="#FFFFFF" d="M104.92,97.055v10.392c0,0.791-0.644,1.435-1.434,1.435c-0.807,0-1.451-0.644-1.451-1.435v-5.07
			l-2.6,5.321c-0.231,0.467-0.681,0.717-1.128,0.717c-0.466,0-0.913-0.267-1.129-0.717l-2.616-5.321v5.07
			c0,0.791-0.646,1.435-1.452,1.435c-0.77,0-1.416-0.644-1.416-1.435V97.055c0-0.786,0.646-1.433,1.416-1.433
			c0.754,0,1.183,0.519,1.488,1.111c0.107,0.215,2.312,4.747,3.709,7.596c1.379-2.85,3.602-7.365,3.709-7.596
			c0.286-0.593,0.718-1.111,1.469-1.111C104.276,95.62,104.92,96.269,104.92,97.055z"/>
		<path fill="#FFFFFF" d="M42.656,127.386c-1.721,1.916-4.354,1.773-6.147,0.663c-0.662-0.412-0.805-1.325-0.376-1.99
			c0.232-0.357,0.645-0.592,1.075-0.627c0.521-0.036,0.95,0.286,1.433,0.468c0.664,0.214,1.362,0.142,1.846-0.396
			c0.573-0.645,0.393-1.595-0.394-1.989c-0.644-0.375-1.936-0.502-2.885-1.45c-0.716-0.718-1.128-1.72-1.111-2.742
			c0.019-1.38,0.77-2.634,2.026-3.331c1.307-0.734,3.01-0.791,4.335,0.018c0.681,0.411,0.915,1.343,0.519,1.97
			c-0.429,0.681-1.164,0.824-2.06,0.467c-1.092-0.447-2.258,0.376-1.917,1.237c0.287,0.735,1.701,0.93,2.418,1.288
			c1.291,0.646,2.132,1.972,2.257,3.369C43.766,125.434,43.425,126.543,42.656,127.386z"/>
		<path fill="#FFFFFF" d="M52.347,127.368c0,0.77-0.645,1.417-1.417,1.417h-4.461c-0.789,0-1.433-0.646-1.433-1.417V116.94
			c0-0.771,0.644-1.416,1.433-1.416h4.461c0.771,0,1.417,0.645,1.417,1.416c0,0.805-0.645,1.452-1.417,1.452h-3.027v2.507h2.867
			c0.699,0,1.254,0.573,1.254,1.255c0,0.698-0.555,1.255-1.254,1.255h-2.867v2.509h3.027
			C51.701,125.917,52.347,126.562,52.347,127.368z"/>
		<path fill="#FFFFFF" d="M59.671,128.784h-4.479c-0.77,0-1.416-0.646-1.416-1.435v-10.393c0-0.788,0.645-1.433,1.416-1.433
			c0.806,0,1.452,0.645,1.452,1.433v8.96h3.027c0.789,0,1.432,0.645,1.432,1.433C61.104,128.138,60.46,128.784,59.671,128.784z"/>
		<path fill="#FFFFFF" d="M69.542,127.368c0,0.77-0.646,1.417-1.416,1.417h-4.463c-0.788,0-1.432-0.646-1.432-1.417V116.94
			c0-0.771,0.644-1.416,1.432-1.416h4.463c0.769,0,1.416,0.645,1.416,1.416c0,0.805-0.646,1.452-1.416,1.452h-3.027v2.507h2.866
			c0.699,0,1.254,0.573,1.254,1.255c0,0.698-0.555,1.255-1.254,1.255h-2.866v2.509h3.027
			C68.896,125.917,69.542,126.562,69.542,127.368z"/>
		<path fill="#FFFFFF" d="M77.351,128.891c-3.709,0-6.736-3.028-6.736-6.738c0-3.707,3.027-6.735,6.736-6.735
			c1.487,0,2.903,0.465,4.103,1.398c0.629,0.482,0.734,1.36,0.268,2.004c-0.501,0.63-1.379,0.736-2.006,0.253
			c-0.682-0.52-1.506-0.808-2.365-0.808c-2.15,0-3.887,1.758-3.887,3.888c0,2.133,1.738,3.888,3.887,3.888
			c0.842,0,1.667-0.285,2.347-0.807c0.645-0.465,1.522-0.356,2.007,0.27c0.483,0.627,0.358,1.522-0.269,2.007
			C80.254,128.424,78.838,128.891,77.351,128.891z"/>
		<path fill="#FFFFFF" d="M91.503,116.957c0,0.788-0.646,1.435-1.452,1.435H88.67v8.958c0,0.788-0.644,1.435-1.415,1.435
			c-0.788,0-1.433-0.646-1.433-1.435v-8.958h-1.379c-0.806,0-1.452-0.646-1.452-1.435s0.646-1.433,1.452-1.433h5.608
			C90.856,115.524,91.503,116.169,91.503,116.957z"/>
		<path fill="#FFFFFF" d="M93.99,128.784c-0.789,0-1.416-0.646-1.416-1.418v-10.427c0-0.771,0.627-1.415,1.416-1.415
			c0.788,0,1.414,0.644,1.414,1.415v10.427C95.404,128.138,94.778,128.784,93.99,128.784z"/>
		<path fill="#FFFFFF" d="M110.132,122.152c0,3.727-3.011,6.738-6.736,6.738c-3.709,0-6.736-3.012-6.736-6.738
			s3.027-6.735,6.736-6.735C107.121,115.417,110.132,118.426,110.132,122.152z M99.524,122.152c0,2.151,1.701,3.888,3.852,3.888
			c2.115,0,3.889-1.772,3.889-3.888c0-2.113-1.775-3.888-3.889-3.888C101.226,118.265,99.524,120.005,99.524,122.152z"/>
		<path fill="#FFFFFF" d="M121.953,116.939v10.41c0,1.308-1.595,1.863-2.507,0.985c-0.182-0.179-0.342-0.447-0.484-0.663
			c-0.216-0.341-4.372-6.396-4.624-6.755v6.433c0,0.788-0.644,1.435-1.433,1.435s-1.435-0.646-1.435-1.435v-10.41
			c0-0.771,0.646-1.415,1.435-1.415c0.483,0,0.842,0.232,1.147,0.607c0.304,0.395,3.331,4.803,5.052,7.312v-6.505
			c0-0.771,0.627-1.416,1.416-1.416C121.309,115.524,121.953,116.169,121.953,116.939z"/>
	</g>
	<g>
		<g>
			<path fill="#FFFFFF" d="M78.483,44.98c0.179-0.064,0.372-0.098,0.557-0.146c0.999-1.643,1.584-3.562,1.584-5.619
				c0-5.997-4.88-10.878-10.878-10.878c-5.999,0-10.878,4.88-10.878,10.878c0,4.886,3.239,9.028,7.681,10.396
				c0.208-0.135,0.404-0.254,0.586-0.354c0.009-0.104,0.021-0.208,0.033-0.311c0.008-0.067,0.037-0.125,0.049-0.19l-0.064-0.296
				c-4.042-1.135-7.016-4.845-7.016-9.243c0-5.297,4.31-9.607,9.609-9.607c5.297,0,9.608,4.31,9.608,9.607
				c0,2.055-0.653,3.958-1.758,5.522C77.903,44.794,78.2,44.872,78.483,44.98z M56.428,39.214c0-7.343,5.974-13.316,13.318-13.316
				c7.342,0,13.317,5.974,13.317,13.316c0,2.008-0.46,3.905-1.258,5.615c0.195,0.056,0.395,0.103,0.584,0.186
				c0.011-0.004,0.021-0.005,0.033-0.008c0.809-1.766,1.274-3.723,1.274-5.792c0-7.692-6.258-13.952-13.951-13.952
				c-7.693,0-13.953,6.259-13.953,13.952c0,5.672,3.408,10.555,8.279,12.735c0.121-0.18,0.249-0.353,0.386-0.519
				C59.739,49.381,56.428,44.679,56.428,39.214z M69.747,34.452c2.339,0,4.139,1.726,4.678,3.927
				c0.307,0.888,1.362,4.929,1.362,4.929c0.796-1.168,1.261-2.577,1.261-4.093c0-4.026-3.277-7.301-7.301-7.301
				c-4.026,0-7.301,3.274-7.301,7.301c0,2.881,1.682,5.37,4.111,6.557c0,0-1.574-5.671-1.574-6.557
				C64.982,36.587,67.12,34.452,69.747,34.452z M92.914,71.582l-1.371-6.314c-0.283-1.308-1.569-2.144-2.862-1.865l-0.656,0.145
				c0.031-1.977,0.482-3.892,0.329-5.914c-0.173-2.284-0.626-4.75-1.416-6.902c-0.536-1.458-1.433-3.166-3.176-3.199
				c-0.614-0.012-1.17,0.234-1.554,0.635c-0.526-0.6-1.233-0.96-2.154-0.812c-0.595,0.099-1.209,0.358-1.643,0.777
				c-0.596-0.655-1.427-0.912-2.505-0.733c-0.469,0.079-0.893,0.308-1.222,0.627l-1.699-7.65c-0.25-1.131-1.696-3.311-2.826-3.06
				l-1.127,0.249c-1.132,0.251-1.521,2.838-1.27,3.969l2.179,9.818c0.35,2.317,1.273,4.947,0.793,4.792
				c-0.671-0.215-0.916-5.103-1.883-4.724c-0.711,0.277-3.015,1.841-2.84,3.011c0.302,2.01,1.012,4.473,1.207,5.118
				c0.384,1.265,1.019,2.138,1.881,2.625c1.447,0.815,2.133,1.065,3.636,1.759c0.97,0.449,0.652,0.512,1.634,0.934
				c0.467,0.201,0.977,0.431,1.371,0.768c0.148,0.127,0.256,0.308,0.349,0.502l-0.498,0.107c-1.294,0.282-2.117,1.574-1.832,2.882
				l1.372,6.314c0.281,1.308,1.566,2.142,2.861,1.861l13.089-2.84C92.375,74.183,93.198,72.891,92.914,71.582z M90.437,72.894
				l-12.513,2.715c-0.473,0.103-0.939-0.208-1.044-0.692l-1.31-6.036c-0.105-0.486,0.192-0.962,0.665-1.065l0.404-0.086l5.875-1.275
				l6.231-1.353c0.473-0.103,0.94,0.207,1.044,0.692l1.312,6.038C91.207,72.314,90.908,72.791,90.437,72.894z"/>
		</g>
	</g>
</g>
</svg>
