<?xml version="1.0" encoding="utf-8"?>
<!-- Generator: Adobe Illustrator 16.0.4, SVG Export Plug-In . SVG Version: 6.00 Build 0)  -->
<!DOCTYPE svg PUBLIC "-//W3C//DTD SVG 1.1//EN" "http://www.w3.org/Graphics/SVG/1.1/DTD/svg11.dtd">
<svg version="1.1" id="Layer_1" xmlns="http://www.w3.org/2000/svg" xmlns:xlink="http://www.w3.org/1999/xlink" x="0px" y="0px"
	 width="155px" height="155px" viewBox="0 0 155 155" enable-background="new 0 0 155 155" xml:space="preserve">
<g>
	<g>
		<circle fill="#EC1C24" cx="77.5" cy="77.5" r="76.5"/>
	</g>
	<g>
		<path fill="#EC1C24" d="M67.508,72.708h-10.43c-0.837,0-1.517-0.662-1.517-1.477v-21.62c0-0.816,0.679-1.477,1.517-1.477h10.43
			c0.838,0,1.517,0.661,1.517,1.477v21.619C69.025,72.046,68.346,72.708,67.508,72.708z"/>
		<path fill="#FFFFFF" d="M101.812,51.137c0.02-0.087,0.03-0.183,0.023-0.288c0.007-0.116-0.01-0.222-0.031-0.317
			c0.046-0.348-0.479-3.734-1.688-4.168c-3.626-1.301-11.276,0.113-11.096-0.952c0.479-2.824,2.987-5.125,3.906-7.845
			c0.545-1.616,0.508-3.317,0.242-4.976c-0.195-1.215-0.768-3.412-2.063-4.018c-2.243-1.051-3.723,1.319-4.362,3.119
			c-0.35,0.981-0.527,1.743-1.13,2.651c-0.88,1.332-1.949,2.546-3.011,3.739c-1.783,2.002-4.01,3.704-5.619,5.835
			c-1.041,1.378-1.963,2.836-2.968,4.242c-0.477,0.668-1.012,1.393-1.68,1.898c-0.253,0.191-0.571,0.307-0.913,0.388v-0.833
			c0-2.137-1.757-3.877-3.917-3.877H57.078c-2.16,0-3.916,1.74-3.916,3.877v21.619c0,2.137,1.755,3.876,3.916,3.876h10.43
			c2.16,0,3.917-1.739,3.917-3.876v-1.086c3.106,0.727,5.974,2.095,9.218,2.544c3.661,0.511,7.702,0.639,11.369,0.129
			c2.481-0.349,5.482-1.177,6.132-3.912c0.229-0.966,0.032-1.923-0.468-2.67c1.126-0.626,1.938-1.62,2.017-3.118
			c0.049-0.97-0.15-2.029-0.663-2.857c1.239-0.717,1.927-1.939,2.015-3.7c0.044-0.927-0.264-1.843-0.829-2.53
			C101.129,53.43,101.68,52.622,101.812,51.137z M69.025,71.231c0,0.814-0.679,1.477-1.517,1.477h-10.43
			c-0.837,0-1.517-0.662-1.517-1.477V49.612c0-0.816,0.679-1.477,1.517-1.477h10.43c0.838,0,1.517,0.661,1.517,1.477V71.231z"/>
	</g>
	<g>
		<path fill="#FFFFFF" d="M62.994,108.491c-1.72,1.916-4.354,1.771-6.146,0.663c-0.662-0.412-0.806-1.326-0.376-1.991
			c0.233-0.356,0.645-0.591,1.076-0.626c0.518-0.036,0.949,0.285,1.433,0.468c0.663,0.214,1.362,0.142,1.846-0.395
			c0.573-0.646,0.393-1.596-0.395-1.99c-0.645-0.376-1.936-0.502-2.884-1.451c-0.718-0.718-1.129-1.721-1.111-2.742
			c0.018-1.379,0.77-2.634,2.025-3.331c1.308-0.734,3.01-0.79,4.336,0.018c0.68,0.413,0.914,1.343,0.518,1.972
			c-0.429,0.679-1.164,0.823-2.06,0.466c-1.092-0.448-2.258,0.376-1.917,1.236c0.287,0.734,1.703,0.932,2.418,1.29
			c1.292,0.644,2.132,1.971,2.259,3.368C64.106,106.537,63.766,107.646,62.994,108.491z"/>
		<path fill="#FFFFFF" d="M69.711,109.995c-2.438,0-4.425-1.988-4.425-4.425v-7.526c0-0.77,0.644-1.415,1.433-1.415
			c0.771,0,1.416,0.645,1.416,1.415v7.526c0,0.86,0.698,1.558,1.578,1.558c0.877,0,1.576-0.697,1.576-1.558v-7.526
			c0-0.77,0.645-1.415,1.416-1.415c0.789,0,1.434,0.645,1.434,1.415v7.526C74.137,108.007,72.147,109.995,69.711,109.995z"/>
		<path fill="#FFFFFF" d="M83.896,100.731c0,2.276-1.844,4.121-4.12,4.121h-1.343v3.601c0,0.79-0.646,1.434-1.434,1.434
			c-0.807,0-1.433-0.644-1.433-1.434V98.062c0-0.788,0.626-1.433,1.433-1.433h2.777C82.053,96.629,83.896,98.473,83.896,100.731z
			 M81.031,100.731c0-0.679-0.556-1.235-1.255-1.235h-1.343v2.488h1.343C80.476,101.986,81.031,101.448,81.031,100.731z"/>
		<path fill="#FFFFFF" d="M92.281,108.471c0,0.772-0.646,1.418-1.416,1.418h-4.462c-0.788,0-1.433-0.645-1.433-1.418V98.044
			c0-0.771,0.645-1.416,1.433-1.416h4.462c0.77,0,1.415,0.645,1.415,1.416c0,0.806-0.645,1.452-1.415,1.452h-3.028v2.507h2.866
			c0.699,0,1.254,0.573,1.254,1.254c0,0.698-0.554,1.255-1.254,1.255h-2.866v2.51h3.028
			C91.635,107.021,92.281,107.666,92.281,108.471z"/>
		<path fill="#FFFFFF" d="M101.344,109.672c-0.628,0.377-1.505,0.269-1.953-0.482l-2.544-4.337h-0.268v3.601
			c0,0.79-0.646,1.434-1.452,1.434c-0.771,0-1.416-0.644-1.416-1.434V98.062c0-0.788,0.645-1.433,1.416-1.433h2.796
			c2.275,0,4.103,1.844,4.103,4.103c0,1.577-0.861,2.94-2.15,3.62l1.99,3.367C102.259,108.419,102.025,109.261,101.344,109.672z
			 M97.923,99.496h-1.345v2.488h1.345c0.697,0,1.253-0.537,1.253-1.254C99.176,100.053,98.62,99.496,97.923,99.496z"/>
		<path fill="#FFFFFF" d="M56.986,127.676c0.467,0.447,0.484,1.236,0,1.737c-0.482,0.501-1.289,0.52-1.809,0l-0.518-0.536
			c-1.041,0.681-2.241,1.037-3.549,1.037c-3.709,0-6.737-2.99-6.737-6.753c0-3.727,3.027-6.719,6.737-6.719s6.738,2.99,6.738,6.719
			c0,1.521-0.502,2.919-1.344,4.031L56.986,127.676z M52.543,126.763l-0.357-0.36c-0.483-0.483-0.467-1.271,0-1.736
			c0.501-0.503,1.271-0.484,1.791,0l0.466,0.448c0.358-0.556,0.539-1.236,0.539-1.954c0-2.132-1.72-3.852-3.872-3.852
			c-2.186,0-3.887,1.684-3.887,3.852c0,2.185,1.702,3.888,3.887,3.888C51.611,127.048,52.095,126.959,52.543,126.763z"/>
		<path fill="#FFFFFF" d="M63.522,129.897c-2.437,0-4.425-1.988-4.425-4.425v-7.526c0-0.77,0.643-1.414,1.432-1.414
			c0.771,0,1.417,0.645,1.417,1.414v7.526c0,0.861,0.699,1.558,1.577,1.558s1.577-0.696,1.577-1.558v-7.526
			c0-0.77,0.646-1.414,1.416-1.414c0.79,0,1.435,0.645,1.435,1.414v7.526C67.948,127.909,65.959,129.897,63.522,129.897z"/>
		<path fill="#FFFFFF" d="M80.469,129.664c-0.591,0.307-1.504,0.108-1.882-0.734l-0.626-1.415h-5.482l-0.645,1.415
			c-0.378,0.825-1.254,1.004-1.881,0.734c-0.718-0.305-1.041-1.164-0.718-1.88l4.642-10.374c0.143-0.343,0.429-0.609,0.752-0.754
			c0.357-0.143,0.807-0.143,1.165,0c0.341,0.145,0.592,0.411,0.752,0.754l4.642,10.374C81.51,128.5,81.169,129.306,80.469,129.664z
			 M76.671,124.666l-1.452-3.264l-1.451,3.264H76.671z"/>
		<path fill="#FFFFFF" d="M88.636,129.791h-4.479c-0.771,0-1.416-0.646-1.416-1.435v-10.392c0-0.788,0.645-1.432,1.416-1.432
			c0.805,0,1.451,0.644,1.451,1.432v8.959h3.028c0.788,0,1.433,0.646,1.433,1.433C90.068,129.146,89.424,129.791,88.636,129.791z"/>
		<path fill="#FFFFFF" d="M92.611,129.791c-0.79,0-1.416-0.646-1.416-1.417v-10.428c0-0.77,0.626-1.414,1.416-1.414
			c0.788,0,1.415,0.645,1.415,1.414v10.428C94.025,129.146,93.397,129.791,92.611,129.791z"/>
		<path fill="#FFFFFF" d="M103.61,117.964c0,0.789-0.645,1.434-1.452,1.434h-1.379v8.957c0,0.791-0.646,1.435-1.415,1.435
			c-0.79,0-1.434-0.644-1.434-1.435v-8.957H96.55c-0.804,0-1.451-0.645-1.451-1.434c0-0.787,0.646-1.432,1.451-1.432h5.61
			C102.966,116.532,103.61,117.177,103.61,117.964z"/>
		<path fill="#FFFFFF" d="M113.569,118.787l-3.063,4.392v5.195c0,0.771-0.645,1.417-1.433,1.417s-1.417-0.646-1.417-1.417v-5.195
			l-3.063-4.392c-0.466-0.643-0.307-1.521,0.34-1.988c0.646-0.447,1.523-0.306,1.971,0.341l2.169,3.101l2.166-3.101
			c0.448-0.646,1.327-0.788,1.991-0.341C113.874,117.267,114.017,118.145,113.569,118.787z"/>
	</g>
</g>
</svg>
